<svg xmlns="http://www.w3.org/2000/svg" xmlns:xlink="http://www.w3.org/1999/xlink" width="500" zoomAndPan="magnify" viewBox="0 0 375 374.999991" height="500" preserveAspectRatio="xMidYMid meet" version="1.0">
  <defs>
    <linearGradient id="orangeGradient" x1="0%" y1="0%" x2="100%" y2="100%">
      <stop offset="0%" style="stop-color:#ff6400;stop-opacity:1" />
      <stop offset="100%" style="stop-color:#ff9500;stop-opacity:1" />
    </linearGradient>
    <clipPath id="4847b32c32">
      <path d="M 45.363281 168.917969 L 51.535156 168.917969 L 51.535156 176.367188 L 45.363281 176.367188 Z M 45.363281 168.917969 " clip-rule="nonzero"/>
    </clipPath>
    <clipPath id="f629ea0012">
      <path d="M 45.75 172.800781 C 48.375 169.125 49.726562 168.898438 50.324219 169.199219 C 50.925781 169.425781 51.523438 170.324219 51.523438 171 C 51.523438 171.75 50.699219 173.023438 50.101562 173.324219 C 49.5 173.625 48.449219 173.476562 47.925781 173.101562 C 47.398438 172.726562 46.875 171.824219 46.949219 171.148438 C 47.023438 170.476562 47.925781 169.199219 48.675781 168.976562 C 49.351562 168.824219 50.851562 169.425781 51.226562 170.023438 C 51.601562 170.550781 51.523438 171.449219 51.300781 172.199219 C 51.074219 173.175781 50.25 174.601562 49.5 175.273438 C 48.976562 175.800781 48.300781 176.25 47.699219 176.324219 C 47.175781 176.324219 46.574219 176.101562 46.125 175.726562 C 45.75 175.425781 45.449219 174.824219 45.375 174.375 C 45.300781 173.851562 45.75 172.800781 45.75 172.800781 " clip-rule="nonzero"/>
    </clipPath>
  </defs>
  <path fill="url(#orangeGradient)" d="M 368.953125 211.695312 C 372.296875 211.695312 375 208.988281 375 205.644531 L 375 169.355469 C 375 166.015625 372.296875 163.304688 368.953125 163.304688 L 355.105469 163.304688 C 354.253906 157.390625 353.082031 151.488281 351.597656 145.652344 L 370.511719 137.945312 C 372 137.339844 373.179688 136.167969 373.808594 134.691406 C 374.429688 133.210938 374.4375 131.546875 373.832031 130.058594 L 360.917969 98.371094 C 359.65625 95.28125 356.109375 93.792969 353.039062 95.050781 L 334.132812 102.75 C 330.628906 96.707031 326.726562 90.851562 322.488281 85.253906 L 336.9375 70.800781 C 339.300781 68.4375 339.300781 64.613281 336.9375 62.25 L 312.742188 38.054688 C 310.378906 35.691406 306.554688 35.691406 304.191406 38.054688 L 289.734375 52.507812 C 284.671875 48.664062 279.386719 45.101562 273.945312 41.859375 L 281.871094 23.042969 C 282.496094 21.5625 282.503906 19.898438 281.898438 18.410156 C 281.292969 16.921875 280.125 15.742188 278.644531 15.121094 L 247.105469 1.84375 C 244.066406 0.5625 240.484375 1.988281 239.183594 5.074219 L 231.265625 23.878906 C 224.84375 22.171875 218.292969 20.835938 211.695312 19.894531 L 211.695312 6.046875 C 211.695312 2.710938 208.988281 0 205.644531 0 L 169.355469 0 C 166.011719 0 163.304688 2.710938 163.304688 6.046875 L 163.304688 19.894531 C 157.390625 20.746094 151.488281 21.917969 145.652344 23.40625 L 137.945312 4.492188 C 136.679688 1.398438 133.136719 -0.0859375 130.066406 1.171875 L 98.378906 14.082031 C 96.890625 14.683594 95.710938 15.859375 95.082031 17.335938 C 94.457031 18.816406 94.453125 20.480469 95.054688 21.96875 L 102.757812 40.867188 C 96.71875 44.363281 90.863281 48.265625 85.257812 52.519531 L 70.800781 38.070312 C 68.4375 35.703125 64.613281 35.703125 62.25 38.070312 L 38.054688 62.261719 C 35.691406 64.628906 35.691406 68.449219 38.054688 70.816406 L 52.507812 85.265625 C 48.664062 90.332031 45.101562 95.617188 41.859375 101.0625 L 23.042969 93.140625 C 19.996094 91.855469 16.421875 93.285156 15.121094 96.367188 L 1.84375 127.898438 C 0.550781 130.976562 1.988281 134.523438 5.074219 135.824219 L 23.878906 143.746094 C 22.171875 150.15625 20.835938 156.707031 19.894531 163.304688 L 6.046875 163.304688 C 2.703125 163.304688 0 166.015625 0 169.355469 L 0 205.644531 C 0 208.988281 2.703125 211.695312 6.046875 211.695312 L 19.894531 211.695312 C 20.746094 217.609375 21.917969 223.511719 23.402344 229.347656 L 4.488281 237.054688 C 3 237.660156 1.820312 238.828125 1.191406 240.308594 C 0.570312 241.785156 0.5625 243.453125 1.167969 244.933594 L 14.082031 276.621094 C 14.683594 278.109375 15.851562 279.289062 17.335938 279.917969 C 18.816406 280.546875 20.484375 280.554688 21.960938 279.945312 L 40.863281 272.242188 C 44.363281 278.285156 48.265625 284.140625 52.511719 289.742188 L 38.0625 304.199219 C 35.699219 306.5625 35.699219 310.386719 38.0625 312.75 L 62.257812 336.945312 C 64.621094 339.308594 68.445312 339.308594 70.808594 336.945312 L 85.265625 322.492188 C 90.328125 326.335938 95.613281 329.898438 101.054688 333.140625 L 93.128906 351.957031 C 91.832031 355.035156 93.273438 358.578125 96.355469 359.878906 L 127.894531 373.15625 C 129.375 373.773438 131.039062 373.789062 132.519531 373.179688 C 134.007812 372.574219 135.1875 371.40625 135.816406 369.925781 L 143.734375 351.121094 C 150.15625 352.832031 156.714844 354.167969 163.304688 355.113281 L 163.304688 368.953125 C 163.304688 372.296875 166.011719 375 169.355469 375 L 205.644531 375 C 208.988281 375 211.695312 372.296875 211.695312 368.953125 L 211.695312 355.105469 C 217.609375 354.253906 223.511719 353.082031 229.347656 351.597656 L 237.054688 370.511719 C 237.660156 372 238.828125 373.179688 240.308594 373.808594 C 241.789062 374.429688 243.460938 374.445312 244.933594 373.832031 L 276.621094 360.917969 C 278.109375 360.316406 279.289062 359.148438 279.917969 357.664062 C 280.542969 356.191406 280.546875 354.519531 279.945312 353.039062 L 272.242188 334.136719 C 278.285156 330.636719 284.140625 326.734375 289.742188 322.488281 L 304.199219 336.9375 C 306.5625 339.300781 310.386719 339.300781 312.75 336.9375 L 336.945312 312.742188 C 339.308594 310.378906 339.308594 306.554688 336.945312 304.191406 L 322.492188 289.734375 C 326.335938 284.671875 329.898438 279.386719 333.140625 273.945312 L 351.957031 281.871094 C 355.003906 283.144531 358.578125 281.734375 359.878906 278.644531 L 373.15625 247.105469 C 373.777344 245.632812 373.785156 243.960938 373.179688 242.480469 C 372.574219 240.992188 371.40625 239.8125 369.925781 239.183594 L 351.121094 231.265625 C 352.832031 224.84375 354.167969 218.285156 355.113281 211.695312 Z M 341.492188 240.339844 L 359.65625 247.984375 L 351.074219 268.371094 L 332.890625 260.714844 C 330.058594 259.535156 326.746094 260.660156 325.253906 263.363281 C 320.789062 271.445312 315.5625 279.199219 309.71875 286.414062 C 307.773438 288.824219 307.953125 292.3125 310.144531 294.503906 L 324.109375 308.46875 L 308.46875 324.109375 L 294.503906 310.144531 C 292.3125 307.949219 288.824219 307.773438 286.414062 309.71875 C 278.703125 315.96875 270.410156 321.488281 261.761719 326.136719 C 259.035156 327.59375 257.855469 330.878906 259.023438 333.742188 L 266.457031 352.003906 L 245.96875 360.351562 L 238.53125 342.078125 C 237.367188 339.210938 234.246094 337.699219 231.253906 338.546875 C 222.617188 341.039062 213.773438 342.796875 204.980469 343.765625 C 201.917969 344.105469 199.597656 346.695312 199.597656 349.777344 L 199.597656 362.902344 L 175.402344 362.902344 L 175.402344 349.777344 C 175.402344 346.695312 173.082031 344.105469 170.015625 343.765625 C 160.523438 342.71875 151.089844 340.796875 141.980469 338.050781 C 138.992188 337.160156 135.859375 338.648438 134.65625 341.492188 L 127.015625 359.65625 L 106.628906 351.074219 L 114.285156 332.890625 C 115.480469 330.042969 114.339844 326.746094 111.636719 325.253906 C 103.554688 320.789062 95.800781 315.5625 88.585938 309.71875 C 86.183594 307.777344 82.6875 307.949219 80.496094 310.144531 L 66.53125 324.109375 L 50.890625 308.46875 L 64.855469 294.503906 C 67.046875 292.3125 67.234375 288.828125 65.28125 286.414062 C 59.03125 278.703125 53.511719 270.410156 48.863281 261.761719 C 47.40625 259.035156 44.121094 257.84375 41.257812 259.023438 L 22.996094 266.457031 L 14.648438 245.96875 L 32.921875 238.53125 C 35.789062 237.367188 37.3125 234.222656 36.453125 231.253906 C 33.960938 222.617188 32.203125 213.773438 31.234375 204.980469 C 30.894531 201.917969 28.304688 199.597656 25.222656 199.597656 L 12.097656 199.597656 L 12.097656 175.402344 L 25.222656 175.402344 C 28.304688 175.402344 30.894531 173.085938 31.234375 170.019531 C 32.28125 160.523438 34.203125 151.09375 36.949219 141.984375 C 37.84375 139.023438 36.355469 135.863281 33.507812 134.667969 L 15.34375 127.015625 L 23.925781 106.632812 L 42.109375 114.285156 C 44.957031 115.476562 48.253906 114.339844 49.753906 111.628906 C 54.207031 103.558594 59.429688 95.800781 65.28125 88.578125 C 67.226562 86.175781 67.046875 82.679688 64.855469 80.496094 L 50.890625 66.53125 L 66.53125 50.890625 L 80.496094 64.855469 C 82.6875 67.050781 86.175781 67.226562 88.585938 65.28125 C 96.300781 59.027344 104.601562 53.503906 113.238281 48.871094 C 115.964844 47.40625 117.144531 44.121094 115.976562 41.257812 L 108.542969 23.003906 L 129.03125 14.65625 L 136.476562 32.925781 C 137.636719 35.789062 140.800781 37.324219 143.753906 36.453125 C 152.378906 33.960938 161.21875 32.203125 170.019531 31.234375 C 173.082031 30.894531 175.402344 28.304688 175.402344 25.222656 L 175.402344 12.097656 L 199.597656 12.097656 L 199.597656 25.222656 C 199.597656 28.304688 201.917969 30.894531 204.984375 31.234375 C 214.480469 32.28125 223.917969 34.210938 233.019531 36.957031 C 235.988281 37.84375 239.148438 36.363281 240.34375 33.515625 L 247.984375 15.351562 L 268.371094 23.933594 L 260.714844 42.101562 C 259.519531 44.953125 260.660156 48.246094 263.363281 49.746094 C 271.453125 54.210938 279.207031 59.4375 286.414062 65.28125 C 288.816406 67.226562 292.3125 67.050781 294.503906 64.855469 L 308.46875 50.890625 L 324.109375 66.53125 L 310.144531 80.496094 C 307.953125 82.6875 307.765625 86.171875 309.71875 88.578125 C 315.960938 96.285156 321.484375 104.582031 326.136719 113.238281 C 327.59375 115.960938 330.882812 117.140625 333.742188 115.976562 L 352.003906 108.539062 L 360.351562 129.023438 L 342.078125 136.464844 C 339.210938 137.632812 337.6875 140.769531 338.546875 143.746094 C 341.039062 152.378906 342.796875 161.21875 343.765625 170.019531 C 344.109375 173.085938 346.695312 175.402344 349.777344 175.402344 L 362.902344 175.402344 L 362.902344 199.597656 L 349.777344 199.597656 C 346.695312 199.597656 344.105469 201.917969 343.765625 204.984375 C 342.71875 214.476562 340.796875 223.910156 338.050781 233.019531 C 337.148438 235.984375 338.636719 239.140625 341.492188 240.339844 Z M 341.492188 240.339844 " fill-opacity="1" fill-rule="nonzero"/>
  <path fill="url(#orangeGradient)" d="M 187.5 42.339844 C 107.460938 42.339844 42.339844 107.460938 42.339844 187.5 C 42.339844 267.539062 107.460938 332.660156 187.5 332.660156 C 267.539062 332.660156 332.660156 267.539062 332.660156 187.5 C 332.660156 107.460938 267.539062 42.339844 187.5 42.339844 Z M 229.839844 313.621094 L 229.839844 286.777344 L 247.867188 268.746094 C 251.46875 270.878906 255.605469 272.175781 260.082031 272.175781 C 273.421875 272.175781 284.273438 261.328125 284.273438 247.984375 C 284.273438 234.640625 273.421875 223.789062 260.082031 223.789062 C 246.738281 223.789062 235.886719 234.640625 235.886719 247.984375 C 235.886719 252.460938 237.1875 256.597656 239.316406 260.195312 L 219.515625 279.996094 C 218.378906 281.128906 217.742188 282.664062 217.742188 284.273438 L 217.742188 317.054688 C 213.773438 317.980469 209.738281 318.730469 205.644531 319.292969 L 205.644531 250.488281 L 247.867188 208.265625 C 251.46875 210.394531 255.605469 211.695312 260.082031 211.695312 C 273.421875 211.695312 284.273438 200.84375 284.273438 187.5 C 284.273438 174.15625 273.421875 163.304688 260.082031 163.304688 C 246.738281 163.304688 235.886719 174.15625 235.886719 187.5 C 235.886719 191.976562 237.1875 196.113281 239.316406 199.710938 L 223.789062 215.238281 L 223.789062 120.109375 C 234.199219 117.40625 241.933594 108.011719 241.933594 96.773438 C 241.933594 83.429688 231.085938 72.582031 217.742188 72.582031 C 204.398438 72.582031 193.546875 83.429688 193.546875 96.773438 C 193.546875 108.011719 201.285156 117.40625 211.695312 120.109375 L 211.695312 227.335938 L 195.320312 243.707031 C 194.183594 244.839844 193.546875 246.375 193.546875 247.984375 L 193.546875 320.414062 C 191.539062 320.503906 189.527344 320.566406 187.5 320.566406 C 114.128906 320.566406 54.433594 260.871094 54.433594 187.5 C 54.433594 128.925781 92.492188 79.113281 145.160156 61.378906 L 145.160156 88.222656 L 127.132812 106.253906 C 123.53125 104.121094 119.394531 102.824219 114.917969 102.824219 C 101.578125 102.824219 90.726562 113.671875 90.726562 127.015625 C 90.726562 140.359375 101.578125 151.210938 114.917969 151.210938 C 128.261719 151.210938 139.113281 140.359375 139.113281 127.015625 C 139.113281 122.539062 137.8125 118.402344 135.683594 114.804688 L 155.484375 95.003906 C 156.621094 93.871094 157.257812 92.328125 157.257812 90.726562 L 157.257812 57.945312 C 161.226562 57.019531 165.261719 56.269531 169.355469 55.707031 L 169.355469 124.511719 L 127.132812 166.734375 C 123.53125 164.605469 119.394531 163.304688 114.917969 163.304688 C 101.578125 163.304688 90.726562 174.15625 90.726562 187.5 C 90.726562 200.84375 101.578125 211.695312 114.917969 211.695312 C 128.261719 211.695312 139.113281 200.84375 139.113281 187.5 C 139.113281 183.023438 137.8125 178.886719 135.683594 175.289062 L 151.210938 159.761719 L 151.210938 254.890625 C 140.800781 257.59375 133.066406 266.980469 133.066406 278.226562 C 133.066406 291.570312 143.914062 302.417969 157.257812 302.417969 C 170.601562 302.417969 181.453125 291.570312 181.453125 278.226562 C 181.453125 266.980469 173.714844 257.59375 163.304688 254.890625 L 163.304688 147.664062 L 179.679688 131.292969 C 180.816406 130.160156 181.453125 128.617188 181.453125 127.015625 L 181.453125 54.585938 C 183.460938 54.496094 185.472656 54.433594 187.5 54.433594 C 260.871094 54.433594 320.566406 114.128906 320.566406 187.5 C 320.566406 246.074219 282.507812 295.886719 229.839844 313.621094 Z M 247.984375 247.984375 C 247.984375 241.3125 253.410156 235.886719 260.082031 235.886719 C 266.753906 235.886719 272.175781 241.3125 272.175781 247.984375 C 272.175781 254.65625 266.753906 260.082031 260.082031 260.082031 C 253.410156 260.082031 247.984375 254.65625 247.984375 247.984375 Z M 217.742188 108.871094 C 211.070312 108.871094 205.644531 103.445312 205.644531 96.773438 C 205.644531 90.101562 211.070312 84.675781 217.742188 84.675781 C 224.414062 84.675781 229.839844 90.101562 229.839844 96.773438 C 229.839844 103.445312 224.414062 108.871094 217.742188 108.871094 Z M 247.984375 187.5 C 247.984375 180.828125 253.410156 175.402344 260.082031 175.402344 C 266.753906 175.402344 272.175781 180.828125 272.175781 187.5 C 272.175781 194.171875 266.753906 199.597656 260.082031 199.597656 C 253.410156 199.597656 247.984375 194.171875 247.984375 187.5 Z M 127.015625 127.015625 C 127.015625 133.6875 121.589844 139.113281 114.917969 139.113281 C 108.246094 139.113281 102.824219 133.6875 102.824219 127.015625 C 102.824219 120.34375 108.246094 114.917969 114.917969 114.917969 C 121.589844 114.917969 127.015625 120.34375 127.015625 127.015625 Z M 157.257812 266.128906 C 163.929688 266.128906 169.355469 271.554688 169.355469 278.226562 C 169.355469 284.898438 163.929688 290.324219 157.257812 290.324219 C 150.585938 290.324219 145.160156 284.898438 145.160156 278.226562 C 145.160156 271.554688 150.585938 266.128906 157.257812 266.128906 Z M 127.015625 187.5 C 127.015625 194.171875 121.589844 199.597656 114.917969 199.597656 C 108.246094 199.597656 102.824219 194.171875 102.824219 187.5 C 102.824219 180.828125 108.246094 175.402344 114.917969 175.402344 C 121.589844 175.402344 127.015625 180.828125 127.015625 187.5 Z M 127.015625 187.5 " fill-opacity="1" fill-rule="nonzero"/>
  <g clip-path="url(#4847b32c32)">
    <g clip-path="url(#f629ea0012)">
      <path fill="#ff6400" d="M 42.375 165.976562 L 54.523438 165.976562 L 54.523438 179.3125 L 42.375 179.3125 Z M 42.375 165.976562 " fill-opacity="1" fill-rule="nonzero"/>
    </g>
  </g>
</svg>