<svg xmlns="http://www.w3.org/2000/svg" xmlns:xlink="http://www.w3.org/1999/xlink" width="500" zoomAndPan="magnify" viewBox="0 0 375 374.999991" height="500" preserveAspectRatio="xMidYMid meet" version="1.0"><defs><clipPath id="bbf814bae8"><path d="M 234.707031 16.277344 L 236.125 16.277344 L 236.125 17.5 L 234.707031 17.5 Z M 234.707031 16.277344 " clip-rule="nonzero"/></clipPath><clipPath id="01b72d6e69"><path d="M 236.101562 16.726562 C 235.5 17.699219 234.898438 17.550781 234.75 17.324219 C 234.675781 17.101562 234.75 16.5 234.976562 16.351562 C 235.125 16.199219 235.949219 16.425781 235.949219 16.425781 " clip-rule="nonzero"/></clipPath></defs><path fill="#ff6600" d="M 307.238281 115.097656 C 305.417969 115.101562 303.597656 115.191406 301.78125 115.371094 C 299.96875 115.554688 298.167969 115.820312 296.378906 116.179688 C 294.589844 116.535156 292.824219 116.980469 291.082031 117.511719 C 289.335938 118.042969 287.621094 118.65625 285.9375 119.355469 C 284.253906 120.054688 282.605469 120.832031 281 121.695312 C 279.390625 122.554688 277.828125 123.492188 276.3125 124.503906 C 274.796875 125.515625 273.335938 126.601562 271.925781 127.757812 C 270.515625 128.917969 269.167969 130.140625 267.878906 131.429688 C 266.585938 132.71875 265.363281 134.066406 264.207031 135.476562 C 263.050781 136.886719 261.964844 138.347656 260.953125 139.867188 C 259.9375 141.382812 259 142.941406 258.140625 144.550781 C 257.28125 146.160156 256.5 147.804688 255.804688 149.488281 C 255.105469 151.171875 254.488281 152.886719 253.960938 154.632812 C 253.429688 156.375 252.984375 158.144531 252.628906 159.929688 C 252.269531 161.71875 252 163.519531 251.820312 165.335938 C 251.640625 167.148438 251.550781 168.96875 251.546875 170.792969 C 251.546875 172.554688 251.652344 174.300781 251.8125 176.027344 L 213.101562 185.128906 C 212.40625 182.359375 211.445312 179.683594 210.222656 177.105469 C 209 174.523438 207.535156 172.085938 205.832031 169.792969 C 204.128906 167.503906 202.21875 165.398438 200.097656 163.484375 C 197.980469 161.570312 195.695312 159.878906 193.242188 158.414062 L 210.171875 114.914062 C 211.578125 115.023438 212.984375 115.128906 214.417969 115.128906 C 215.574219 115.128906 216.730469 115.09375 217.886719 115.023438 C 219.039062 114.949219 220.191406 114.84375 221.339844 114.699219 C 222.488281 114.554688 223.628906 114.375 224.765625 114.160156 C 225.902344 113.945312 227.03125 113.695312 228.152344 113.410156 C 229.273438 113.125 230.386719 112.804688 231.484375 112.449219 C 232.585938 112.097656 233.675781 111.707031 234.753906 111.285156 C 235.832031 110.863281 236.894531 110.40625 237.941406 109.917969 C 238.992188 109.429688 240.023438 108.910156 241.039062 108.359375 C 242.054688 107.804688 243.054688 107.21875 244.03125 106.605469 C 245.011719 105.992188 245.972656 105.34375 246.910156 104.671875 C 247.851562 103.996094 248.769531 103.292969 249.664062 102.558594 C 250.558594 101.828125 251.433594 101.070312 252.28125 100.28125 C 253.128906 99.496094 253.953125 98.683594 254.75 97.847656 C 255.546875 97.007812 256.320312 96.148438 257.0625 95.261719 C 257.808594 94.375 258.523438 93.46875 259.210938 92.539062 C 259.898438 91.605469 260.554688 90.65625 261.183594 89.683594 C 261.8125 88.714844 262.410156 87.722656 262.976562 86.714844 C 263.542969 85.707031 264.078125 84.679688 264.582031 83.640625 C 265.082031 82.597656 265.554688 81.539062 265.988281 80.46875 C 266.425781 79.398438 266.832031 78.316406 267.199219 77.21875 C 267.570312 76.121094 267.902344 75.015625 268.203125 73.898438 C 268.503906 72.78125 268.769531 71.65625 269 70.523438 C 269.230469 69.386719 269.425781 68.25 269.585938 67.101562 C 269.742188 65.957031 269.867188 64.808594 269.953125 63.652344 C 270.042969 62.5 270.09375 61.34375 270.109375 60.1875 C 270.125 59.03125 270.105469 57.875 270.046875 56.71875 C 269.992188 55.566406 269.898438 54.414062 269.769531 53.261719 C 269.644531 52.113281 269.480469 50.96875 269.28125 49.828125 C 269.078125 48.6875 268.84375 47.558594 268.574219 46.433594 C 268.304688 45.308594 268 44.191406 267.660156 43.085938 C 267.320312 41.980469 266.945312 40.886719 266.539062 39.804688 C 266.132812 38.722656 265.691406 37.652344 265.214844 36.597656 C 264.742188 35.542969 264.234375 34.503906 263.695312 33.480469 C 263.15625 32.457031 262.585938 31.449219 261.984375 30.460938 C 261.382812 29.472656 260.75 28.507812 260.085938 27.558594 C 259.425781 26.609375 258.734375 25.683594 258.015625 24.777344 C 257.292969 23.871094 256.546875 22.988281 255.773438 22.128906 C 254.996094 21.269531 254.195312 20.4375 253.371094 19.628906 C 252.542969 18.820312 251.691406 18.035156 250.816406 17.28125 C 249.941406 16.523438 249.042969 15.796875 248.121094 15.097656 C 247.199219 14.398438 246.257812 13.726562 245.296875 13.085938 C 244.332031 12.441406 243.351562 11.832031 242.347656 11.253906 C 241.347656 10.671875 240.332031 10.125 239.296875 9.605469 C 238.261719 9.089844 237.210938 8.605469 236.144531 8.15625 C 235.082031 7.703125 234.003906 7.285156 232.910156 6.902344 C 231.820312 6.519531 230.71875 6.167969 229.605469 5.851562 C 228.492188 5.539062 227.371094 5.257812 226.238281 5.011719 C 225.109375 4.765625 223.972656 4.554688 222.828125 4.382812 C 221.683594 4.207031 220.535156 4.070312 219.382812 3.964844 C 218.230469 3.863281 217.078125 3.796875 215.921875 3.765625 C 214.765625 3.734375 213.609375 3.738281 212.453125 3.777344 C 211.296875 3.820312 210.144531 3.894531 208.992188 4.007812 C 207.839844 4.121094 206.695312 4.269531 205.550781 4.453125 C 204.410156 4.640625 203.273438 4.859375 202.144531 5.113281 C 201.015625 5.367188 199.898438 5.660156 198.789062 5.984375 C 197.675781 6.308594 196.578125 6.667969 195.492188 7.058594 C 194.402344 7.453125 193.328125 7.878906 192.265625 8.339844 C 191.207031 8.800781 190.160156 9.292969 189.128906 9.820312 C 188.097656 10.34375 187.085938 10.902344 186.089844 11.488281 C 185.09375 12.078125 184.117188 12.695312 183.160156 13.347656 C 182.203125 13.996094 181.265625 14.675781 180.351562 15.382812 C 179.433594 16.089844 178.542969 16.824219 177.671875 17.589844 C 176.804688 18.351562 175.960938 19.140625 175.140625 19.957031 C 174.320312 20.773438 173.527344 21.613281 172.757812 22.480469 C 171.992188 23.34375 171.25 24.234375 170.539062 25.144531 C 169.824219 26.054688 169.140625 26.988281 168.488281 27.941406 C 167.835938 28.898438 167.210938 29.871094 166.617188 30.863281 C 166.023438 31.855469 165.460938 32.867188 164.929688 33.894531 C 164.398438 34.921875 163.902344 35.964844 163.4375 37.023438 C 162.972656 38.085938 162.539062 39.15625 162.140625 40.242188 C 161.742188 41.328125 161.378906 42.425781 161.046875 43.535156 C 160.714844 44.644531 160.421875 45.761719 160.160156 46.886719 C 159.898438 48.015625 159.675781 49.148438 159.484375 50.289062 C 159.292969 51.433594 159.140625 52.578125 159.023438 53.726562 C 158.902344 54.878906 158.820312 56.03125 158.773438 57.1875 C 158.726562 58.34375 158.714844 59.5 158.742188 60.65625 C 158.765625 61.8125 158.828125 62.96875 158.925781 64.121094 C 159.023438 65.273438 159.15625 66.421875 159.324219 67.566406 C 159.492188 68.710938 159.699219 69.847656 159.9375 70.980469 C 160.175781 72.113281 160.453125 73.234375 160.761719 74.351562 C 161.070312 75.464844 161.417969 76.570312 161.792969 77.660156 C 162.171875 78.753906 162.585938 79.835938 163.03125 80.902344 C 163.476562 81.96875 163.957031 83.023438 164.46875 84.058594 C 164.980469 85.097656 165.523438 86.117188 166.097656 87.121094 C 166.671875 88.125 167.277344 89.109375 167.914062 90.078125 C 168.550781 91.042969 169.214844 91.988281 169.910156 92.914062 C 170.605469 93.835938 171.332031 94.738281 172.082031 95.617188 C 172.832031 96.5 173.613281 97.351562 174.417969 98.183594 C 175.222656 99.015625 176.050781 99.820312 176.90625 100.601562 C 177.761719 101.378906 178.640625 102.128906 179.542969 102.855469 C 180.445312 103.578125 181.367188 104.277344 182.3125 104.941406 C 183.257812 105.609375 184.222656 106.246094 185.207031 106.851562 C 186.191406 107.460938 187.195312 108.035156 188.214844 108.578125 C 189.238281 109.125 190.273438 109.636719 191.328125 110.117188 C 192.378906 110.59375 193.445312 111.042969 194.527344 111.457031 C 195.605469 111.867188 196.699219 112.246094 197.804688 112.59375 L 181.820312 153.65625 C 180.257812 153.246094 178.679688 152.925781 177.082031 152.695312 C 175.484375 152.464844 173.878906 152.328125 172.265625 152.277344 C 170.65625 152.230469 169.042969 152.273438 167.4375 152.40625 C 165.828125 152.542969 164.230469 152.765625 162.648438 153.082031 C 161.066406 153.398438 159.507812 153.800781 157.972656 154.292969 C 156.433594 154.785156 154.929688 155.363281 153.460938 156.027344 C 151.988281 156.691406 150.558594 157.4375 149.171875 158.261719 C 147.785156 159.085938 146.453125 159.988281 145.167969 160.964844 L 109.382812 125.433594 C 110.238281 124.648438 111.070312 123.839844 111.875 123.003906 C 112.679688 122.167969 113.460938 121.308594 114.210938 120.425781 C 114.964844 119.539062 115.6875 118.632812 116.382812 117.703125 C 117.074219 116.773438 117.738281 115.820312 118.375 114.847656 C 119.007812 113.875 119.613281 112.882812 120.183594 111.875 C 120.753906 110.863281 121.296875 109.835938 121.800781 108.792969 C 122.308594 107.746094 122.78125 106.6875 123.222656 105.613281 C 123.664062 104.539062 124.070312 103.453125 124.441406 102.351562 C 124.8125 101.253906 125.148438 100.140625 125.449219 99.019531 C 125.753906 97.898438 126.019531 96.769531 126.25 95.632812 C 126.476562 94.496094 126.671875 93.351562 126.832031 92.199219 C 126.988281 91.050781 127.109375 89.898438 127.195312 88.738281 C 127.28125 87.582031 127.328125 86.421875 127.34375 85.261719 C 127.355469 84.101562 127.328125 82.941406 127.269531 81.78125 C 127.207031 80.621094 127.109375 79.464844 126.976562 78.3125 C 126.839844 77.160156 126.671875 76.011719 126.464844 74.867188 C 126.257812 73.726562 126.015625 72.589844 125.738281 71.464844 C 125.460938 70.335938 125.148438 69.21875 124.796875 68.113281 C 124.449219 67.003906 124.066406 65.910156 123.648438 64.828125 C 123.230469 63.742188 122.78125 62.675781 122.292969 61.621094 C 121.808594 60.566406 121.292969 59.527344 120.742188 58.503906 C 120.191406 57.480469 119.609375 56.476562 118.992188 55.492188 C 118.378906 54.507812 117.734375 53.542969 117.0625 52.597656 C 116.386719 51.652344 115.683594 50.730469 114.949219 49.832031 C 114.214844 48.929688 113.453125 48.054688 112.667969 47.203125 C 111.878906 46.351562 111.0625 45.523438 110.222656 44.722656 C 109.382812 43.921875 108.519531 43.148438 107.628906 42.402344 C 106.738281 41.65625 105.828125 40.9375 104.894531 40.25 C 103.957031 39.5625 103.003906 38.902344 102.027344 38.273438 C 101.050781 37.644531 100.054688 37.046875 99.042969 36.480469 C 98.027344 35.917969 96.996094 35.382812 95.949219 34.882812 C 94.902344 34.382812 93.839844 33.914062 92.761719 33.480469 C 91.6875 33.046875 90.597656 32.648438 89.496094 32.285156 C 88.394531 31.917969 87.28125 31.589844 86.15625 31.292969 C 85.035156 31 83.902344 30.742188 82.765625 30.515625 C 81.625 30.292969 80.480469 30.105469 79.328125 29.957031 C 78.175781 29.804688 77.023438 29.691406 75.863281 29.613281 C 74.707031 29.535156 73.546875 29.492188 72.386719 29.488281 C 71.222656 29.480469 70.066406 29.515625 68.90625 29.582031 C 67.746094 29.648438 66.589844 29.753906 65.4375 29.894531 C 64.285156 30.035156 63.140625 30.214844 62 30.429688 C 60.855469 30.640625 59.722656 30.890625 58.597656 31.175781 C 57.472656 31.460938 56.359375 31.78125 55.253906 32.136719 C 54.148438 32.492188 53.054688 32.882812 51.972656 33.304688 C 50.894531 33.730469 49.828125 34.1875 48.773438 34.679688 C 47.722656 35.171875 46.6875 35.695312 45.667969 36.25 C 44.652344 36.808594 43.652344 37.398438 42.667969 38.015625 C 41.6875 38.636719 40.726562 39.289062 39.785156 39.96875 C 38.84375 40.648438 37.925781 41.359375 37.03125 42.097656 C 36.136719 42.835938 35.265625 43.601562 34.417969 44.394531 C 33.570312 45.1875 32.75 46.007812 31.953125 46.851562 C 31.15625 47.699219 30.386719 48.566406 29.648438 49.460938 C 28.90625 50.355469 28.195312 51.273438 27.511719 52.210938 C 26.828125 53.148438 26.175781 54.109375 25.554688 55.089844 C 24.929688 56.070312 24.339844 57.066406 23.78125 58.085938 C 23.222656 59.101562 22.695312 60.136719 22.199219 61.1875 C 21.707031 62.238281 21.246094 63.300781 20.820312 64.382812 C 20.390625 65.460938 20 66.554688 19.640625 67.65625 C 19.28125 68.761719 18.960938 69.875 18.671875 71 C 18.382812 72.125 18.132812 73.257812 17.914062 74.398438 C 17.699219 75.539062 17.519531 76.6875 17.375 77.839844 C 17.230469 78.988281 17.125 80.144531 17.050781 81.304688 C 16.980469 82.460938 16.945312 83.621094 16.949219 84.785156 C 16.949219 85.945312 16.988281 87.105469 17.066406 88.261719 C 17.140625 89.421875 17.25 90.578125 17.398438 91.726562 C 17.546875 92.878906 17.730469 94.023438 17.953125 95.164062 C 18.171875 96.304688 18.429688 97.4375 18.722656 98.558594 C 19.011719 99.683594 19.339844 100.796875 19.703125 101.898438 C 20.0625 103.003906 20.460938 104.09375 20.890625 105.171875 C 21.324219 106.25 21.785156 107.3125 22.285156 108.363281 C 22.78125 109.410156 23.3125 110.441406 23.875 111.457031 C 24.4375 112.472656 25.035156 113.46875 25.660156 114.445312 C 26.285156 115.425781 26.941406 116.382812 27.628906 117.316406 C 28.316406 118.253906 29.03125 119.167969 29.773438 120.058594 C 30.519531 120.949219 31.289062 121.816406 32.089844 122.660156 C 32.886719 123.503906 33.710938 124.320312 34.5625 125.109375 C 35.410156 125.898438 36.285156 126.664062 37.183594 127.398438 C 38.082031 128.132812 39.003906 128.839844 39.945312 129.515625 C 40.890625 130.195312 41.851562 130.839844 42.835938 131.457031 C 43.820312 132.074219 44.824219 132.660156 45.84375 133.210938 C 46.863281 133.765625 47.902344 134.285156 48.953125 134.773438 C 50.007812 135.261719 51.074219 135.714844 52.15625 136.136719 C 53.238281 136.558594 54.335938 136.941406 55.441406 137.292969 C 56.546875 137.644531 57.664062 137.960938 58.789062 138.242188 C 59.917969 138.523438 61.050781 138.769531 62.191406 138.976562 C 63.335938 139.1875 64.480469 139.359375 65.632812 139.496094 C 66.789062 139.632812 67.945312 139.734375 69.101562 139.800781 C 70.261719 139.863281 71.421875 139.890625 72.582031 139.882812 C 73.742188 139.871094 74.902344 139.828125 76.0625 139.742188 C 77.21875 139.660156 78.375 139.542969 79.523438 139.386719 C 80.675781 139.234375 81.820312 139.042969 82.957031 138.8125 C 84.097656 138.585938 85.226562 138.324219 86.347656 138.023438 C 87.46875 137.726562 88.582031 137.390625 89.683594 137.023438 C 90.78125 136.65625 91.871094 136.25 92.945312 135.8125 C 94.023438 135.375 95.082031 134.90625 96.128906 134.402344 C 97.171875 133.898438 98.203125 133.359375 99.214844 132.789062 L 136.421875 169.734375 C 135.742188 170.640625 135.09375 171.574219 134.488281 172.53125 C 133.878906 173.488281 133.308594 174.46875 132.777344 175.472656 C 132.246094 176.472656 131.753906 177.496094 131.304688 178.539062 C 130.855469 179.578125 130.445312 180.636719 130.082031 181.710938 C 129.714844 182.785156 129.390625 183.871094 129.109375 184.972656 C 128.832031 186.070312 128.59375 187.179688 128.402344 188.300781 C 128.210938 189.417969 128.0625 190.542969 127.957031 191.671875 C 127.855469 192.800781 127.796875 193.933594 127.78125 195.070312 C 127.769531 196.203125 127.800781 197.335938 127.875 198.46875 C 127.949219 199.601562 128.070312 200.730469 128.238281 201.851562 C 128.402344 202.972656 128.609375 204.089844 128.863281 205.195312 C 129.117188 206.300781 129.414062 207.394531 129.753906 208.476562 C 130.09375 209.558594 130.476562 210.628906 130.902344 211.679688 C 131.328125 212.734375 131.792969 213.765625 132.296875 214.78125 C 132.804688 215.796875 133.351562 216.792969 133.9375 217.761719 C 134.523438 218.734375 135.144531 219.683594 135.804688 220.605469 L 127.785156 226.484375 L 81.644531 226.484375 C 80.167969 226.484375 78.707031 226.65625 77.269531 227.003906 C 75.832031 227.351562 74.457031 227.863281 73.140625 228.539062 C 71.828125 229.214844 70.609375 230.035156 69.492188 231.003906 C 68.371094 231.96875 67.382812 233.054688 66.523438 234.257812 L 53.527344 263.613281 L 56.621094 300.742188 L 72.089844 300.742188 L 72.089844 269.800781 L 78.28125 251.238281 L 78.28125 375 L 96.84375 375 L 102.414062 308.167969 C 102.414062 307.996094 102.472656 307.851562 102.59375 307.730469 C 102.714844 307.609375 102.859375 307.550781 103.03125 307.550781 C 103.203125 307.550781 103.347656 307.609375 103.46875 307.730469 C 103.589844 307.851562 103.652344 307.996094 103.652344 308.167969 L 109.21875 375 L 127.785156 375 L 127.785156 251.238281 L 150.09375 233.390625 C 150.894531 233.835938 151.707031 234.257812 152.535156 234.652344 C 153.363281 235.046875 154.199219 235.414062 155.050781 235.753906 C 155.902344 236.097656 156.761719 236.410156 157.632812 236.695312 C 158.503906 236.984375 159.382812 237.242188 160.269531 237.472656 C 161.15625 237.703125 162.050781 237.902344 162.949219 238.078125 C 163.851562 238.25 164.753906 238.394531 165.664062 238.511719 C 166.574219 238.628906 167.484375 238.714844 168.398438 238.773438 C 169.316406 238.832031 170.230469 238.859375 171.148438 238.859375 C 172.0625 238.859375 172.980469 238.832031 173.894531 238.773438 C 174.808594 238.714844 175.71875 238.625 176.628906 238.511719 C 177.539062 238.394531 178.441406 238.25 179.34375 238.074219 C 180.242188 237.902344 181.136719 237.699219 182.023438 237.46875 C 182.910156 237.238281 183.789062 236.976562 184.660156 236.691406 C 185.53125 236.40625 186.390625 236.089844 187.242188 235.75 C 188.089844 235.40625 188.929688 235.039062 189.757812 234.644531 C 190.585938 234.25 191.398438 233.828125 192.199219 233.382812 C 193 232.9375 193.785156 232.464844 194.554688 231.96875 C 195.324219 231.472656 196.078125 230.949219 196.816406 230.40625 C 197.554688 229.863281 198.273438 229.292969 198.972656 228.703125 C 199.675781 228.113281 200.355469 227.503906 201.019531 226.867188 C 201.679688 226.234375 202.324219 225.582031 202.941406 224.90625 C 203.5625 224.230469 204.164062 223.539062 204.738281 222.828125 C 205.316406 222.113281 205.867188 221.382812 206.398438 220.636719 C 206.929688 219.886719 207.433594 219.125 207.917969 218.34375 C 208.398438 217.566406 208.855469 216.769531 209.285156 215.960938 C 209.714844 215.152344 210.121094 214.332031 210.5 213.496094 C 210.878906 212.660156 211.230469 211.816406 211.554688 210.960938 C 211.878906 210.101562 212.175781 209.234375 212.445312 208.359375 C 212.714844 207.484375 212.957031 206.601562 213.171875 205.707031 C 213.386719 204.816406 213.570312 203.921875 213.726562 203.015625 C 213.882812 202.113281 214.011719 201.207031 214.109375 200.296875 C 214.207031 199.382812 214.277344 198.472656 214.320312 197.554688 L 254.351562 188.117188 C 254.878906 189.734375 255.480469 191.324219 256.15625 192.886719 C 256.832031 194.449219 257.578125 195.976562 258.390625 197.472656 C 259.207031 198.964844 260.089844 200.417969 261.039062 201.832031 C 261.984375 203.242188 262.996094 204.609375 264.070312 205.929688 C 265.144531 207.25 266.277344 208.519531 267.464844 209.734375 C 268.65625 210.953125 269.898438 212.113281 271.195312 213.214844 C 272.492188 214.316406 273.835938 215.359375 275.226562 216.335938 C 276.617188 217.316406 278.050781 218.230469 279.527344 219.078125 C 281.003906 219.925781 282.511719 220.703125 284.058594 221.414062 C 285.605469 222.125 287.183594 222.761719 288.789062 223.324219 C 290.394531 223.890625 292.019531 224.382812 293.671875 224.796875 C 295.320312 225.210938 296.988281 225.550781 298.667969 225.816406 C 300.347656 226.078125 302.039062 226.265625 303.738281 226.371094 C 305.433594 226.480469 307.132812 226.511719 308.835938 226.464844 C 310.535156 226.414062 312.230469 226.289062 313.921875 226.085938 C 315.609375 225.882812 317.289062 225.605469 318.953125 225.25 C 320.617188 224.890625 322.257812 224.460938 323.882812 223.953125 C 325.507812 223.445312 327.105469 222.863281 328.675781 222.210938 C 330.246094 221.558594 331.785156 220.832031 333.289062 220.039062 C 334.796875 219.242188 336.261719 218.382812 337.6875 217.453125 C 339.113281 216.523438 340.492188 215.53125 341.828125 214.476562 C 343.160156 213.417969 344.445312 212.304688 345.675781 211.132812 C 346.910156 209.957031 348.085938 208.730469 349.207031 207.449219 C 350.328125 206.167969 351.386719 204.839844 352.382812 203.460938 C 353.382812 202.082031 354.316406 200.664062 355.183594 199.199219 C 356.050781 197.734375 356.851562 196.234375 357.582031 194.699219 C 358.3125 193.160156 358.96875 191.59375 359.554688 189.996094 C 360.144531 188.398438 360.65625 186.777344 361.09375 185.136719 C 361.53125 183.492188 361.894531 181.828125 362.179688 180.152344 C 362.464844 178.476562 362.675781 176.789062 362.804688 175.089844 C 362.9375 173.394531 362.992188 171.695312 362.964844 169.996094 C 362.941406 168.292969 362.839844 166.597656 362.660156 164.902344 C 362.480469 163.210938 362.222656 161.53125 361.890625 159.863281 C 361.554688 158.195312 361.144531 156.542969 360.660156 154.914062 C 360.175781 153.28125 359.617188 151.675781 358.984375 150.097656 C 358.351562 148.515625 357.648438 146.96875 356.875 145.453125 C 356.101562 143.9375 355.257812 142.460938 354.347656 141.023438 C 353.441406 139.585938 352.464844 138.191406 351.429688 136.84375 C 350.390625 135.496094 349.296875 134.195312 348.140625 132.945312 C 346.984375 131.699219 345.769531 130.503906 344.503906 129.367188 C 343.238281 128.230469 341.925781 127.152344 340.5625 126.136719 C 339.195312 125.121094 337.789062 124.167969 336.335938 123.28125 C 334.886719 122.390625 333.394531 121.574219 331.867188 120.820312 C 330.34375 120.070312 328.785156 119.390625 327.195312 118.78125 C 325.605469 118.171875 323.992188 117.636719 322.355469 117.179688 C 320.714844 116.71875 319.058594 116.332031 317.386719 116.023438 C 315.714844 115.714844 314.027344 115.484375 312.335938 115.328125 C 310.640625 115.175781 308.941406 115.097656 307.238281 115.097656 Z M 189.664062 94.902344 L 189.664062 71.78125 C 189.664062 70.96875 189.746094 70.164062 189.902344 69.367188 C 190.0625 68.570312 190.296875 67.796875 190.609375 67.046875 C 190.917969 66.296875 191.300781 65.582031 191.75 64.90625 C 192.203125 64.230469 192.714844 63.605469 193.289062 63.03125 C 193.867188 62.457031 194.492188 61.941406 195.167969 61.492188 C 195.84375 61.039062 196.554688 60.660156 197.304688 60.347656 C 198.058594 60.035156 198.832031 59.800781 199.628906 59.644531 C 200.425781 59.484375 201.230469 59.40625 202.042969 59.40625 L 214.417969 59.40625 C 213.402344 59.40625 212.394531 59.308594 211.398438 59.109375 C 210.402344 58.910156 209.4375 58.617188 208.496094 58.226562 C 207.558594 57.839844 206.667969 57.363281 205.824219 56.796875 C 204.980469 56.234375 204.199219 55.59375 203.480469 54.875 C 202.761719 54.15625 202.121094 53.375 201.554688 52.53125 C 200.992188 51.6875 200.515625 50.792969 200.125 49.855469 C 199.738281 48.917969 199.445312 47.949219 199.246094 46.953125 C 199.046875 45.957031 198.949219 44.953125 198.949219 43.9375 C 198.949219 42.917969 199.046875 41.914062 199.246094 40.917969 C 199.445312 39.921875 199.738281 38.953125 200.125 38.015625 C 200.515625 37.078125 200.992188 36.183594 201.554688 35.339844 C 202.121094 34.496094 202.761719 33.714844 203.480469 32.996094 C 204.199219 32.277344 204.980469 31.636719 205.824219 31.074219 C 206.667969 30.507812 207.558594 30.03125 208.496094 29.644531 C 209.4375 29.253906 210.402344 28.960938 211.398438 28.761719 C 212.394531 28.5625 213.402344 28.464844 214.417969 28.464844 C 215.433594 28.464844 216.441406 28.5625 217.4375 28.761719 C 218.433594 28.960938 219.398438 29.253906 220.339844 29.644531 C 221.277344 30.03125 222.167969 30.507812 223.011719 31.074219 C 223.859375 31.636719 224.640625 32.277344 225.359375 32.996094 C 226.074219 33.714844 226.71875 34.496094 227.28125 35.339844 C 227.84375 36.183594 228.320312 37.078125 228.710938 38.015625 C 229.101562 38.953125 229.394531 39.921875 229.589844 40.917969 C 229.789062 41.914062 229.886719 42.917969 229.886719 43.9375 C 229.886719 44.953125 229.789062 45.957031 229.589844 46.953125 C 229.394531 47.949219 229.101562 48.917969 228.710938 49.855469 C 228.320312 50.792969 227.84375 51.6875 227.28125 52.53125 C 226.71875 53.375 226.074219 54.15625 225.359375 54.875 C 224.640625 55.59375 223.859375 56.234375 223.011719 56.796875 C 222.167969 57.363281 221.277344 57.839844 220.339844 58.226562 C 219.398438 58.617188 218.433594 58.910156 217.4375 59.109375 C 216.441406 59.308594 215.433594 59.40625 214.417969 59.40625 L 226.792969 59.40625 C 227.605469 59.40625 228.410156 59.484375 229.210938 59.644531 C 230.007812 59.800781 230.78125 60.035156 231.53125 60.347656 C 232.28125 60.660156 232.996094 61.039062 233.671875 61.492188 C 234.347656 61.941406 234.972656 62.457031 235.546875 63.03125 C 236.121094 63.605469 236.632812 64.230469 237.085938 64.90625 C 237.535156 65.582031 237.917969 66.296875 238.230469 67.046875 C 238.539062 67.796875 238.773438 68.570312 238.933594 69.367188 C 239.089844 70.164062 239.171875 70.96875 239.171875 71.78125 L 239.171875 94.902344 C 237.367188 96.167969 235.480469 97.285156 233.507812 98.261719 C 231.535156 99.238281 229.496094 100.058594 227.398438 100.722656 C 225.296875 101.382812 223.160156 101.882812 220.984375 102.21875 C 218.808594 102.554688 216.621094 102.722656 214.417969 102.722656 C 212.214844 102.722656 210.027344 102.554688 207.851562 102.21875 C 205.675781 101.882812 203.539062 101.382812 201.4375 100.722656 C 199.339844 100.058594 197.304688 99.238281 195.328125 98.261719 C 193.355469 97.285156 191.46875 96.167969 189.664062 94.902344 Z M 96.84375 119.652344 C 95.042969 120.917969 93.15625 122.039062 91.179688 123.015625 C 89.207031 123.992188 87.171875 124.808594 85.070312 125.472656 C 82.972656 126.136719 80.835938 126.636719 78.65625 126.972656 C 76.480469 127.308594 74.292969 127.476562 72.089844 127.476562 C 69.890625 127.476562 67.699219 127.308594 65.523438 126.972656 C 63.347656 126.636719 61.210938 126.136719 59.113281 125.472656 C 57.011719 124.808594 54.976562 123.992188 53.003906 123.015625 C 51.027344 122.039062 49.140625 120.917969 47.339844 119.652344 L 47.339844 96.535156 C 47.339844 95.722656 47.417969 94.917969 47.578125 94.121094 C 47.734375 93.324219 47.96875 92.550781 48.28125 91.796875 C 48.59375 91.046875 48.972656 90.335938 49.425781 89.660156 C 49.875 88.984375 50.390625 88.359375 50.964844 87.785156 C 51.539062 87.207031 52.164062 86.695312 52.839844 86.246094 C 53.515625 85.792969 54.226562 85.410156 54.980469 85.101562 C 55.730469 84.789062 56.503906 84.554688 57.300781 84.394531 C 58.097656 84.238281 58.902344 84.160156 59.714844 84.160156 L 72.089844 84.160156 C 71.074219 84.160156 70.070312 84.058594 69.074219 83.859375 C 68.078125 83.664062 67.109375 83.371094 66.171875 82.980469 C 65.234375 82.59375 64.339844 82.117188 63.496094 81.550781 C 62.652344 80.988281 61.871094 80.34375 61.152344 79.628906 C 60.433594 78.910156 59.792969 78.128906 59.226562 77.28125 C 58.664062 76.4375 58.1875 75.546875 57.800781 74.609375 C 57.410156 73.667969 57.117188 72.703125 56.917969 71.707031 C 56.71875 70.710938 56.621094 69.703125 56.621094 68.6875 C 56.621094 67.671875 56.71875 66.667969 56.917969 65.671875 C 57.117188 64.671875 57.410156 63.707031 57.800781 62.769531 C 58.1875 61.828125 58.664062 60.9375 59.226562 60.09375 C 59.792969 59.25 60.433594 58.46875 61.152344 57.75 C 61.871094 57.03125 62.652344 56.390625 63.496094 55.824219 C 64.339844 55.261719 65.234375 54.785156 66.171875 54.394531 C 67.109375 54.007812 68.078125 53.714844 69.074219 53.515625 C 70.070312 53.316406 71.074219 53.21875 72.089844 53.21875 C 73.105469 53.21875 74.113281 53.316406 75.109375 53.515625 C 76.105469 53.714844 77.074219 54.007812 78.011719 54.394531 C 78.949219 54.785156 79.84375 55.261719 80.6875 55.824219 C 81.53125 56.390625 82.3125 57.03125 83.03125 57.75 C 83.75 58.46875 84.390625 59.25 84.953125 60.09375 C 85.519531 60.9375 85.996094 61.828125 86.382812 62.769531 C 86.773438 63.707031 87.066406 64.671875 87.265625 65.671875 C 87.460938 66.667969 87.5625 67.671875 87.5625 68.6875 C 87.5625 69.703125 87.460938 70.710938 87.265625 71.707031 C 87.066406 72.703125 86.773438 73.667969 86.382812 74.609375 C 85.996094 75.546875 85.519531 76.4375 84.953125 77.28125 C 84.390625 78.128906 83.75 78.910156 83.03125 79.628906 C 82.3125 80.34375 81.53125 80.988281 80.6875 81.550781 C 79.84375 82.117188 78.949219 82.59375 78.011719 82.980469 C 77.074219 83.371094 76.105469 83.664062 75.109375 83.859375 C 74.113281 84.058594 73.105469 84.160156 72.089844 84.160156 L 84.46875 84.160156 C 85.28125 84.160156 86.085938 84.238281 86.882812 84.394531 C 87.679688 84.554688 88.453125 84.789062 89.203125 85.101562 C 89.953125 85.410156 90.667969 85.792969 91.34375 86.246094 C 92.019531 86.695312 92.644531 87.207031 93.21875 87.785156 C 93.792969 88.359375 94.308594 88.984375 94.757812 89.660156 C 95.210938 90.335938 95.589844 91.046875 95.902344 91.796875 C 96.214844 92.550781 96.449219 93.324219 96.605469 94.121094 C 96.765625 94.917969 96.84375 95.722656 96.84375 96.535156 Z M 171.101562 226.484375 C 167.367188 226.460938 163.757812 225.773438 160.273438 224.425781 L 168.222656 213.816406 C 168.894531 213.921875 169.566406 213.984375 170.242188 214.015625 C 170.921875 214.042969 171.597656 214.035156 172.273438 213.988281 C 172.949219 213.941406 173.617188 213.859375 174.285156 213.738281 C 174.953125 213.621094 175.609375 213.464844 176.261719 213.273438 C 176.910156 213.082031 177.546875 212.855469 178.171875 212.589844 C 178.796875 212.328125 179.402344 212.035156 179.996094 211.707031 C 180.589844 211.375 181.160156 211.015625 181.714844 210.625 C 182.265625 210.230469 182.792969 209.8125 183.300781 209.363281 C 183.808594 208.910156 184.289062 208.433594 184.742188 207.933594 C 185.195312 207.429688 185.621094 206.902344 186.015625 206.355469 C 186.410156 205.804688 186.777344 205.234375 187.109375 204.644531 C 187.445312 204.054688 187.742188 203.449219 188.011719 202.828125 C 188.277344 202.203125 188.507812 201.570312 188.707031 200.921875 C 188.902344 200.273438 189.0625 199.617188 189.1875 198.949219 C 189.3125 198.285156 189.402344 197.613281 189.453125 196.9375 C 189.503906 196.261719 189.515625 195.585938 189.492188 194.910156 C 189.46875 194.234375 189.410156 193.558594 189.3125 192.890625 C 189.214844 192.21875 189.082031 191.554688 188.910156 190.902344 C 188.742188 190.246094 188.535156 189.601562 188.292969 188.96875 C 188.054688 188.335938 187.777344 187.71875 187.46875 187.113281 C 187.160156 186.511719 186.820312 185.929688 186.445312 185.363281 C 186.074219 184.796875 185.667969 184.253906 185.238281 183.734375 C 184.804688 183.210938 184.34375 182.71875 183.855469 182.246094 C 183.367188 181.777344 182.855469 181.332031 182.320312 180.917969 C 181.785156 180.503906 181.226562 180.121094 180.648438 179.769531 C 180.070312 179.417969 179.476562 179.097656 178.863281 178.808594 C 178.25 178.523438 177.621094 178.269531 176.980469 178.050781 C 176.339844 177.832031 175.6875 177.648438 175.027344 177.503906 C 174.367188 177.355469 173.699219 177.246094 173.027344 177.171875 C 172.351562 177.097656 171.675781 177.0625 171 177.0625 C 170.324219 177.0625 169.648438 177.101562 168.972656 177.175781 C 168.300781 177.25 167.632812 177.363281 166.972656 177.511719 C 166.3125 177.660156 165.660156 177.84375 165.019531 178.0625 C 164.378906 178.285156 163.753906 178.539062 163.140625 178.828125 C 162.527344 179.117188 161.933594 179.4375 161.355469 179.789062 C 160.777344 180.144531 160.222656 180.53125 159.6875 180.945312 C 159.152344 181.359375 158.640625 181.804688 158.15625 182.273438 C 157.667969 182.746094 157.210938 183.242188 156.777344 183.765625 C 156.347656 184.285156 155.945312 184.832031 155.574219 185.398438 C 155.199219 185.964844 154.859375 186.546875 154.554688 187.152344 C 154.246094 187.753906 153.972656 188.375 153.730469 189.007812 C 153.492188 189.640625 153.289062 190.285156 153.121094 190.941406 C 152.949219 191.597656 152.820312 192.261719 152.722656 192.929688 C 152.625 193.601562 152.566406 194.273438 152.546875 194.953125 C 152.523438 195.628906 152.539062 196.304688 152.59375 196.980469 C 152.644531 197.65625 152.734375 198.324219 152.859375 198.992188 C 152.988281 199.65625 153.148438 200.3125 153.347656 200.960938 C 153.546875 201.609375 153.777344 202.242188 154.046875 202.863281 L 145.730469 213.1875 C 145.078125 212.246094 144.484375 211.277344 143.941406 210.269531 C 143.398438 209.265625 142.910156 208.234375 142.484375 207.175781 C 142.054688 206.113281 141.6875 205.035156 141.378906 203.933594 C 141.070312 202.835938 140.820312 201.722656 140.636719 200.59375 C 140.453125 199.46875 140.328125 198.332031 140.269531 197.191406 C 140.210938 196.050781 140.214844 194.910156 140.28125 193.769531 C 140.347656 192.628906 140.480469 191.496094 140.671875 190.371094 C 140.863281 189.242188 141.121094 188.132812 141.4375 187.035156 C 141.753906 185.9375 142.128906 184.859375 142.5625 183.804688 C 143 182.746094 143.492188 181.71875 144.042969 180.714844 C 144.59375 179.714844 145.195312 178.746094 145.851562 177.8125 C 146.511719 176.878906 147.21875 175.984375 147.972656 175.128906 C 148.730469 174.269531 149.53125 173.460938 150.378906 172.691406 C 151.226562 171.925781 152.113281 171.207031 153.039062 170.539062 C 153.964844 169.871094 154.925781 169.253906 155.917969 168.691406 C 156.914062 168.128906 157.9375 167.625 158.988281 167.175781 C 160.039062 166.726562 161.109375 166.335938 162.203125 166.007812 C 163.296875 165.675781 164.40625 165.410156 165.53125 165.203125 C 166.652344 164.996094 167.785156 164.851562 168.925781 164.769531 C 170.0625 164.6875 171.203125 164.667969 172.347656 164.714844 C 173.488281 164.761719 174.625 164.867188 175.753906 165.039062 C 176.882812 165.210938 178 165.441406 179.101562 165.738281 C 180.207031 166.03125 181.289062 166.386719 182.355469 166.804688 C 183.417969 167.21875 184.457031 167.691406 185.46875 168.222656 C 186.480469 168.753906 187.460938 169.335938 188.40625 169.976562 C 189.355469 170.613281 190.261719 171.304688 191.132812 172.042969 C 192.003906 172.785156 192.832031 173.570312 193.613281 174.402344 C 194.398438 175.234375 195.132812 176.105469 195.820312 177.019531 C 196.507812 177.933594 197.140625 178.878906 197.722656 179.863281 C 198.304688 180.847656 198.828125 181.859375 199.296875 182.902344 C 199.765625 183.941406 200.175781 185.007812 200.527344 186.09375 C 200.878906 187.183594 201.167969 188.285156 201.398438 189.40625 C 201.625 190.523438 201.792969 191.652344 201.894531 192.789062 C 202 193.929688 202.039062 195.066406 202.015625 196.210938 C 201.992188 197.351562 201.90625 198.488281 201.757812 199.621094 C 201.609375 200.753906 201.398438 201.875 201.125 202.984375 C 200.851562 204.09375 200.515625 205.183594 200.121094 206.257812 C 199.726562 207.328125 199.273438 208.375 198.765625 209.398438 C 198.253906 210.421875 197.6875 211.410156 197.066406 212.371094 C 196.445312 213.328125 195.773438 214.253906 195.050781 215.136719 C 194.328125 216.019531 193.558594 216.863281 192.742188 217.664062 C 191.925781 218.460938 191.070312 219.214844 190.167969 219.917969 C 189.269531 220.621094 188.335938 221.273438 187.363281 221.875 C 186.390625 222.476562 185.386719 223.019531 184.355469 223.507812 C 183.324219 224 182.265625 224.429688 181.1875 224.800781 C 180.105469 225.171875 179.007812 225.484375 177.894531 225.734375 C 176.777344 225.984375 175.652344 226.171875 174.519531 226.296875 C 173.382812 226.421875 172.242188 226.484375 171.101562 226.484375 Z M 331.992188 206.289062 C 330.191406 207.550781 328.304688 208.671875 326.328125 209.648438 C 324.355469 210.625 322.320312 211.445312 320.21875 212.105469 C 318.121094 212.769531 315.984375 213.269531 313.804688 213.605469 C 311.628906 213.941406 309.441406 214.109375 307.238281 214.109375 C 305.039062 214.109375 302.847656 213.941406 300.671875 213.605469 C 298.496094 213.269531 296.359375 212.769531 294.261719 212.105469 C 292.160156 211.445312 290.125 210.625 288.152344 209.648438 C 286.175781 208.671875 284.289062 207.550781 282.488281 206.289062 L 282.488281 183.167969 C 282.488281 182.355469 282.566406 181.550781 282.726562 180.753906 C 282.882812 179.957031 283.117188 179.183594 283.429688 178.433594 C 283.742188 177.679688 284.121094 176.96875 284.574219 176.292969 C 285.023438 175.617188 285.539062 174.992188 286.113281 174.417969 C 286.6875 173.84375 287.3125 173.328125 287.988281 172.878906 C 288.664062 172.425781 289.375 172.046875 290.128906 171.734375 C 290.878906 171.421875 291.652344 171.1875 292.449219 171.03125 C 293.246094 170.871094 294.050781 170.792969 294.863281 170.792969 L 307.238281 170.792969 C 306.222656 170.792969 305.21875 170.691406 304.222656 170.496094 C 303.226562 170.296875 302.257812 170.003906 301.320312 169.613281 C 300.382812 169.226562 299.488281 168.75 298.644531 168.183594 C 297.800781 167.621094 297.019531 166.980469 296.300781 166.261719 C 295.582031 165.542969 294.941406 164.761719 294.378906 163.917969 C 293.8125 163.070312 293.335938 162.179688 292.949219 161.242188 C 292.558594 160.304688 292.265625 159.335938 292.066406 158.339844 C 291.867188 157.34375 291.769531 156.335938 291.769531 155.320312 C 291.769531 154.304688 291.867188 153.300781 292.066406 152.304688 C 292.265625 151.308594 292.558594 150.339844 292.949219 149.402344 C 293.335938 148.464844 293.8125 147.570312 294.378906 146.726562 C 294.941406 145.882812 295.582031 145.101562 296.300781 144.382812 C 297.019531 143.664062 297.800781 143.023438 298.644531 142.457031 C 299.488281 141.894531 300.382812 141.417969 301.320312 141.027344 C 302.257812 140.640625 303.226562 140.347656 304.222656 140.148438 C 305.21875 139.949219 306.222656 139.851562 307.238281 139.851562 C 308.257812 139.851562 309.261719 139.949219 310.257812 140.148438 C 311.253906 140.347656 312.222656 140.640625 313.160156 141.027344 C 314.097656 141.417969 314.992188 141.894531 315.835938 142.457031 C 316.679688 143.023438 317.460938 143.664062 318.179688 144.382812 C 318.898438 145.101562 319.539062 145.882812 320.101562 146.726562 C 320.667969 147.570312 321.144531 148.464844 321.53125 149.402344 C 321.921875 150.339844 322.214844 151.308594 322.414062 152.304688 C 322.609375 153.300781 322.710938 154.304688 322.710938 155.320312 C 322.710938 156.335938 322.609375 157.34375 322.414062 158.339844 C 322.214844 159.335938 321.921875 160.304688 321.53125 161.242188 C 321.144531 162.179688 320.667969 163.070312 320.101562 163.917969 C 319.539062 164.761719 318.898438 165.542969 318.179688 166.261719 C 317.460938 166.980469 316.679688 167.621094 315.835938 168.183594 C 314.992188 168.75 314.097656 169.226562 313.160156 169.613281 C 312.222656 170.003906 311.253906 170.296875 310.257812 170.496094 C 309.261719 170.691406 308.257812 170.792969 307.238281 170.792969 L 319.617188 170.792969 C 320.429688 170.792969 321.234375 170.871094 322.03125 171.03125 C 322.828125 171.1875 323.601562 171.421875 324.351562 171.734375 C 325.101562 172.046875 325.816406 172.425781 326.492188 172.878906 C 327.167969 173.328125 327.792969 173.84375 328.367188 174.417969 C 328.941406 174.992188 329.457031 175.617188 329.90625 176.292969 C 330.359375 176.96875 330.738281 177.679688 331.050781 178.433594 C 331.363281 179.183594 331.597656 179.957031 331.753906 180.753906 C 331.914062 181.550781 331.992188 182.355469 331.992188 183.167969 Z M 331.992188 206.289062 " fill-opacity="1" fill-rule="nonzero"/><path fill="#ff6600" d="M 121.292969 207.921875 C 121.292969 208.527344 121.261719 209.136719 121.203125 209.742188 C 121.144531 210.34375 121.054688 210.945312 120.9375 211.542969 C 120.816406 212.140625 120.671875 212.726562 120.492188 213.308594 C 120.316406 213.890625 120.113281 214.464844 119.878906 215.023438 C 119.648438 215.585938 119.386719 216.136719 119.101562 216.671875 C 118.816406 217.207031 118.503906 217.730469 118.164062 218.234375 C 117.828125 218.738281 117.464844 219.226562 117.078125 219.699219 C 116.695312 220.167969 116.285156 220.617188 115.855469 221.046875 C 115.425781 221.476562 114.976562 221.886719 114.507812 222.269531 C 114.035156 222.65625 113.546875 223.019531 113.042969 223.355469 C 112.539062 223.695312 112.015625 224.007812 111.480469 224.292969 C 110.945312 224.578125 110.394531 224.839844 109.832031 225.070312 C 109.273438 225.304688 108.699219 225.507812 108.117188 225.6875 C 107.535156 225.863281 106.945312 226.011719 106.351562 226.128906 C 105.753906 226.246094 105.152344 226.335938 104.546875 226.394531 C 103.945312 226.457031 103.335938 226.484375 102.730469 226.484375 C 102.121094 226.484375 101.515625 226.457031 100.910156 226.394531 C 100.304688 226.335938 99.703125 226.246094 99.105469 226.128906 C 98.511719 226.011719 97.921875 225.863281 97.339844 225.6875 C 96.757812 225.507812 96.1875 225.304688 95.625 225.070312 C 95.0625 224.839844 94.515625 224.578125 93.976562 224.292969 C 93.441406 224.007812 92.921875 223.695312 92.414062 223.355469 C 91.910156 223.019531 91.421875 222.65625 90.953125 222.269531 C 90.480469 221.886719 90.03125 221.476562 89.601562 221.046875 C 89.171875 220.617188 88.765625 220.167969 88.378906 219.699219 C 87.992188 219.226562 87.632812 218.738281 87.292969 218.234375 C 86.957031 217.730469 86.644531 217.207031 86.355469 216.671875 C 86.070312 216.136719 85.808594 215.585938 85.578125 215.023438 C 85.34375 214.464844 85.140625 213.890625 84.964844 213.308594 C 84.789062 212.726562 84.640625 212.140625 84.519531 211.542969 C 84.402344 210.945312 84.3125 210.34375 84.253906 209.742188 C 84.195312 209.136719 84.164062 208.527344 84.164062 207.921875 C 84.164062 207.3125 84.195312 206.707031 84.253906 206.101562 C 84.3125 205.496094 84.402344 204.894531 84.519531 204.300781 C 84.640625 203.703125 84.789062 203.113281 84.964844 202.53125 C 85.140625 201.949219 85.34375 201.378906 85.578125 200.816406 C 85.808594 200.253906 86.070312 199.707031 86.355469 199.167969 C 86.644531 198.632812 86.957031 198.113281 87.292969 197.605469 C 87.632812 197.101562 87.992188 196.613281 88.378906 196.144531 C 88.765625 195.671875 89.171875 195.222656 89.601562 194.792969 C 90.03125 194.363281 90.480469 193.957031 90.953125 193.570312 C 91.421875 193.183594 91.910156 192.824219 92.414062 192.484375 C 92.921875 192.148438 93.441406 191.835938 93.976562 191.546875 C 94.515625 191.261719 95.0625 191.003906 95.625 190.769531 C 96.1875 190.535156 96.757812 190.332031 97.339844 190.15625 C 97.921875 189.980469 98.511719 189.832031 99.105469 189.714844 C 99.703125 189.59375 100.304688 189.503906 100.910156 189.445312 C 101.515625 189.386719 102.121094 189.355469 102.730469 189.355469 C 103.335938 189.355469 103.945312 189.386719 104.546875 189.445312 C 105.152344 189.503906 105.753906 189.59375 106.351562 189.714844 C 106.945312 189.832031 107.535156 189.980469 108.117188 190.15625 C 108.699219 190.332031 109.273438 190.535156 109.832031 190.769531 C 110.394531 191.003906 110.945312 191.261719 111.480469 191.546875 C 112.015625 191.835938 112.539062 192.148438 113.042969 192.484375 C 113.546875 192.824219 114.035156 193.183594 114.507812 193.570312 C 114.976562 193.957031 115.425781 194.363281 115.855469 194.792969 C 116.285156 195.222656 116.695312 195.671875 117.078125 196.144531 C 117.464844 196.613281 117.828125 197.101562 118.164062 197.605469 C 118.503906 198.113281 118.816406 198.632812 119.101562 199.167969 C 119.386719 199.707031 119.648438 200.253906 119.878906 200.816406 C 120.113281 201.378906 120.316406 201.949219 120.492188 202.53125 C 120.671875 203.113281 120.816406 203.703125 120.9375 204.300781 C 121.054688 204.894531 121.144531 205.496094 121.203125 206.101562 C 121.261719 206.707031 121.292969 207.3125 121.292969 207.921875 Z M 121.292969 207.921875 " fill-opacity="1" fill-rule="nonzero"/><g clip-path="url(#bbf814bae8)"><g clip-path="url(#01b72d6e69)"><path fill="#000000" d="M 231.75 13.351562 L 239.167969 13.351562 L 239.167969 20.625 L 231.75 20.625 Z M 231.75 13.351562 " fill-opacity="1" fill-rule="nonzero"/></g></g></svg>