<?xml version="1.0" standalone="no"?>
<!DOCTYPE svg PUBLIC "-//W3C//DTD SVG 20010904//EN"
 "http://www.w3.org/TR/2001/REC-SVG-20010904/DTD/svg10.dtd">
<svg version="1.0" xmlns="http://www.w3.org/2000/svg"
 width="128.000000pt" height="128.000000pt" viewBox="0 0 128.000000 128.000000"
 preserveAspectRatio="xMidYMid meet">
<defs>
        <linearGradient id="edgeGradient" x1="0%" y1="0%" x2="100%" y2="100%">
            <stop offset="0%" style="stop-color:rgb(255, 100, 0)" />
            <stop offset="100%" style="stop-color:rgb(255, 150, 0)" />
        </linearGradient>
    </defs>
<g transform="translate(0.000000,128.000000) scale(0.100000,-0.100000)"
fill="url(#edgeGradient)" stroke="none">
<path d="M583 1272 c-16 -2 -23 -11 -25 -35 -3 -27 -7 -32 -33 -35 -27 -3 -32
1 -43 33 -8 19 -20 35 -27 35 -8 0 -40 -11 -71 -25 -60 -26 -59 -26 -39 -91 5
-16 0 -25 -20 -38 -25 -17 -27 -16 -56 8 -17 15 -34 26 -38 26 -4 0 -28 -22
-55 -49 -48 -49 -48 -49 -31 -75 10 -14 21 -26 26 -26 14 0 11 -18 -7 -45 -15
-24 -17 -24 -51 -10 -20 8 -39 15 -43 15 -8 0 -60 -114 -60 -131 0 -5 17 -16
39 -25 36 -14 38 -17 32 -47 -6 -27 -12 -32 -39 -35 -29 -3 -32 -6 -33 -38 -1
-44 -1 -101 0 -113 1 -6 16 -11 33 -13 29 -3 33 -7 36 -35 3 -28 -1 -32 -32
-43 -42 -13 -43 -22 -15 -86 30 -72 36 -76 70 -59 38 20 42 19 63 -16 18 -31
18 -31 -8 -58 -14 -15 -26 -32 -26 -37 0 -16 84 -94 101 -94 9 0 26 11 39 25
22 24 24 24 51 8 27 -16 27 -17 13 -51 -8 -19 -14 -38 -14 -43 0 -8 78 -46
116 -55 19 -5 26 0 38 30 11 27 21 36 38 36 34 0 46 -11 50 -45 l3 -30 75 0
75 0 3 30 c4 33 16 45 49 45 16 0 24 -9 33 -35 14 -41 20 -42 95 -13 60 23 62
26 40 93 -4 15 1 24 24 38 29 17 30 17 59 -8 16 -14 34 -25 38 -25 12 0 94 82
94 94 0 5 -12 22 -26 38 -26 26 -26 28 -10 53 13 20 23 25 39 21 12 -3 32 -9
44 -12 20 -5 26 0 43 41 37 85 36 92 -4 109 -27 11 -36 21 -36 38 0 34 11 46
45 50 l30 3 0 75 0 75 -30 3 c-33 4 -45 16 -45 47 0 15 10 25 35 34 41 14 42
21 13 96 -23 61 -22 60 -93 40 -15 -5 -25 1 -37 23 -17 28 -17 30 7 52 14 13
25 30 25 39 0 18 -79 101 -95 101 -6 0 -22 -11 -35 -25 -28 -30 -34 -30 -64
-8 -22 17 -22 20 -9 51 8 19 13 38 11 44 -3 9 -111 58 -129 58 -4 0 -14 -17
-22 -39 -15 -37 -18 -38 -49 -32 -28 6 -33 11 -36 39 -2 18 -6 32 -10 33 -39
3 -111 4 -129 1z m99 -64 c3 -29 7 -32 58 -44 30 -7 58 -13 63 -14 4 0 15 16
24 35 19 39 21 40 58 23 27 -12 27 -12 9 -73 -4 -17 5 -28 46 -54 l51 -33 30
28 29 28 27 -27 27 -27 -28 -29 -29 -30 37 -55 c20 -31 39 -56 42 -56 2 0 20
7 40 15 34 14 35 14 45 -12 5 -14 12 -30 15 -35 3 -4 -10 -15 -28 -22 -18 -8
-36 -17 -39 -20 -3 -4 -1 -32 5 -64 11 -54 13 -57 44 -60 30 -3 32 -6 32 -42
0 -36 -2 -39 -32 -42 -30 -3 -32 -6 -44 -63 -6 -33 -10 -63 -8 -66 2 -4 17
-12 34 -19 27 -11 30 -17 25 -39 -10 -39 -20 -44 -60 -31 -20 7 -38 10 -39 8
-2 -1 -17 -25 -35 -51 l-33 -49 28 -29 28 -29 -27 -27 -27 -27 -29 28 -29 28
-56 -38 c-31 -20 -56 -38 -56 -39 0 -1 7 -19 15 -39 15 -36 15 -36 -11 -46
-15 -6 -31 -13 -36 -16 -4 -3 -15 10 -22 28 -8 18 -17 36 -20 39 -4 3 -32 1
-64 -5 -54 -11 -57 -13 -60 -44 -3 -30 -6 -32 -42 -32 -36 0 -39 2 -42 32 -3
29 -7 33 -43 40 -22 4 -50 10 -63 13 -19 5 -25 -1 -38 -30 -16 -39 -21 -41
-59 -23 -20 9 -25 17 -20 32 19 59 18 61 -35 95 l-51 33 -30 -28 -29 -28 -27
27 -27 27 28 29 29 30 -37 55 c-20 31 -40 56 -44 56 -4 -1 -18 -7 -32 -15 -34
-19 -35 -19 -48 10 -16 35 -15 55 2 55 8 0 23 8 34 18 20 16 20 20 8 72 -12
51 -15 55 -44 58 -30 3 -32 6 -32 42 0 36 2 39 32 42 29 3 32 7 44 58 7 30 13
58 14 63 0 4 -16 15 -35 24 -39 19 -40 21 -23 58 9 20 17 25 32 20 60 -19 62
-18 96 35 l33 51 -29 30 -28 29 27 27 27 27 30 -29 29 -28 56 37 c30 20 55 38
55 40 0 2 -7 19 -15 38 -14 34 -13 36 11 47 38 17 53 13 60 -14 10 -39 24 -44
84 -31 51 12 55 14 58 44 3 30 6 32 42 32 36 0 39 -2 42 -32z"/>
<path d="M523 1116 c-215 -52 -373 -256 -373 -479 0 -71 25 -170 58 -231 35
-66 133 -164 198 -198 142 -76 319 -77 466 -2 65 33 164 132 200 200 123 229
43 521 -178 654 -104 63 -251 85 -371 56z m57 -143 l0 -118 -72 -72 c-63 -63
-75 -71 -100 -66 -51 10 -108 -50 -92 -99 29 -92 160 -67 156 30 -1 30 4 44
23 62 l25 23 0 -157 0 -158 -30 -28 c-38 -36 -40 -81 -5 -115 51 -52 135 -11
135 66 0 12 -14 34 -30 49 l-30 28 0 179 0 179 30 29 30 29 0 128 0 128 44 0
c54 0 151 -29 208 -63 65 -38 145 -128 181 -204 30 -64 32 -74 32 -184 0 -113
-1 -117 -37 -190 -22 -45 -58 -96 -88 -126 -50 -50 -161 -118 -174 -106 -3 3
-6 23 -6 43 0 52 46 95 102 96 32 0 46 6 64 28 29 33 30 65 3 100 -16 20 -29
26 -60 26 -54 0 -81 -28 -78 -81 3 -33 -2 -44 -33 -76 -33 -34 -37 -44 -40
-98 -2 -48 -7 -60 -20 -63 -16 -3 -18 8 -18 115 l0 118 71 71 c66 67 74 72
105 67 85 -14 125 91 55 144 -48 37 -121 -7 -121 -74 -1 -34 -27 -83 -44 -83
-3 0 -6 72 -6 160 0 100 4 160 10 160 6 0 19 9 30 20 29 29 27 84 -5 115 -33
34 -70 32 -107 -5 -25 -26 -29 -36 -24 -63 3 -18 17 -41 31 -52 25 -21 25 -21
25 -199 l0 -178 -30 -35 c-30 -34 -30 -34 -30 -160 l0 -126 -69 5 c-126 9
-272 102 -338 216 -85 145 -82 333 7 472 37 58 117 133 172 161 58 29 68 26
68 -24 0 -59 -38 -97 -97 -97 -56 0 -87 -26 -87 -74 0 -48 31 -80 79 -80 51 0
78 30 77 86 -1 39 4 50 33 78 32 31 35 39 35 91 0 53 6 65 33 68 4 1 7 -52 7
-116z m194 -5 c19 -27 5 -58 -28 -58 -35 0 -52 25 -38 55 14 31 46 32 66 3z
m-343 -110 c15 -28 -22 -68 -48 -52 -35 22 -40 44 -15 64 26 21 47 17 63 -12z
m-1 -198 c24 -44 -38 -83 -70 -45 -10 12 -10 21 -2 40 14 31 56 34 72 5z m494
-2 c16 -26 -4 -53 -40 -53 -25 0 -30 4 -32 29 -6 46 47 63 72 24z m-10 -197
c21 -24 14 -57 -15 -66 -42 -14 -69 52 -31 74 24 14 26 14 46 -8z m-344 -106
c15 -18 10 -45 -12 -59 -33 -20 -69 20 -54 60 7 18 50 18 66 -1z"/>
</g>
</svg>
