<svg id="svg" version="1.1" xmlns="http://www.w3.org/2000/svg" xmlns:xlink="http://www.w3.org/1999/xlink" width="400" height="282.5174825174825" viewBox="0, 0, 400,282.5174825174825"><g id="svgg"><path id="path0" d="M139.505 4.512 C 146.643 4.629,148.851 4.747,148.905 5.018 C 148.943 5.212,148.832 5.371,148.658 5.371 C 148.452 5.371,148.433 5.495,148.605 5.724 C 149.608 7.068,150.089 7.051,110.601 7.062 L 93.852 7.067 93.799 49.117 C 93.771 72.244,93.700 90.498,93.643 89.682 L 93.539 88.198 90.884 88.198 L 88.229 88.198 88.143 86.855 L 88.057 85.512 85.045 85.512 C 81.640 85.512,81.641 85.513,81.551 83.980 C 81.496 83.034,81.580 82.838,82.086 82.739 C 82.416 82.674,81.382 82.604,79.788 82.583 L 76.890 82.544 76.857 81.343 C 76.839 80.682,76.836 80.054,76.851 79.947 C 76.866 79.841,76.659 79.758,76.390 79.765 C 70.022 79.913,67.804 79.588,68.749 78.643 C 69.169 78.224,69.541 78.205,69.541 78.603 C 69.541 78.768,69.397 78.814,69.221 78.705 C 69.031 78.588,68.952 78.659,69.027 78.883 C 69.236 79.510,69.742 79.494,69.909 78.855 C 70.029 78.397,70.206 78.298,70.652 78.439 C 71.166 78.602,71.233 78.512,71.209 77.687 C 71.182 76.806,71.167 76.792,70.954 77.456 C 70.794 77.956,70.720 78.013,70.700 77.651 C 70.684 77.370,70.544 77.218,70.389 77.314 C 70.233 77.411,70.104 77.323,70.102 77.119 C 70.098 76.824,70.048 76.827,69.854 77.133 C 69.685 77.400,69.553 77.421,69.418 77.203 C 69.312 77.031,69.081 76.890,68.905 76.890 C 68.729 76.890,68.819 77.062,69.105 77.271 C 69.466 77.535,69.526 77.714,69.301 77.853 C 69.119 77.966,68.973 77.891,68.971 77.685 C 68.968 77.416,68.892 77.430,68.693 77.739 C 68.471 78.081,68.418 78.041,68.414 77.527 C 68.410 76.965,68.266 76.890,67.185 76.890 L 65.960 76.890 65.701 75.548 C 65.452 74.256,65.404 74.204,64.452 74.187 C 63.908 74.177,62.095 74.145,60.424 74.116 L 57.385 74.064 57.385 72.829 C 57.385 71.266,57.234 71.234,50.035 71.268 C 43.518 71.299,43.419 71.323,43.305 72.873 L 43.218 74.064 40.376 74.064 L 37.534 74.064 37.702 73.145 C 37.968 71.693,37.630 71.452,35.153 71.322 C 32.288 71.173,31.417 70.997,31.940 70.674 C 32.272 70.469,32.269 70.356,31.925 69.932 C 31.570 69.494,31.572 69.463,31.943 69.682 C 32.301 69.893,32.310 69.861,32.002 69.481 C 31.704 69.113,31.704 69.006,32.002 68.899 C 32.203 68.827,27.368 68.746,21.258 68.718 L 10.149 68.667 10.213 69.898 C 10.304 71.651,10.073 71.891,8.444 71.735 L 7.067 71.602 7.067 72.818 L 7.067 74.033 5.724 74.119 L 4.382 74.205 4.296 75.533 L 4.211 76.861 2.883 76.946 L 1.555 77.032 1.475 83.392 C 1.397 89.570,1.483 91.056,1.913 90.990 C 2.027 90.972,2.597 90.973,3.180 90.991 L 4.240 91.025 4.240 95.124 L 4.240 99.223 5.643 99.223 L 7.047 99.223 7.128 101.979 L 7.208 104.735 8.536 104.821 L 9.864 104.906 9.950 106.234 L 10.035 107.562 11.378 107.648 L 12.721 107.734 12.721 109.132 L 12.721 110.530 13.993 110.530 C 15.252 110.530,15.265 110.540,15.265 111.496 C 15.265 113.103,15.479 113.357,16.835 113.357 L 18.061 113.357 18.147 114.700 L 18.233 116.042 19.561 116.128 L 20.889 116.214 20.975 117.541 L 21.060 118.869 22.388 118.955 L 23.716 119.040 23.801 120.368 L 23.887 121.696 26.643 121.777 L 29.399 121.858 29.399 123.114 C 29.399 124.487,29.818 124.784,31.557 124.644 C 32.003 124.608,32.964 124.598,33.694 124.622 L 35.020 124.664 35.107 125.866 L 35.194 127.067 50.515 127.140 L 65.835 127.213 65.921 128.554 L 66.007 129.894 67.350 129.980 C 68.293 130.041,68.693 130.188,68.693 130.475 C 68.693 130.700,68.852 130.887,69.046 130.892 C 69.242 130.897,69.179 131.029,68.905 131.189 C 68.182 131.610,68.300 132.269,69.156 132.594 C 69.566 132.750,69.969 132.811,70.051 132.729 C 70.133 132.647,70.026 132.580,69.814 132.580 C 69.514 132.580,69.503 132.504,69.766 132.241 C 70.028 131.979,70.204 132.026,70.550 132.453 C 70.795 132.756,70.904 132.813,70.792 132.580 C 70.627 132.235,70.660 132.222,70.969 132.509 C 71.260 132.779,73.991 132.862,82.601 132.862 L 93.852 132.862 93.852 202.827 L 93.852 272.792 95.118 272.792 C 96.478 272.792,96.960 273.438,96.554 274.717 C 96.282 275.574,96.972 275.632,107.356 275.630 C 113.018 275.629,117.063 275.739,117.314 275.902 C 117.664 276.127,117.668 276.176,117.338 276.179 C 117.118 276.182,117.030 276.276,117.143 276.389 C 117.255 276.502,116.927 276.746,116.412 276.933 C 115.562 277.241,115.541 277.274,116.184 277.297 C 116.833 277.321,117.924 277.804,117.597 277.923 C 117.519 277.951,115.230 278.058,112.509 278.160 C 109.788 278.262,118.247 278.336,131.307 278.325 L 155.053 278.304 155.076 277.456 C 155.128 275.580,155.096 275.618,156.608 275.618 L 158.021 275.618 158.021 274.205 L 158.021 272.792 162.274 272.792 C 165.512 272.792,166.516 272.707,166.481 272.438 C 166.455 272.244,166.450 271.608,166.468 271.025 L 166.502 269.965 169.170 269.965 L 171.838 269.965 172.029 268.693 L 172.220 267.420 175.403 267.420 C 180.107 267.420,180.353 267.342,180.353 265.846 L 180.353 264.625 181.696 264.538 L 183.039 264.452 183.112 249.117 L 183.185 233.781 184.596 233.781 L 186.007 233.781 186.007 235.023 C 186.007 236.395,186.256 236.608,187.868 236.608 C 188.821 236.608,188.834 236.624,188.834 237.853 L 188.834 239.099 190.247 239.293 L 191.661 239.488 191.661 242.147 L 191.661 244.806 193.074 244.806 L 194.488 244.806 194.488 246.219 L 194.488 247.633 205.654 247.633 L 216.820 247.633 216.820 249.046 L 216.820 250.459 218.233 250.459 L 219.647 250.459 219.647 251.873 L 219.647 253.286 221.060 253.286 L 222.473 253.286 222.473 256.113 L 222.473 258.940 223.877 258.940 L 225.280 258.940 225.361 261.696 C 225.450 264.738,225.247 264.441,227.318 264.566 C 227.642 264.585,227.837 264.971,227.969 265.851 C 228.154 267.083,228.182 267.111,229.414 267.296 L 230.671 267.485 230.676 269.785 C 230.681 272.459,230.802 272.731,231.943 272.640 C 233.559 272.512,233.781 272.703,233.781 274.224 L 233.781 275.618 265.866 275.618 L 297.951 275.618 297.951 274.205 L 297.951 272.792 299.364 272.792 L 300.777 272.792 300.777 271.389 L 300.777 269.986 303.392 269.905 L 306.007 269.823 306.094 268.622 L 306.181 267.420 308.108 267.420 C 309.168 267.420,310.433 267.341,310.919 267.244 L 311.802 267.067 311.802 204.233 L 311.802 141.400 313.074 141.299 C 313.773 141.243,314.399 141.326,314.465 141.482 C 314.530 141.639,314.594 140.399,314.607 138.728 L 314.629 135.689 316.113 135.689 L 317.597 135.689 317.500 134.292 L 317.403 132.895 318.772 132.808 L 320.141 132.721 320.228 131.378 L 320.314 130.035 321.659 130.035 L 323.004 130.035 323.073 128.699 C 323.111 127.964,323.294 127.267,323.479 127.149 C 323.735 126.986,323.731 126.933,323.463 126.930 C 323.232 126.927,323.110 126.473,323.110 125.618 L 323.110 124.310 324.523 124.446 L 325.936 124.581 325.936 123.225 L 325.936 121.868 327.279 121.782 L 328.622 121.696 328.703 118.940 L 328.784 116.184 330.015 116.184 C 331.376 116.184,331.590 115.931,331.590 114.327 L 331.590 113.364 341.131 113.290 L 350.671 113.216 350.813 111.802 C 350.924 110.686,351.058 110.394,351.449 110.412 C 351.721 110.425,353.025 110.457,354.346 110.483 L 356.749 110.530 356.749 111.943 L 356.749 113.357 358.163 113.357 L 359.576 113.357 359.609 114.417 C 359.628 115.000,359.625 115.624,359.603 115.804 C 359.543 116.296,380.690 116.322,381.296 115.831 C 381.661 115.536,381.694 115.548,381.493 115.901 C 381.349 116.154,381.356 116.230,381.509 116.090 C 381.758 115.863,381.817 115.209,381.879 112.014 L 381.908 110.530 383.150 110.530 C 384.523 110.530,384.735 110.281,384.735 108.669 L 384.735 107.703 386.502 107.672 C 387.473 107.655,388.569 107.666,388.936 107.696 C 389.328 107.729,389.531 107.633,389.426 107.464 C 389.329 107.306,389.364 107.106,389.504 107.019 C 389.644 106.932,389.842 106.422,389.943 105.884 C 390.118 104.950,390.185 104.903,391.459 104.821 L 392.792 104.735 392.872 101.979 L 392.953 99.223 394.357 99.223 L 395.760 99.223 395.760 89.470 L 395.760 79.717 394.362 79.717 L 392.964 79.717 392.878 78.375 L 392.792 77.032 391.464 76.946 L 390.136 76.861 390.050 75.533 L 389.965 74.205 388.622 74.119 L 387.279 74.033 387.279 72.786 L 387.279 71.539 385.842 71.348 L 384.404 71.158 384.588 70.180 C 384.710 69.527,384.672 69.263,384.474 69.386 C 384.293 69.498,384.242 69.397,384.344 69.131 C 384.489 68.754,384.135 68.693,381.797 68.693 L 379.081 68.693 379.081 67.279 L 379.081 65.866 377.668 65.866 L 376.254 65.866 376.254 64.452 L 376.254 63.039 373.428 63.039 L 370.601 63.039 370.601 61.625 L 370.601 60.212 369.187 60.212 L 367.774 60.212 367.774 58.799 C 367.774 58.021,367.678 57.400,367.562 57.419 C 367.445 57.437,366.809 57.437,366.148 57.419 L 364.947 57.385 364.947 56.022 L 364.947 54.658 359.508 54.588 C 353.304 54.507,353.862 54.654,353.801 53.084 C 353.774 52.379,353.612 51.858,353.414 51.837 C 353.227 51.818,351.357 51.786,349.258 51.767 L 345.442 51.731 345.437 50.671 C 345.433 49.552,345.137 48.842,344.709 48.923 C 344.568 48.950,343.410 48.956,342.136 48.938 L 339.819 48.905 339.733 47.562 L 339.647 46.219 338.304 46.133 L 336.961 46.047 336.961 44.826 C 336.961 43.396,336.618 43.251,333.245 43.251 C 331.323 43.251,331.299 43.241,331.469 42.565 C 331.953 40.636,332.334 40.707,321.536 40.707 L 311.802 40.707 311.769 27.633 C 311.750 20.442,311.654 14.177,311.555 13.710 L 311.374 12.862 308.776 12.781 L 306.179 12.700 306.093 11.368 L 306.007 10.035 303.392 9.954 L 300.777 9.873 300.735 9.035 C 300.712 8.575,300.680 8.039,300.664 7.845 C 300.627 7.377,299.996 7.111,298.869 7.087 C 297.931 7.067,297.798 6.736,297.874 4.599 C 297.883 4.325,291.597 4.249,268.519 4.243 L 239.152 4.235 239.152 35.050 L 239.152 65.866 237.739 65.866 L 236.325 65.866 236.325 67.279 L 236.325 68.693 234.504 68.693 C 233.503 68.693,232.606 68.818,232.511 68.972 C 232.408 69.138,232.536 69.176,232.826 69.064 C 233.204 68.919,233.272 68.987,233.127 69.365 C 233.008 69.673,233.050 69.784,233.239 69.668 C 233.433 69.548,233.506 69.810,233.448 70.408 C 233.377 71.130,233.219 71.344,232.734 71.379 C 232.391 71.403,232.176 71.318,232.256 71.189 C 232.336 71.060,232.146 70.954,231.835 70.954 C 231.525 70.954,231.205 70.848,231.125 70.718 C 231.044 70.589,231.349 70.483,231.802 70.483 C 232.255 70.483,232.561 70.587,232.482 70.715 C 232.403 70.843,232.526 70.876,232.755 70.788 C 233.120 70.647,233.118 70.564,232.739 70.121 C 232.348 69.664,232.226 69.655,231.488 70.023 C 230.585 70.473,230.443 70.884,231.104 71.138 C 231.490 71.286,231.490 71.338,231.107 71.624 C 230.755 71.886,230.665 72.903,230.604 77.314 L 230.530 82.686 229.753 82.650 C 229.325 82.631,226.883 82.599,224.326 82.580 L 219.678 82.544 219.591 81.201 L 219.505 79.859 218.163 79.772 L 216.820 79.686 216.784 78.147 C 216.751 76.689,216.655 75.166,216.568 74.700 C 216.546 74.583,216.395 74.678,216.232 74.912 C 215.999 75.244,215.974 75.198,216.114 74.700 C 216.219 74.326,216.168 74.064,215.991 74.064 C 215.825 74.064,215.689 74.184,215.689 74.332 C 215.689 74.494,215.356 74.483,214.841 74.304 C 214.072 74.036,213.993 73.892,213.993 72.764 L 213.993 71.519 212.580 71.519 L 211.166 71.519 211.166 68.849 L 211.166 66.178 209.714 66.093 L 208.261 66.007 208.316 63.110 L 208.371 60.212 206.942 60.212 L 205.512 60.212 205.512 57.385 L 205.512 54.558 204.099 54.558 L 202.686 54.558 202.686 51.731 L 202.686 48.905 201.272 48.905 L 199.859 48.905 199.859 46.949 C 199.859 45.650,199.740 44.946,199.505 44.852 C 199.223 44.737,199.223 44.704,199.505 44.687 C 199.700 44.674,199.859 44.396,199.859 44.069 C 199.859 43.661,199.728 43.523,199.444 43.632 C 199.215 43.720,198.954 43.670,198.862 43.521 C 198.770 43.373,198.384 43.251,198.005 43.251 C 197.274 43.251,197.246 43.107,197.187 39.011 C 197.173 38.033,197.157 38.020,195.830 37.935 C 194.442 37.846,194.248 37.558,194.476 35.931 C 194.555 35.369,193.943 35.062,192.731 35.057 L 191.681 35.053 191.600 32.297 L 191.519 29.541 190.187 29.455 L 188.854 29.369 188.773 26.628 L 188.693 23.887 187.350 23.801 L 186.007 23.715 186.003 21.257 C 185.998 18.582,185.828 18.054,184.998 18.131 C 183.355 18.283,183.180 18.157,183.180 16.820 L 183.180 15.548 181.589 15.548 L 179.999 15.548 180.135 14.134 L 180.270 12.721 175.901 12.721 L 171.532 12.721 171.655 11.307 L 171.778 9.894 166.313 9.894 L 160.848 9.894 160.815 8.693 C 160.796 8.032,160.796 7.396,160.815 7.279 C 160.833 7.163,158.869 7.067,156.450 7.067 C 153.590 7.067,152.113 6.968,152.226 6.784 C 152.322 6.629,152.287 6.502,152.149 6.502 C 152.010 6.502,151.896 6.317,151.896 6.090 C 151.896 5.864,152.002 5.744,152.132 5.824 C 152.402 5.991,152.445 5.337,152.206 4.714 C 152.067 4.352,150.546 4.299,141.111 4.327 L 130.177 4.359 139.505 4.512 M287.787 12.221 C 289.277 13.235,289.507 14.712,289.453 22.934 C 289.427 27.034,289.489 30.834,289.592 31.378 C 289.952 33.283,286.876 35.804,280.848 38.545 C 279.138 39.323,277.293 40.246,276.749 40.597 C 275.853 41.175,275.319 41.249,271.095 41.379 C 266.122 41.533,264.458 41.874,261.605 43.327 C 260.817 43.729,259.354 44.261,258.354 44.510 C 257.355 44.759,256.255 45.082,255.910 45.227 C 254.792 45.700,252.710 50.478,252.300 53.513 C 252.135 54.730,251.974 54.972,250.743 55.857 C 249.892 56.468,249.038 57.431,248.498 58.387 C 248.019 59.235,247.571 59.929,247.501 59.929 C 246.960 59.929,245.982 57.277,245.832 55.406 C 245.739 54.240,245.537 52.396,245.385 51.307 C 244.890 47.781,245.008 15.639,245.522 13.907 C 246.254 11.443,244.768 11.596,267.279 11.668 C 285.514 11.726,287.124 11.770,287.787 12.221 M146.078 13.732 C 146.980 13.875,148.410 15.092,148.410 15.717 C 148.410 15.891,149.310 17.101,150.411 18.405 C 151.511 19.710,152.791 21.604,153.254 22.615 C 153.717 23.625,154.583 24.961,155.178 25.583 C 155.948 26.388,156.360 27.147,156.608 28.219 C 156.950 29.692,157.265 30.162,160.261 33.658 C 160.869 34.368,161.697 35.762,162.101 36.757 C 162.505 37.751,163.141 38.888,163.513 39.283 C 163.885 39.677,164.586 40.824,165.070 41.831 C 165.554 42.838,166.312 44.047,166.754 44.517 C 167.593 45.409,169.548 49.128,170.496 51.638 C 170.800 52.442,171.679 53.954,172.450 54.998 C 173.221 56.043,173.852 57.020,173.852 57.171 C 173.852 57.725,175.244 60.191,176.640 62.111 C 177.429 63.197,178.342 64.707,178.668 65.467 C 178.994 66.227,179.642 67.359,180.108 67.983 C 183.942 73.115,184.278 73.773,183.836 75.284 C 183.539 76.300,183.657 76.284,180.025 75.774 C 178.290 75.531,173.519 75.458,163.630 75.525 L 149.682 75.618 147.628 76.681 C 146.498 77.265,144.590 78.011,143.388 78.340 C 142.185 78.668,140.629 79.225,139.929 79.577 C 139.230 79.929,137.894 80.373,136.961 80.565 C 134.916 80.985,133.353 81.740,131.982 82.970 C 131.421 83.474,130.085 84.346,129.014 84.909 C 127.830 85.531,126.125 86.828,124.664 88.217 C 123.343 89.474,121.689 90.965,120.989 91.531 C 120.290 92.096,119.008 93.200,118.142 93.983 C 113.537 98.144,111.787 99.059,109.042 98.741 C 107.043 98.509,104.413 97.211,102.681 95.602 L 101.253 94.276 101.139 54.700 L 101.025 15.124 101.685 14.417 L 102.344 13.710 115.695 13.569 C 130.017 13.417,144.582 13.495,146.078 13.732 M291.213 45.257 C 292.405 45.553,293.723 45.795,294.141 45.795 C 294.559 45.795,295.379 46.174,295.964 46.637 C 296.549 47.100,298.282 48.086,299.815 48.828 L 302.603 50.177 309.393 50.399 C 313.128 50.521,316.756 50.635,317.456 50.653 C 318.155 50.671,319.878 50.585,321.284 50.463 C 325.528 50.096,329.185 50.490,330.002 51.405 C 330.371 51.818,331.224 52.771,331.898 53.524 C 332.571 54.276,333.700 55.201,334.406 55.580 C 335.112 55.958,336.643 57.096,337.809 58.109 C 341.392 61.220,341.242 61.164,346.504 61.387 C 350.868 61.572,351.193 61.626,352.888 62.452 C 353.870 62.930,355.081 63.322,355.578 63.322 C 357.644 63.322,362.290 66.497,363.670 68.851 C 364.216 69.784,364.668 70.137,365.925 70.618 C 367.682 71.291,370.374 73.037,371.449 74.201 C 371.837 74.622,372.664 75.226,373.286 75.543 C 373.908 75.859,374.835 76.483,375.346 76.929 C 375.857 77.375,376.888 78.050,377.638 78.430 C 378.387 78.810,379.369 79.428,379.818 79.803 C 380.268 80.179,381.050 80.698,381.556 80.958 C 382.062 81.217,382.796 81.912,383.186 82.503 C 383.577 83.093,384.383 83.850,384.977 84.183 C 386.378 84.971,388.693 87.450,388.693 88.164 C 388.693 88.470,388.311 89.674,387.845 90.838 C 387.378 92.003,386.996 93.158,386.996 93.404 C 386.996 95.069,382.573 97.261,380.786 96.481 C 379.126 95.757,373.287 95.688,372.591 96.385 C 371.069 97.906,371.235 99.664,372.983 100.546 C 376.042 102.090,376.077 105.150,373.061 107.378 C 370.738 109.094,370.649 109.093,367.690 107.332 C 365.882 106.255,364.671 105.732,363.722 105.614 C 362.970 105.522,362.016 105.208,361.601 104.917 C 357.743 102.208,349.493 101.923,346.678 104.402 L 345.381 105.543 342.365 105.668 L 339.349 105.792 335.964 104.119 C 334.103 103.199,332.322 102.281,332.007 102.078 C 331.509 101.758,331.253 101.820,330.029 102.554 C 329.255 103.018,327.986 103.559,327.208 103.756 C 325.376 104.220,324.929 104.634,324.358 106.394 C 323.632 108.632,321.186 113.069,319.871 114.532 C 318.994 115.508,318.596 116.262,318.331 117.443 C 318.003 118.909,317.832 119.150,316.199 120.433 C 314.607 121.684,314.375 121.999,313.962 123.472 C 313.639 124.625,313.197 125.408,312.485 126.092 C 311.926 126.628,311.111 127.767,310.674 128.622 C 310.237 129.477,309.533 130.495,309.109 130.883 C 308.685 131.272,307.984 132.370,307.553 133.324 C 307.121 134.277,306.620 135.148,306.441 135.259 C 306.262 135.370,305.673 136.368,305.134 137.476 C 304.594 138.585,303.857 139.813,303.496 140.205 C 303.135 140.598,302.540 141.555,302.173 142.332 C 301.807 143.110,301.043 144.254,300.475 144.876 C 299.908 145.498,299.281 146.325,299.082 146.714 C 298.726 147.406,297.889 148.448,295.475 151.199 C 294.774 151.999,294.037 153.256,293.707 154.213 C 292.755 156.981,291.790 158.282,287.369 162.754 C 281.331 168.862,280.994 169.264,280.637 170.812 L 280.327 172.155 282.119 173.781 C 284.048 175.531,284.722 175.769,287.859 175.809 C 292.226 175.865,295.119 179.893,295.263 186.118 L 295.329 188.975 294.076 191.025 C 293.386 192.152,292.728 193.074,292.614 193.074 C 292.499 193.074,292.007 193.639,291.520 194.330 C 291.034 195.021,290.214 195.801,289.699 196.064 C 289.184 196.327,287.563 197.436,286.096 198.530 C 284.630 199.623,282.912 200.722,282.280 200.971 C 280.351 201.730,279.952 202.054,279.338 203.361 C 279.012 204.053,278.611 204.703,278.447 204.805 C 278.282 204.907,277.625 206.030,276.987 207.301 C 276.349 208.571,275.589 209.915,275.299 210.285 C 274.472 211.340,274.600 213.311,275.618 215.220 C 276.724 217.292,276.776 219.191,275.769 220.713 C 275.386 221.292,274.718 222.460,274.285 223.307 C 272.880 226.057,273.119 225.993,263.796 226.098 C 254.368 226.203,254.536 226.234,251.214 223.757 C 247.919 221.301,248.355 221.438,243.293 221.262 C 238.877 221.108,238.793 221.093,237.498 220.236 C 236.775 219.757,235.357 218.971,234.346 218.488 C 233.336 218.005,232.104 217.306,231.609 216.933 C 231.114 216.560,230.414 216.254,230.054 216.253 C 228.412 216.249,227.323 215.676,226.329 214.293 C 225.343 212.920,225.318 212.907,222.562 212.278 C 221.036 211.930,219.470 211.427,219.081 211.160 C 218.693 210.893,217.850 210.409,217.208 210.085 C 216.544 209.748,215.571 208.863,214.947 208.026 C 214.345 207.218,213.701 206.353,213.516 206.105 C 212.968 205.369,215.156 202.127,216.951 201.014 C 217.734 200.529,218.703 199.871,219.105 199.552 C 220.292 198.607,224.872 198.434,225.952 199.293 C 227.530 200.549,226.985 201.879,224.660 202.442 C 222.524 202.960,222.171 203.183,221.326 204.550 C 220.590 205.740,220.717 206.104,222.556 208.097 C 224.352 210.044,224.982 210.284,225.991 209.410 C 226.846 208.668,227.648 205.798,227.507 203.983 C 227.399 202.606,227.849 202.411,228.410 203.592 C 228.836 204.491,229.089 204.701,230.389 205.240 C 230.777 205.402,231.604 205.845,232.226 206.225 C 233.298 206.880,233.588 206.917,237.793 206.921 C 243.086 206.927,243.491 206.741,243.799 204.172 L 243.976 202.691 242.448 201.713 C 240.717 200.606,240.565 200.344,240.565 198.466 C 240.565 196.397,241.081 196.081,244.815 195.866 C 247.302 195.722,248.104 195.562,249.096 195.011 L 250.318 194.333 251.873 194.954 C 252.863 195.350,253.753 195.969,254.324 196.657 C 255.326 197.865,255.427 197.965,257.311 199.606 C 259.373 201.401,261.259 201.113,262.705 198.782 C 263.254 197.897,264.222 196.670,264.855 196.056 C 266.677 194.288,266.358 191.317,264.202 189.985 C 263.640 189.637,263.180 189.247,263.180 189.117 C 263.180 188.619,261.244 187.737,258.844 187.143 C 257.470 186.802,255.689 186.218,254.887 185.844 C 253.886 185.378,252.920 185.164,251.813 185.162 L 250.199 185.159 246.513 181.506 C 244.486 179.497,242.827 177.728,242.827 177.574 C 242.827 177.421,242.286 176.948,241.625 176.524 C 240.965 176.099,239.852 174.998,239.152 174.076 C 236.803 170.981,236.261 170.754,234.205 172.004 C 230.692 174.139,231.348 173.993,225.300 173.993 C 220.824 173.993,219.499 173.900,218.253 173.498 C 217.408 173.226,216.084 173.004,215.309 173.004 C 214.236 173.004,213.593 172.807,212.604 172.176 C 211.449 171.439,210.967 171.326,208.198 171.148 C 204.655 170.919,204.211 170.792,202.261 169.454 C 201.484 168.920,199.914 168.225,198.773 167.909 C 196.556 167.294,194.478 166.337,192.650 165.088 C 192.028 164.663,190.629 163.867,189.540 163.320 C 188.452 162.773,187.223 161.987,186.810 161.574 C 184.967 159.731,176.455 158.353,173.454 159.411 C 172.536 159.735,171.367 160.000,170.858 160.000 C 168.963 160.000,167.011 161.760,165.014 165.270 C 164.584 166.025,163.789 167.194,163.247 167.866 L 162.261 169.090 162.261 173.460 L 162.261 177.831 165.159 180.819 C 166.950 182.667,168.542 184.040,169.329 184.414 C 170.028 184.748,171.066 185.309,171.634 185.662 C 172.202 186.014,173.475 186.564,174.461 186.883 C 175.447 187.202,177.086 187.960,178.103 188.569 C 180.096 189.761,182.664 190.580,185.970 191.075 C 188.401 191.440,191.072 192.783,193.133 194.678 C 193.865 195.351,194.579 195.901,194.720 195.901 C 195.353 195.901,200.160 201.148,201.582 203.390 C 202.020 204.080,202.654 204.807,202.992 205.007 C 203.719 205.438,205.005 208.142,204.771 208.751 C 204.268 210.062,202.872 210.393,198.391 210.266 L 194.132 210.145 193.250 209.138 C 192.765 208.584,192.049 207.589,191.661 206.929 C 188.709 201.910,187.753 201.348,181.955 201.225 L 177.478 201.131 176.806 201.912 C 175.969 202.885,176.128 203.323,177.643 204.210 C 178.475 204.698,179.001 205.281,179.375 206.130 C 181.047 209.922,185.597 214.526,188.834 215.701 C 190.155 216.181,191.820 216.947,192.534 217.403 C 193.247 217.860,193.983 218.233,194.169 218.233 C 194.355 218.233,195.045 218.759,195.702 219.401 C 196.462 220.143,197.512 220.787,198.586 221.168 C 200.125 221.714,200.382 221.929,201.471 223.594 C 202.379 224.983,202.992 225.585,204.019 226.101 C 205.749 226.969,206.319 227.481,206.777 228.578 C 206.996 229.101,207.422 229.533,207.817 229.632 C 209.496 230.054,212.580 234.406,212.580 236.356 C 212.580 239.163,207.271 241.232,203.534 239.882 C 201.803 239.257,202.536 236.617,204.575 236.135 C 207.724 235.390,207.520 231.137,204.323 230.898 C 202.908 230.792,202.750 230.851,201.409 231.979 L 199.991 233.171 198.554 231.851 C 194.563 228.183,192.727 226.914,190.437 226.239 C 188.613 225.701,188.472 225.583,187.387 223.687 C 186.900 222.836,186.104 221.898,185.618 221.604 C 185.132 221.309,183.972 220.487,183.039 219.777 C 180.344 217.725,178.648 216.633,176.726 215.713 C 175.180 214.972,172.719 213.095,171.307 211.581 C 168.867 208.962,166.724 206.926,166.409 206.926 C 166.196 206.926,165.462 206.543,164.778 206.075 C 164.093 205.608,162.311 204.840,160.818 204.370 C 159.030 203.807,157.871 203.267,157.426 202.791 C 157.054 202.392,156.232 201.762,155.600 201.390 C 152.775 199.728,150.876 195.665,150.992 191.526 C 151.101 187.617,149.974 186.256,145.480 184.868 C 144.265 184.492,143.167 183.902,142.321 183.171 C 141.609 182.554,140.922 182.049,140.796 182.049 C 140.367 182.049,137.534 178.930,137.003 177.873 C 136.713 177.294,136.109 176.434,135.662 175.963 C 134.444 174.678,134.114 172.564,134.846 170.731 C 135.154 169.960,135.643 168.724,135.932 167.986 C 136.221 167.247,136.621 165.280,136.820 163.613 L 137.184 160.584 136.473 159.653 C 136.083 159.141,134.538 157.466,133.041 155.932 C 131.543 154.397,130.318 153.041,130.318 152.919 C 130.318 152.796,129.431 152.050,128.346 151.261 C 127.076 150.337,126.169 149.426,125.799 148.701 C 125.484 148.082,124.665 146.945,123.980 146.174 C 123.296 145.403,122.659 144.530,122.565 144.235 C 122.471 143.939,121.320 142.782,120.007 141.664 C 117.574 139.593,117.037 138.713,117.033 136.788 C 117.033 136.382,116.633 135.555,116.146 134.951 C 114.419 132.807,112.924 128.564,113.038 126.129 C 113.114 124.519,112.038 122.332,110.715 121.405 C 109.576 120.607,99.384 120.823,97.890 121.677 C 95.546 123.018,93.794 123.149,91.973 122.122 C 90.641 121.370,90.004 121.206,87.877 121.068 L 85.358 120.905 84.188 121.845 C 80.656 124.684,77.545 124.767,73.640 122.126 C 73.018 121.706,71.809 121.024,70.954 120.612 C 70.099 120.199,68.772 119.360,68.004 118.747 C 65.474 116.725,59.747 116.117,55.905 117.462 C 54.787 117.853,53.620 117.914,48.827 117.834 L 43.088 117.739 40.588 116.510 C 39.008 115.735,37.438 115.190,36.322 115.032 C 32.922 114.551,28.082 111.180,25.477 107.480 C 24.765 106.469,22.527 104.714,20.856 103.857 C 19.180 102.997,17.133 100.354,16.567 98.321 C 16.176 96.913,15.845 96.372,14.827 95.476 C 13.441 94.256,13.295 93.642,13.992 91.973 C 14.383 91.038,14.371 90.861,13.836 89.653 C 13.425 88.723,13.281 87.880,13.338 86.739 C 13.417 85.144,13.408 85.126,12.080 83.956 C 10.435 82.508,10.433 82.594,12.160 80.781 C 12.939 79.963,13.947 78.894,14.398 78.406 C 15.815 76.874,18.680 76.837,23.603 78.289 C 24.690 78.609,26.217 79.190,26.995 79.579 C 27.773 79.968,29.517 80.657,30.871 81.110 C 32.225 81.564,33.878 82.309,34.546 82.767 C 35.213 83.224,36.396 83.940,37.173 84.356 C 40.065 85.906,42.003 87.128,42.828 87.922 C 45.807 90.790,47.774 89.818,47.774 85.479 C 47.774 81.549,48.048 81.003,50.208 80.631 C 52.010 80.321,54.299 81.000,56.113 82.384 C 57.403 83.368,59.851 84.405,61.449 84.644 C 62.375 84.783,63.258 85.195,64.262 85.956 C 65.066 86.566,65.873 87.065,66.054 87.066 C 66.236 87.067,67.203 87.501,68.203 88.032 C 69.203 88.563,70.941 89.271,72.064 89.605 C 73.230 89.952,74.653 90.630,75.379 91.185 C 76.079 91.719,76.819 92.155,77.025 92.155 C 77.231 92.155,78.080 92.614,78.912 93.174 C 80.952 94.549,82.136 95.117,83.816 95.526 C 84.594 95.716,85.484 96.109,85.796 96.400 C 86.107 96.690,87.121 97.276,88.048 97.700 C 88.976 98.125,90.274 98.884,90.933 99.387 C 91.592 99.890,92.553 100.441,93.070 100.611 C 93.587 100.782,94.530 101.474,95.166 102.151 C 96.254 103.306,96.433 103.389,98.173 103.528 C 99.540 103.638,100.425 103.907,101.565 104.559 C 104.934 106.487,111.186 107.192,114.574 106.026 C 117.004 105.190,121.282 102.892,122.544 101.744 C 123.166 101.179,123.960 100.567,124.307 100.385 C 124.655 100.203,125.367 99.390,125.889 98.579 C 126.411 97.767,127.439 96.594,128.174 95.972 C 128.909 95.350,130.105 94.245,130.833 93.517 C 132.963 91.385,135.069 89.963,136.645 89.592 C 138.242 89.216,140.065 88.382,140.371 87.886 C 140.480 87.710,141.538 87.133,142.723 86.603 C 143.907 86.073,145.339 85.388,145.904 85.081 C 146.737 84.629,147.480 84.523,149.817 84.523 C 151.638 84.523,153.762 84.305,155.574 83.933 C 159.345 83.157,173.932 83.245,176.078 84.056 C 176.758 84.313,177.975 84.523,178.783 84.523 C 181.107 84.523,183.003 85.240,185.235 86.965 C 188.039 89.131,190.325 89.884,194.124 89.893 C 194.313 89.894,194.916 90.288,195.464 90.769 C 197.552 92.602,205.843 93.161,211.356 91.840 C 215.701 90.800,220.662 91.429,224.629 93.524 C 226.208 94.359,231.783 95.502,234.912 95.633 C 237.180 95.728,237.925 95.890,239.702 96.671 C 244.960 98.981,251.151 96.948,253.102 92.271 C 255.492 86.545,254.439 85.088,247.913 85.088 C 244.699 85.088,244.261 84.939,243.404 83.553 L 242.801 82.577 243.491 81.216 L 244.180 79.854 243.516 78.584 C 242.628 76.885,242.631 76.864,244.165 74.131 C 245.786 71.244,246.456 70.723,248.937 70.424 C 250.603 70.224,250.926 70.084,251.566 69.289 C 255.391 64.539,258.009 62.473,260.201 62.473 C 261.651 62.473,261.889 62.380,262.951 61.390 L 264.112 60.306 263.364 59.204 C 262.295 57.631,262.390 56.938,263.864 55.573 C 264.890 54.624,265.148 54.176,265.310 53.072 C 265.638 50.828,266.514 50.318,270.040 50.318 L 272.899 50.318 274.205 51.732 L 275.512 53.146 276.979 52.710 C 278.208 52.345,278.534 52.100,278.997 51.193 C 279.532 50.144,281.371 48.417,283.110 47.332 C 283.576 47.040,284.484 46.247,285.128 45.570 C 286.462 44.167,286.757 44.152,291.213 45.257 M230.885 68.856 C 230.599 69.142,230.982 69.823,231.429 69.823 C 231.664 69.823,231.804 69.619,231.752 69.352 C 231.654 68.846,231.171 68.570,230.885 68.856 M318.397 92.439 C 317.437 92.880,316.506 93.513,316.327 93.847 C 316.149 94.181,315.425 94.702,314.718 95.005 C 312.827 95.815,311.832 96.611,310.927 98.038 L 310.119 99.312 310.864 100.681 L 311.609 102.049 313.190 102.047 C 315.422 102.044,317.573 100.364,318.522 97.882 C 319.191 96.131,319.363 95.984,321.745 95.139 C 324.503 94.159,324.050 92.731,320.682 91.789 C 320.385 91.706,319.356 91.998,318.397 92.439 M325.328 125.112 C 325.304 125.254,325.255 125.498,325.219 125.654 C 325.183 125.809,325.139 126.103,325.121 126.306 C 325.103 126.510,324.961 126.598,324.806 126.502 C 324.650 126.406,324.521 126.494,324.519 126.697 C 324.515 126.966,324.439 126.951,324.240 126.643 C 324.049 126.347,323.965 126.328,323.962 126.581 C 323.956 127.071,324.882 127.404,325.028 126.965 C 325.118 126.694,325.244 126.696,325.611 126.971 C 326.004 127.267,326.022 127.260,325.724 126.926 C 325.328 126.482,325.245 125.966,325.606 126.189 C 325.734 126.269,325.822 126.088,325.800 125.788 C 325.756 125.198,325.399 124.686,325.328 125.112 M171.143 129.644 C 169.548 130.465,168.235 132.040,167.630 133.860 C 167.311 134.819,166.744 136.017,166.370 136.524 C 165.996 137.030,165.416 138.350,165.080 139.456 C 164.744 140.562,164.072 142.020,163.586 142.696 C 162.419 144.322,162.827 145.304,164.813 145.647 C 166.528 145.944,166.620 145.883,167.774 143.688 C 168.330 142.631,169.088 141.349,169.459 140.838 C 169.831 140.327,170.408 139.055,170.743 138.011 C 171.078 136.967,171.640 135.795,171.993 135.406 C 173.616 133.617,173.833 132.837,173.272 130.816 C 172.893 129.449,172.230 129.084,171.143 129.644 M105.603 132.901 C 105.992 133.670,106.756 134.882,107.301 135.596 C 108.403 137.039,108.999 138.311,109.283 139.819 C 109.388 140.382,109.957 141.388,110.573 142.100 C 111.180 142.800,111.922 143.838,112.222 144.407 C 112.523 144.976,113.478 146.332,114.344 147.420 C 115.210 148.509,116.419 150.163,117.030 151.095 C 117.642 152.028,119.103 153.661,120.279 154.724 C 121.454 155.786,122.654 157.122,122.945 157.692 C 123.236 158.262,123.985 159.139,124.610 159.641 C 127.419 161.896,128.118 164.284,127.004 167.817 C 126.560 169.224,126.571 169.413,127.332 173.470 C 128.904 181.852,128.836 181.676,131.991 185.533 C 132.859 186.594,133.955 187.966,134.426 188.582 C 135.242 189.647,138.146 191.524,140.890 192.758 C 142.937 193.679,144.276 195.739,144.753 198.701 C 145.104 200.884,145.890 202.899,146.974 204.395 C 148.442 206.422,148.438 206.336,148.350 237.972 L 148.269 267.408 147.543 268.133 C 146.427 269.249,143.800 269.391,124.382 269.377 C 105.430 269.365,104.709 269.321,103.453 268.118 L 102.615 267.315 102.615 242.279 L 102.615 217.244 101.979 215.689 L 101.343 214.134 101.261 173.506 C 101.168 127.466,100.973 131.238,103.443 131.406 C 104.868 131.503,104.908 131.530,105.603 132.901 M319.435 135.171 C 319.435 135.456,319.598 135.689,319.798 135.689 C 319.998 135.689,320.162 135.456,320.162 135.171 C 320.162 134.886,319.998 134.653,319.798 134.653 C 319.598 134.653,319.435 134.886,319.435 135.171 M313.953 142.919 C 313.859 143.163,313.973 143.554,314.206 143.787 C 314.439 144.020,314.629 144.081,314.629 143.924 C 314.629 143.766,314.507 143.562,314.359 143.471 C 314.210 143.379,314.160 143.117,314.248 142.888 C 314.335 142.660,314.343 142.473,314.265 142.473 C 314.188 142.473,314.047 142.674,313.953 142.919 M208.831 162.807 C 205.711 163.242,206.316 165.625,209.653 166.047 C 212.159 166.364,214.025 164.203,212.204 163.093 C 211.267 162.521,211.027 162.501,208.831 162.807 M188.924 172.992 C 193.242 175.708,193.540 175.840,196.662 176.425 C 198.759 176.818,200.692 177.423,202.827 178.352 C 206.397 179.907,207.504 180.216,211.025 180.637 C 212.424 180.805,214.301 181.191,215.195 181.496 C 217.422 182.254,227.123 182.299,231.202 181.570 L 233.886 181.091 234.611 182.053 C 235.009 182.583,236.068 183.721,236.963 184.582 L 238.591 186.148 238.293 187.279 C 237.830 189.035,237.431 189.653,236.343 190.302 C 235.789 190.632,234.985 191.225,234.557 191.618 C 233.622 192.478,232.281 192.313,227.986 190.808 C 222.555 188.905,217.804 189.926,213.721 193.873 C 212.232 195.313,211.251 196.015,210.275 196.339 C 209.525 196.588,208.839 196.909,208.751 197.052 C 208.311 197.764,206.101 195.807,204.813 193.563 C 204.387 192.821,203.448 191.742,202.726 191.165 C 202.004 190.589,200.746 189.520,199.930 188.790 C 198.340 187.368,197.340 186.726,193.748 184.821 C 190.607 183.155,189.163 181.361,187.809 177.442 C 187.262 175.856,186.490 174.085,186.094 173.506 C 184.590 171.304,185.871 171.072,188.924 172.992 M290.139 207.420 C 290.427 207.981,290.554 209.461,290.592 212.721 C 290.621 215.208,290.743 226.148,290.864 237.032 C 290.994 248.794,291.199 257.235,291.369 257.843 C 291.527 258.406,291.595 259.501,291.520 260.277 C 291.446 261.052,291.526 262.345,291.699 263.151 C 292.048 264.779,291.219 267.070,290.054 267.693 C 289.689 267.889,281.083 267.986,264.095 267.986 L 238.683 267.986 237.156 266.919 C 235.511 265.770,234.537 264.293,231.801 258.799 C 231.027 257.244,229.822 255.172,229.124 254.194 C 228.317 253.064,227.638 251.673,227.261 250.377 C 226.370 247.315,226.124 246.782,225.379 246.293 C 225.004 246.048,224.263 244.985,223.733 243.933 C 223.203 242.881,222.385 241.413,221.915 240.672 C 221.243 239.612,221.060 239.006,221.060 237.838 C 221.060 235.577,220.516 233.479,219.605 232.231 C 219.153 231.611,218.532 230.261,218.225 229.231 C 217.872 228.046,217.330 226.993,216.749 226.366 C 216.244 225.821,215.074 224.457,214.149 223.336 C 213.225 222.215,211.993 221.055,211.412 220.759 C 210.832 220.462,210.275 220.088,210.175 219.927 C 209.958 219.575,210.831 216.820,211.159 216.820 C 211.737 216.820,217.338 219.252,218.130 219.847 C 218.618 220.213,219.890 220.754,220.957 221.050 C 222.490 221.475,223.076 221.800,223.748 222.599 C 224.350 223.314,225.219 223.851,226.716 224.431 C 230.347 225.837,234.146 227.458,235.618 228.230 C 236.721 228.808,237.684 229.028,240.000 229.230 C 241.633 229.372,243.350 229.637,243.816 229.818 C 244.283 229.999,245.289 230.265,246.053 230.410 C 246.817 230.555,247.840 230.978,248.328 231.350 C 250.370 232.908,255.236 234.984,257.340 235.195 C 258.453 235.307,259.821 235.592,260.380 235.829 C 262.635 236.785,264.237 236.940,265.451 236.321 C 266.064 236.007,267.524 235.568,268.694 235.344 C 274.645 234.206,281.859 229.084,283.849 224.585 C 284.340 223.476,284.415 222.595,284.472 217.315 C 284.555 209.656,285.069 208.140,287.945 207.086 C 289.498 206.517,289.688 206.546,290.139 207.420 M153.160 276.158 C 153.257 276.448,153.148 276.501,152.759 276.353 C 152.353 276.198,152.304 276.229,152.555 276.482 C 152.967 276.897,153.589 276.546,153.385 276.014 C 153.280 275.741,153.449 275.618,153.931 275.618 C 154.315 275.618,154.629 275.731,154.629 275.869 C 154.629 276.208,153.145 277.179,152.792 277.071 C 152.636 277.024,152.598 277.074,152.707 277.183 C 153.614 278.089,134.949 278.723,129.580 277.968 C 126.901 277.592,129.420 277.373,137.385 277.290 L 145.159 277.209 137.527 277.016 C 128.384 276.786,128.920 276.822,129.470 276.466 C 129.798 276.254,129.702 276.185,129.046 276.160 C 128.212 276.128,128.210 276.124,128.905 275.899 C 130.256 275.464,153.009 275.706,153.160 276.158 M154.629 277.156 C 154.629 277.691,154.147 277.972,153.594 277.760 C 153.237 277.623,153.219 277.510,153.501 277.170 C 153.946 276.633,154.629 276.625,154.629 277.156 M104.971 277.443 C 104.971 277.670,105.077 277.789,105.206 277.709 C 105.336 277.629,105.442 277.706,105.442 277.880 C 105.442 278.054,105.569 278.117,105.724 278.021 C 105.880 277.925,106.007 277.719,106.007 277.564 C 106.007 277.408,105.880 277.360,105.724 277.456 C 105.569 277.552,105.442 277.496,105.442 277.331 C 105.442 277.167,105.336 277.032,105.206 277.032 C 105.077 277.032,104.971 277.217,104.971 277.443 " stroke="none" fill="#18100e" fill-rule="evenodd"></path><path id="path1" d="M127.470 4.452 C 127.459 4.569,127.395 4.958,127.328 5.318 C 127.256 5.708,127.321 5.900,127.490 5.796 C 127.646 5.699,127.774 5.744,127.774 5.896 C 127.774 6.048,127.615 6.230,127.420 6.302 C 125.775 6.905,128.329 7.069,138.251 7.000 C 149.373 6.922,149.489 6.908,148.605 5.724 C 148.433 5.495,148.452 5.371,148.658 5.371 C 148.832 5.371,148.943 5.212,148.905 5.018 C 148.823 4.609,129.702 4.214,128.834 4.604 C 128.538 4.736,128.339 4.708,128.339 4.533 C 128.339 4.202,127.503 4.124,127.470 4.452 M171.790 10.117 C 171.734 10.228,171.656 10.859,171.618 11.519 L 171.547 12.721 173.104 12.721 L 174.661 12.721 174.610 11.377 L 174.559 10.034 173.226 9.975 C 172.492 9.943,171.846 10.007,171.790 10.117 M246.724 12.025 C 245.143 12.891,245.087 13.590,245.098 32.348 C 245.103 41.881,245.229 50.196,245.385 51.307 C 245.537 52.396,245.739 54.240,245.832 55.406 C 245.982 57.277,246.960 59.929,247.501 59.929 C 247.571 59.929,248.019 59.235,248.498 58.387 C 249.038 57.431,249.892 56.468,250.743 55.857 C 251.974 54.972,252.135 54.730,252.300 53.513 C 252.710 50.478,254.792 45.700,255.910 45.227 C 256.255 45.082,257.355 44.759,258.354 44.510 C 259.354 44.261,260.817 43.729,261.605 43.327 C 264.458 41.874,266.122 41.533,271.095 41.379 C 275.319 41.249,275.853 41.175,276.749 40.597 C 277.293 40.246,279.138 39.323,280.848 38.545 C 286.876 35.804,289.952 33.283,289.592 31.378 C 289.489 30.834,289.427 27.034,289.453 22.934 C 289.507 14.712,289.277 13.235,287.787 12.221 C 286.760 11.523,247.978 11.338,246.724 12.025 M180.236 13.185 C 180.145 13.421,180.071 14.050,180.071 14.581 L 180.071 15.548 181.597 15.548 L 183.124 15.548 183.124 14.559 C 183.124 13.897,183.016 13.631,182.799 13.753 C 182.599 13.864,182.610 13.788,182.827 13.554 C 183.404 12.932,183.251 12.819,181.791 12.786 C 180.786 12.763,180.355 12.873,180.236 13.185 M311.459 13.569 C 311.528 14.035,311.633 14.417,311.693 14.417 C 311.753 14.417,311.802 14.035,311.802 13.569 C 311.802 13.102,311.697 12.721,311.568 12.721 C 311.440 12.721,311.391 13.102,311.459 13.569 M115.695 13.569 L 102.344 13.710 101.685 14.417 L 101.025 15.124 101.139 54.700 L 101.253 94.276 102.681 95.602 C 104.413 97.211,107.043 98.509,109.042 98.741 C 111.787 99.059,113.537 98.144,118.142 93.983 C 119.008 93.200,120.290 92.096,120.989 91.531 C 121.689 90.965,123.343 89.474,124.664 88.217 C 126.125 86.828,127.830 85.531,129.014 84.909 C 130.085 84.346,131.421 83.474,131.982 82.970 C 133.353 81.740,134.916 80.985,136.961 80.565 C 137.894 80.373,139.230 79.929,139.929 79.577 C 140.629 79.225,142.185 78.668,143.388 78.340 C 144.590 78.011,146.498 77.265,147.628 76.681 L 149.682 75.618 163.630 75.525 C 173.519 75.458,178.290 75.531,180.025 75.774 C 183.657 76.284,183.539 76.300,183.836 75.284 C 184.278 73.773,183.942 73.115,180.108 67.983 C 179.642 67.359,178.994 66.227,178.668 65.467 C 178.342 64.707,177.429 63.197,176.640 62.111 C 175.244 60.191,173.852 57.725,173.852 57.171 C 173.852 57.020,173.221 56.043,172.450 54.998 C 171.679 53.954,170.800 52.442,170.496 51.638 C 169.548 49.128,167.593 45.409,166.754 44.517 C 166.312 44.047,165.554 42.838,165.070 41.831 C 164.586 40.824,163.885 39.677,163.513 39.283 C 163.141 38.888,162.505 37.751,162.101 36.757 C 161.697 35.762,160.869 34.368,160.261 33.658 C 157.265 30.162,156.950 29.692,156.608 28.219 C 156.360 27.147,155.948 26.388,155.178 25.583 C 154.583 24.961,153.717 23.625,153.254 22.615 C 152.791 21.604,151.511 19.710,150.411 18.405 C 149.310 17.101,148.410 15.891,148.410 15.717 C 148.410 13.451,145.414 13.254,115.695 13.569 M285.128 45.570 C 284.484 46.247,283.576 47.040,283.110 47.332 C 281.371 48.417,279.532 50.144,278.997 51.193 C 278.534 52.100,278.208 52.345,276.979 52.710 L 275.512 53.146 274.205 51.732 L 272.899 50.318 270.040 50.318 C 266.514 50.318,265.638 50.828,265.310 53.072 C 265.148 54.176,264.890 54.624,263.864 55.573 C 262.390 56.938,262.295 57.631,263.364 59.204 L 264.112 60.306 262.951 61.390 C 261.889 62.380,261.651 62.473,260.201 62.473 C 258.009 62.473,255.391 64.539,251.566 69.289 C 250.926 70.084,250.603 70.224,248.937 70.424 C 246.456 70.723,245.786 71.244,244.165 74.131 C 242.631 76.864,242.628 76.885,243.516 78.584 L 244.180 79.854 243.491 81.216 L 242.801 82.577 243.404 83.553 C 244.261 84.939,244.699 85.088,247.913 85.088 C 254.439 85.088,255.492 86.545,253.102 92.271 C 251.151 96.948,244.960 98.981,239.702 96.671 C 237.925 95.890,237.180 95.728,234.912 95.633 C 231.783 95.502,226.208 94.359,224.629 93.524 C 220.662 91.429,215.701 90.800,211.356 91.840 C 205.843 93.161,197.552 92.602,195.464 90.769 C 194.916 90.288,194.313 89.894,194.124 89.893 C 190.325 89.884,188.039 89.131,185.235 86.965 C 183.003 85.240,181.107 84.523,178.783 84.523 C 177.975 84.523,176.758 84.313,176.078 84.056 C 173.932 83.245,159.345 83.157,155.574 83.933 C 153.762 84.305,151.638 84.523,149.817 84.523 C 147.480 84.523,146.737 84.629,145.904 85.081 C 145.339 85.388,143.907 86.073,142.723 86.603 C 141.538 87.133,140.480 87.710,140.371 87.886 C 140.065 88.382,138.242 89.216,136.645 89.592 C 135.069 89.963,132.963 91.385,130.833 93.517 C 130.105 94.245,128.909 95.350,128.174 95.972 C 127.439 96.594,126.411 97.767,125.889 98.579 C 125.367 99.390,124.655 100.203,124.307 100.385 C 123.960 100.567,123.166 101.179,122.544 101.744 C 121.282 102.892,117.004 105.190,114.574 106.026 C 111.186 107.192,104.934 106.487,101.565 104.559 C 100.425 103.907,99.540 103.638,98.173 103.528 C 96.433 103.389,96.254 103.306,95.166 102.151 C 94.530 101.474,93.587 100.782,93.070 100.611 C 92.553 100.441,91.592 99.890,90.933 99.387 C 90.274 98.884,88.976 98.125,88.048 97.700 C 87.121 97.276,86.107 96.690,85.796 96.400 C 85.484 96.109,84.594 95.716,83.816 95.526 C 82.136 95.117,80.952 94.549,78.912 93.174 C 78.080 92.614,77.231 92.155,77.025 92.155 C 76.819 92.155,76.079 91.719,75.379 91.185 C 74.653 90.630,73.230 89.952,72.064 89.605 C 70.941 89.271,69.203 88.563,68.203 88.032 C 67.203 87.501,66.236 87.067,66.054 87.066 C 65.873 87.065,65.066 86.566,64.262 85.956 C 63.258 85.195,62.375 84.783,61.449 84.644 C 59.851 84.405,57.403 83.368,56.113 82.384 C 54.299 81.000,52.010 80.321,50.208 80.631 C 48.048 81.003,47.774 81.549,47.774 85.479 C 47.774 89.818,45.807 90.790,42.828 87.922 C 42.003 87.128,40.065 85.906,37.173 84.356 C 36.396 83.940,35.213 83.224,34.546 82.767 C 33.878 82.309,32.225 81.564,30.871 81.110 C 29.517 80.657,27.773 79.968,26.995 79.579 C 26.217 79.190,24.690 78.609,23.603 78.289 C 18.680 76.837,15.815 76.874,14.398 78.406 C 13.947 78.894,12.939 79.963,12.160 80.781 C 10.433 82.594,10.435 82.508,12.080 83.956 C 13.408 85.126,13.417 85.144,13.338 86.739 C 13.281 87.880,13.425 88.723,13.836 89.653 C 14.371 90.861,14.383 91.038,13.992 91.973 C 13.295 93.642,13.441 94.256,14.827 95.476 C 15.845 96.372,16.176 96.913,16.567 98.321 C 17.133 100.354,19.180 102.997,20.856 103.857 C 22.527 104.714,24.765 106.469,25.477 107.480 C 28.082 111.180,32.922 114.551,36.322 115.032 C 37.438 115.190,39.008 115.735,40.588 116.510 L 43.088 117.739 48.827 117.834 C 53.620 117.914,54.787 117.853,55.905 117.462 C 59.747 116.117,65.474 116.725,68.004 118.747 C 68.772 119.360,70.099 120.199,70.954 120.612 C 71.809 121.024,73.018 121.706,73.640 122.126 C 77.545 124.767,80.656 124.684,84.188 121.845 L 85.358 120.905 87.877 121.068 C 90.004 121.206,90.641 121.370,91.973 122.122 C 93.794 123.149,95.546 123.018,97.890 121.677 C 99.384 120.823,109.576 120.607,110.715 121.405 C 112.038 122.332,113.114 124.519,113.038 126.129 C 112.924 128.564,114.419 132.807,116.146 134.951 C 116.633 135.555,117.033 136.382,117.033 136.788 C 117.037 138.713,117.574 139.593,120.007 141.664 C 121.320 142.782,122.471 143.939,122.565 144.235 C 122.659 144.530,123.296 145.403,123.980 146.174 C 124.665 146.945,125.484 148.082,125.799 148.701 C 126.169 149.426,127.076 150.337,128.346 151.261 C 129.431 152.050,130.318 152.796,130.318 152.919 C 130.318 153.041,131.543 154.397,133.041 155.932 C 134.538 157.466,136.083 159.141,136.473 159.653 L 137.184 160.584 136.820 163.613 C 136.621 165.280,136.221 167.247,135.932 167.986 C 135.643 168.724,135.154 169.960,134.846 170.731 C 134.114 172.564,134.444 174.678,135.662 175.963 C 136.109 176.434,136.713 177.294,137.003 177.873 C 137.534 178.930,140.367 182.049,140.796 182.049 C 140.922 182.049,141.609 182.554,142.321 183.171 C 143.167 183.902,144.265 184.492,145.480 184.868 C 149.974 186.256,151.101 187.617,150.992 191.526 C 150.876 195.665,152.775 199.728,155.600 201.390 C 156.232 201.762,157.054 202.392,157.426 202.791 C 157.871 203.267,159.030 203.807,160.818 204.370 C 162.311 204.840,164.093 205.608,164.778 206.075 C 165.462 206.543,166.196 206.926,166.409 206.926 C 166.724 206.926,168.867 208.962,171.307 211.581 C 172.719 213.095,175.180 214.972,176.726 215.713 C 178.648 216.633,180.344 217.725,183.039 219.777 C 183.972 220.487,185.132 221.309,185.618 221.604 C 186.104 221.898,186.900 222.836,187.387 223.687 C 188.472 225.583,188.613 225.701,190.437 226.239 C 192.727 226.914,194.563 228.183,198.554 231.851 L 199.991 233.171 201.409 231.979 C 202.750 230.851,202.908 230.792,204.323 230.898 C 207.520 231.137,207.724 235.390,204.575 236.135 C 202.536 236.617,201.803 239.257,203.534 239.882 C 207.271 241.232,212.580 239.163,212.580 236.356 C 212.580 234.406,209.496 230.054,207.817 229.632 C 207.422 229.533,206.996 229.101,206.777 228.578 C 206.319 227.481,205.749 226.969,204.019 226.101 C 202.992 225.585,202.379 224.983,201.471 223.594 C 200.382 221.929,200.125 221.714,198.586 221.168 C 197.512 220.787,196.462 220.143,195.702 219.401 C 195.045 218.759,194.355 218.233,194.169 218.233 C 193.983 218.233,193.247 217.860,192.534 217.403 C 191.820 216.947,190.155 216.181,188.834 215.701 C 185.597 214.526,181.047 209.922,179.375 206.130 C 179.001 205.281,178.475 204.698,177.643 204.210 C 176.128 203.323,175.969 202.885,176.806 201.912 L 177.478 201.131 181.955 201.225 C 187.753 201.348,188.709 201.910,191.661 206.929 C 192.049 207.589,192.765 208.584,193.250 209.138 L 194.132 210.145 198.391 210.266 C 202.872 210.393,204.268 210.062,204.771 208.751 C 205.005 208.142,203.719 205.438,202.992 205.007 C 202.654 204.807,202.020 204.080,201.582 203.390 C 200.160 201.148,195.353 195.901,194.720 195.901 C 194.579 195.901,193.865 195.351,193.133 194.678 C 191.072 192.783,188.401 191.440,185.970 191.075 C 182.664 190.580,180.096 189.761,178.103 188.569 C 177.086 187.960,175.447 187.202,174.461 186.883 C 173.475 186.564,172.202 186.014,171.634 185.662 C 171.066 185.309,170.028 184.748,169.329 184.414 C 168.542 184.040,166.950 182.667,165.159 180.819 L 162.261 177.831 162.261 173.460 L 162.261 169.090 163.247 167.866 C 163.789 167.194,164.584 166.025,165.014 165.270 C 167.011 161.760,168.963 160.000,170.858 160.000 C 171.367 160.000,172.536 159.735,173.454 159.411 C 176.455 158.353,184.967 159.731,186.810 161.574 C 187.223 161.987,188.452 162.773,189.540 163.320 C 190.629 163.867,192.028 164.663,192.650 165.088 C 194.478 166.337,196.556 167.294,198.773 167.909 C 199.914 168.225,201.484 168.920,202.261 169.454 C 204.211 170.792,204.655 170.919,208.198 171.148 C 210.967 171.326,211.449 171.439,212.604 172.176 C 213.593 172.807,214.236 173.004,215.309 173.004 C 216.084 173.004,217.408 173.226,218.253 173.498 C 219.499 173.900,220.824 173.993,225.300 173.993 C 231.348 173.993,230.692 174.139,234.205 172.004 C 236.261 170.754,236.803 170.981,239.152 174.076 C 239.852 174.998,240.965 176.099,241.625 176.524 C 242.286 176.948,242.827 177.421,242.827 177.574 C 242.827 177.728,244.486 179.497,246.513 181.506 L 250.199 185.159 251.813 185.162 C 252.920 185.164,253.886 185.378,254.887 185.844 C 255.689 186.218,257.470 186.802,258.844 187.143 C 261.244 187.737,263.180 188.619,263.180 189.117 C 263.180 189.247,263.640 189.637,264.202 189.985 C 266.358 191.317,266.677 194.288,264.855 196.056 C 264.222 196.670,263.254 197.897,262.705 198.782 C 261.259 201.113,259.373 201.401,257.311 199.606 C 255.427 197.965,255.326 197.865,254.324 196.657 C 253.753 195.969,252.863 195.350,251.873 194.954 L 250.318 194.333 249.096 195.011 C 248.104 195.562,247.302 195.722,244.815 195.866 C 241.081 196.081,240.565 196.397,240.565 198.466 C 240.565 200.344,240.717 200.606,242.448 201.713 L 243.976 202.691 243.799 204.172 C 243.491 206.741,243.086 206.927,237.793 206.921 C 233.588 206.917,233.298 206.880,232.226 206.225 C 231.604 205.845,230.777 205.402,230.389 205.240 C 229.089 204.701,228.836 204.491,228.410 203.592 C 227.849 202.411,227.399 202.606,227.507 203.983 C 227.648 205.798,226.846 208.668,225.991 209.410 C 224.982 210.284,224.352 210.044,222.556 208.097 C 220.717 206.104,220.590 205.740,221.326 204.550 C 222.171 203.183,222.524 202.960,224.660 202.442 C 226.985 201.879,227.530 200.549,225.952 199.293 C 224.872 198.434,220.292 198.607,219.105 199.552 C 218.703 199.871,217.734 200.529,216.951 201.014 C 215.156 202.127,212.968 205.369,213.516 206.105 C 213.701 206.353,214.345 207.218,214.947 208.026 C 215.571 208.863,216.544 209.748,217.208 210.085 C 217.850 210.409,218.693 210.893,219.081 211.160 C 219.470 211.427,221.036 211.930,222.562 212.278 C 225.318 212.907,225.343 212.920,226.329 214.293 C 227.323 215.676,228.412 216.249,230.054 216.253 C 230.414 216.254,231.114 216.560,231.609 216.933 C 232.104 217.306,233.336 218.005,234.346 218.488 C 235.357 218.971,236.775 219.757,237.498 220.236 C 238.793 221.093,238.877 221.108,243.293 221.262 C 248.355 221.438,247.919 221.301,251.214 223.757 C 254.536 226.234,254.368 226.203,263.796 226.098 C 273.119 225.993,272.880 226.057,274.285 223.307 C 274.718 222.460,275.386 221.292,275.769 220.713 C 276.776 219.191,276.724 217.292,275.618 215.220 C 274.600 213.311,274.472 211.340,275.299 210.285 C 275.589 209.915,276.349 208.571,276.987 207.301 C 277.625 206.030,278.282 204.907,278.447 204.805 C 278.611 204.703,279.012 204.053,279.338 203.361 C 279.952 202.054,280.351 201.730,282.280 200.971 C 282.912 200.722,284.630 199.623,286.096 198.530 C 287.563 197.436,289.184 196.327,289.699 196.064 C 290.214 195.801,291.034 195.021,291.520 194.330 C 292.007 193.639,292.499 193.074,292.614 193.074 C 292.728 193.074,293.386 192.152,294.076 191.025 L 295.329 188.975 295.263 186.118 C 295.119 179.893,292.226 175.865,287.859 175.809 C 284.722 175.769,284.048 175.531,282.119 173.781 L 280.327 172.155 280.637 170.812 C 280.994 169.264,281.331 168.862,287.369 162.754 C 291.790 158.282,292.755 156.981,293.707 154.213 C 294.037 153.256,294.774 151.999,295.475 151.199 C 297.889 148.448,298.726 147.406,299.082 146.714 C 299.281 146.325,299.908 145.498,300.475 144.876 C 301.043 144.254,301.807 143.110,302.173 142.332 C 302.540 141.555,303.135 140.598,303.496 140.205 C 303.857 139.813,304.594 138.585,305.134 137.476 C 305.673 136.368,306.262 135.370,306.441 135.259 C 306.620 135.148,307.121 134.277,307.553 133.324 C 307.984 132.370,308.685 131.272,309.109 130.883 C 309.533 130.495,310.237 129.477,310.674 128.622 C 311.111 127.767,311.926 126.628,312.485 126.092 C 313.197 125.408,313.639 124.625,313.962 123.472 C 314.375 121.999,314.607 121.684,316.199 120.433 C 317.832 119.150,318.003 118.909,318.331 117.443 C 318.596 116.262,318.994 115.508,319.871 114.532 C 321.186 113.069,323.632 108.632,324.358 106.394 C 324.929 104.634,325.376 104.220,327.208 103.756 C 327.986 103.559,329.255 103.018,330.029 102.554 C 331.253 101.820,331.509 101.758,332.007 102.078 C 332.322 102.281,334.103 103.199,335.964 104.119 L 339.349 105.792 342.365 105.668 L 345.381 105.543 346.678 104.402 C 349.493 101.923,357.743 102.208,361.601 104.917 C 362.016 105.208,362.970 105.522,363.722 105.614 C 364.671 105.732,365.882 106.255,367.690 107.332 C 370.649 109.093,370.738 109.094,373.061 107.378 C 376.077 105.150,376.042 102.090,372.983 100.546 C 371.235 99.664,371.069 97.906,372.591 96.385 C 373.287 95.688,379.126 95.757,380.786 96.481 C 382.573 97.261,386.996 95.069,386.996 93.404 C 386.996 93.158,387.378 92.003,387.845 90.838 C 388.311 89.674,388.693 88.470,388.693 88.164 C 388.693 87.450,386.378 84.971,384.977 84.183 C 384.383 83.850,383.577 83.093,383.186 82.503 C 382.796 81.912,382.062 81.217,381.556 80.958 C 381.050 80.698,380.268 80.179,379.818 79.803 C 379.369 79.428,378.387 78.810,377.638 78.430 C 376.888 78.050,375.857 77.375,375.346 76.929 C 374.835 76.483,373.908 75.859,373.286 75.543 C 372.664 75.226,371.837 74.622,371.449 74.201 C 370.374 73.037,367.682 71.291,365.925 70.618 C 364.668 70.137,364.216 69.784,363.670 68.851 C 362.290 66.497,357.644 63.322,355.578 63.322 C 355.081 63.322,353.870 62.930,352.888 62.452 C 351.193 61.626,350.868 61.572,346.504 61.387 C 341.242 61.164,341.392 61.220,337.809 58.109 C 336.643 57.096,335.112 55.958,334.406 55.580 C 333.700 55.201,332.571 54.276,331.898 53.524 C 331.224 52.771,330.371 51.818,330.002 51.405 C 329.185 50.490,325.528 50.096,321.284 50.463 C 319.878 50.585,318.155 50.671,317.456 50.653 C 316.756 50.635,313.128 50.521,309.393 50.399 L 302.603 50.177 299.815 48.828 C 298.282 48.086,296.549 47.100,295.964 46.637 C 295.379 46.174,294.559 45.795,294.141 45.795 C 293.723 45.795,292.405 45.553,291.213 45.257 C 286.757 44.152,286.462 44.167,285.128 45.570 M290.601 45.853 C 291.456 46.158,292.795 46.496,293.576 46.604 C 294.405 46.719,295.406 47.102,295.979 47.523 C 299.942 50.442,301.612 50.883,308.686 50.883 C 313.180 50.883,314.872 50.986,316.027 51.329 C 317.412 51.740,317.667 51.737,319.331 51.287 C 322.399 50.456,328.674 50.847,329.543 51.923 C 331.680 54.566,332.356 55.216,333.657 55.875 C 334.451 56.278,336.100 57.514,337.320 58.622 C 340.635 61.633,340.820 61.701,346.254 61.943 C 350.800 62.146,350.908 62.166,352.323 63.045 C 353.309 63.658,354.256 63.989,355.327 64.095 C 357.081 64.268,359.084 65.165,360.358 66.348 C 360.826 66.782,361.573 67.459,362.018 67.851 C 362.463 68.244,363.037 68.963,363.293 69.449 C 363.644 70.115,364.462 70.695,366.600 71.794 C 368.163 72.596,369.938 73.750,370.546 74.358 C 371.153 74.965,372.209 75.705,372.892 76.001 C 373.575 76.297,374.452 76.885,374.841 77.308 C 375.230 77.730,376.057 78.335,376.678 78.650 C 377.300 78.966,378.553 79.780,379.463 80.460 C 380.372 81.140,381.292 81.696,381.508 81.696 C 381.724 81.696,382.242 82.213,382.661 82.845 C 383.079 83.477,383.749 84.166,384.149 84.375 C 385.116 84.880,388.127 87.799,388.127 88.231 C 388.127 88.419,387.813 89.108,387.430 89.762 C 387.046 90.417,386.594 91.573,386.425 92.331 C 385.818 95.051,383.674 96.270,380.701 95.584 C 378.316 95.033,373.163 95.170,372.109 95.812 C 369.868 97.179,370.200 99.903,372.755 101.113 C 374.299 101.844,374.548 102.252,374.554 104.061 C 374.558 105.111,373.682 106.572,373.047 106.572 C 372.861 106.572,372.226 106.970,371.637 107.456 L 370.565 108.339 369.382 107.494 C 366.853 105.688,355.239 101.484,352.777 101.484 C 351.016 101.484,347.812 102.565,346.417 103.629 C 343.313 105.999,338.049 105.246,332.867 101.691 C 331.470 100.733,331.365 100.734,330.000 101.723 C 329.389 102.165,328.053 102.805,327.029 103.146 C 325.085 103.793,324.162 104.534,323.818 105.724 C 323.274 107.609,320.395 113.040,319.288 114.271 C 318.614 115.020,317.975 116.043,317.867 116.545 C 317.589 117.833,316.907 119.081,316.212 119.570 C 314.322 120.902,313.586 121.846,313.243 123.378 C 312.979 124.559,312.667 125.127,311.958 125.720 C 311.443 126.150,310.684 127.174,310.272 127.996 C 309.859 128.818,309.095 129.963,308.574 130.540 C 308.053 131.118,307.428 132.066,307.186 132.647 C 306.943 133.229,306.364 134.183,305.899 134.767 C 305.434 135.352,304.783 136.530,304.452 137.385 C 304.121 138.240,303.548 139.224,303.179 139.572 C 302.810 139.919,302.173 140.873,301.765 141.692 C 301.356 142.510,300.591 143.625,300.065 144.170 C 299.539 144.714,298.911 145.634,298.670 146.214 C 298.428 146.794,297.906 147.480,297.511 147.740 C 297.115 147.999,296.593 148.606,296.351 149.088 C 296.109 149.570,295.436 150.410,294.856 150.954 C 294.106 151.657,293.617 152.496,293.168 153.849 C 292.820 154.896,292.416 155.828,292.269 155.918 C 292.123 156.008,291.698 156.685,291.325 157.422 C 290.927 158.207,290.169 159.091,289.493 159.560 C 288.858 160.000,288.339 160.473,288.339 160.613 C 288.339 160.752,287.150 162.038,285.696 163.472 C 280.719 168.378,280.143 169.100,279.881 170.762 L 279.645 172.256 281.434 174.045 C 283.613 176.223,284.036 176.396,287.207 176.396 L 289.714 176.396 291.541 178.163 C 294.036 180.576,294.091 180.720,294.223 185.166 L 294.336 188.989 293.426 190.537 C 292.925 191.388,292.396 192.160,292.250 192.252 C 292.104 192.344,291.577 193.042,291.079 193.804 C 290.493 194.699,289.724 195.422,288.903 195.849 C 288.204 196.213,287.378 196.733,287.067 197.005 C 285.796 198.115,282.727 200.096,281.222 200.778 C 280.054 201.307,279.486 201.762,279.139 202.449 C 278.877 202.968,278.425 203.652,278.135 203.970 C 277.846 204.287,277.176 205.435,276.648 206.521 C 276.120 207.607,275.354 208.987,274.946 209.587 C 273.847 211.207,273.876 213.984,275.009 215.671 C 275.862 216.940,275.975 219.257,275.229 220.182 C 275.055 220.399,274.466 221.471,273.922 222.564 C 272.486 225.449,272.009 225.580,263.002 225.567 C 255.165 225.555,254.663 225.438,251.188 222.818 C 248.791 221.011,248.072 220.781,244.744 220.754 C 240.222 220.716,238.881 220.473,237.588 219.453 C 236.971 218.966,235.767 218.276,234.912 217.918 C 234.057 217.561,232.864 216.915,232.261 216.484 C 231.587 216.000,230.611 215.625,229.721 215.507 C 228.657 215.366,228.089 215.111,227.565 214.539 C 227.175 214.112,226.521 213.393,226.113 212.942 C 225.607 212.383,224.864 212.000,223.781 211.740 C 221.569 211.209,221.641 210.601,223.915 210.601 C 225.966 210.601,227.366 209.527,227.711 207.690 C 227.883 206.772,228.019 206.638,228.935 206.486 C 229.501 206.391,230.092 206.281,230.247 206.240 C 230.403 206.200,231.039 206.433,231.661 206.758 C 232.807 207.358,240.417 207.802,242.139 207.370 C 245.404 206.551,245.630 202.575,242.501 200.970 C 241.544 200.479,241.460 200.332,241.345 198.948 C 241.167 196.815,241.508 196.586,245.139 196.400 C 246.869 196.312,248.504 196.064,249.156 195.791 C 250.547 195.210,253.051 195.857,253.815 196.996 C 254.696 198.311,257.852 201.245,258.455 201.309 C 261.169 201.597,262.192 201.090,263.494 198.816 C 263.967 197.988,264.597 197.182,264.893 197.023 C 265.189 196.865,265.746 196.271,266.131 195.705 C 268.096 192.813,265.122 188.309,260.296 186.867 C 259.161 186.528,257.406 185.922,256.396 185.520 C 255.316 185.091,253.633 184.707,252.314 184.588 C 250.296 184.406,250.005 184.304,249.424 183.571 C 249.069 183.123,248.616 182.595,248.418 182.397 C 245.806 179.800,243.422 177.427,242.968 176.974 C 242.657 176.663,241.958 175.975,241.413 175.446 C 240.869 174.916,239.852 173.758,239.152 172.871 C 237.024 170.174,235.242 169.984,232.502 172.161 C 231.910 172.631,231.097 173.109,230.695 173.222 C 229.441 173.575,219.880 173.428,218.956 173.041 C 218.498 172.850,217.222 172.579,216.120 172.439 C 214.914 172.286,213.614 171.905,212.854 171.481 C 211.801 170.895,211.047 170.745,208.339 170.581 C 204.910 170.374,204.547 170.268,202.968 169.020 C 202.424 168.589,201.088 167.956,200.000 167.613 C 197.374 166.784,193.832 165.093,192.085 163.835 C 191.307 163.275,190.193 162.686,189.607 162.527 C 189.022 162.368,187.905 161.670,187.124 160.977 C 186.344 160.284,185.424 159.716,185.079 159.714 C 184.734 159.712,183.181 159.394,181.626 159.007 C 178.125 158.136,175.405 158.092,173.145 158.869 C 172.241 159.180,171.006 159.435,170.401 159.435 C 168.376 159.435,166.545 161.068,164.770 164.456 C 164.303 165.348,163.563 166.459,163.125 166.926 C 161.781 168.359,161.696 168.748,161.698 173.480 C 161.700 178.667,161.489 178.149,165.088 181.804 C 166.784 183.527,168.017 184.503,169.279 185.122 C 170.262 185.604,171.388 186.252,171.781 186.561 C 172.174 186.870,172.960 187.210,173.527 187.316 C 174.953 187.583,176.334 188.191,177.668 189.138 C 178.839 189.970,182.374 191.187,184.594 191.523 C 187.684 191.989,190.799 193.362,192.848 195.160 C 193.578 195.801,194.948 196.961,195.892 197.739 C 196.836 198.516,197.929 199.682,198.322 200.329 C 198.715 200.977,199.334 201.701,199.698 201.940 C 200.062 202.178,200.641 202.955,200.985 203.665 C 201.328 204.375,201.848 205.084,202.139 205.240 C 202.745 205.564,204.099 207.749,204.099 208.402 C 204.099 209.529,202.817 209.829,198.615 209.684 C 193.913 209.522,193.739 209.466,193.068 207.900 C 191.887 205.145,189.090 201.899,187.133 201.011 C 185.491 200.267,177.780 200.137,176.780 200.837 C 175.211 201.936,175.341 203.668,177.054 204.481 C 178.217 205.033,178.486 205.351,178.914 206.681 C 179.730 209.217,185.251 215.090,187.636 215.960 C 190.326 216.942,194.870 219.393,195.551 220.230 C 195.962 220.736,196.855 221.237,198.051 221.635 C 199.701 222.184,199.996 222.398,200.662 223.526 C 201.908 225.636,202.356 226.090,204.112 227.026 C 205.038 227.520,205.795 228.028,205.795 228.156 C 205.795 228.661,204.552 229.502,203.363 229.801 C 202.663 229.978,201.634 230.547,201.030 231.093 L 199.949 232.069 199.127 231.204 C 198.674 230.728,197.963 230.160,197.546 229.942 C 197.130 229.725,196.064 228.912,195.178 228.137 C 194.284 227.355,192.881 226.470,192.025 226.150 C 189.428 225.179,188.846 224.765,187.822 223.163 C 187.258 222.282,186.322 221.299,185.643 220.875 C 184.988 220.466,183.981 219.709,183.405 219.194 C 182.829 218.679,181.866 218.007,181.266 217.701 C 180.665 217.394,179.992 216.924,179.769 216.656 C 179.546 216.387,178.544 215.800,177.542 215.350 C 176.540 214.900,175.131 213.981,174.411 213.308 C 173.691 212.634,172.824 211.995,172.484 211.887 C 172.145 211.780,171.674 211.319,171.439 210.864 C 170.100 208.274,164.923 204.718,161.201 203.831 C 160.385 203.636,159.304 203.172,158.799 202.799 C 158.293 202.426,157.259 201.710,156.500 201.207 C 153.407 199.159,151.333 194.895,151.592 191.116 C 151.837 187.543,150.386 185.725,146.280 184.458 C 144.838 184.013,143.803 183.480,143.034 182.786 C 142.414 182.225,141.770 181.767,141.604 181.767 C 140.947 181.767,137.879 178.471,137.201 177.037 C 136.812 176.216,136.259 175.419,135.971 175.265 C 134.928 174.706,134.912 172.125,135.939 170.091 C 136.639 168.706,136.914 167.629,137.256 164.947 C 137.494 163.081,137.730 161.428,137.780 161.272 C 138.142 160.168,130.579 151.537,128.167 150.301 C 127.618 150.019,126.859 149.130,126.140 147.929 C 125.509 146.872,124.730 145.849,124.411 145.655 C 124.091 145.462,123.576 144.808,123.267 144.201 C 122.652 142.996,122.532 142.863,120.556 141.201 C 118.046 139.090,117.956 138.968,117.739 137.360 C 117.501 135.604,117.239 134.996,116.266 133.952 C 115.139 132.742,114.164 129.668,113.992 126.784 C 113.833 124.112,112.597 121.510,111.108 120.713 C 109.811 120.019,98.585 120.357,97.123 121.134 C 94.715 122.414,93.777 122.476,92.236 121.456 C 90.985 120.627,90.704 120.563,87.896 120.467 L 84.893 120.364 83.864 121.268 C 81.162 123.640,77.692 123.908,74.743 121.971 C 73.671 121.267,72.347 120.571,71.800 120.423 C 71.253 120.276,70.063 119.528,69.155 118.761 C 65.578 115.736,60.260 114.907,56.211 116.744 C 53.421 118.010,43.408 117.451,40.978 115.893 C 40.273 115.441,39.032 114.939,38.222 114.779 C 37.412 114.619,36.102 114.360,35.312 114.204 C 33.142 113.777,28.702 110.411,26.265 107.347 C 25.005 105.763,23.124 104.271,21.318 103.422 C 20.499 103.037,19.773 102.415,19.338 101.725 C 18.959 101.126,18.528 100.636,18.378 100.636 C 17.962 100.636,17.344 99.227,17.137 97.809 C 16.981 96.736,16.721 96.331,15.476 95.222 L 13.999 93.907 14.615 92.449 L 15.231 90.991 14.682 89.712 C 14.342 88.919,14.134 87.788,14.134 86.730 C 14.134 85.064,14.106 85.001,12.815 83.816 L 11.496 82.605 13.395 80.491 C 16.345 77.208,20.506 77.144,26.683 80.284 C 27.599 80.750,28.569 81.131,28.839 81.131 C 29.544 81.131,32.532 82.311,33.361 82.916 C 34.282 83.589,37.948 85.735,39.633 86.587 C 40.364 86.957,41.470 87.718,42.090 88.278 C 43.463 89.519,45.835 90.321,46.744 89.851 C 48.271 89.063,48.339 88.877,48.339 85.475 C 48.339 82.466,48.377 82.250,48.975 81.865 C 50.618 80.807,53.580 81.192,55.368 82.697 C 56.413 83.576,60.136 85.261,61.567 85.503 C 62.191 85.608,63.127 86.011,63.647 86.398 C 65.187 87.544,68.740 89.235,71.183 89.985 C 72.436 90.370,73.883 91.007,74.399 91.400 C 74.914 91.793,75.924 92.367,76.643 92.675 C 77.362 92.984,78.531 93.679,79.242 94.222 C 79.953 94.764,81.552 95.547,82.796 95.962 C 84.041 96.376,85.380 96.968,85.773 97.277 C 86.165 97.586,87.032 98.024,87.699 98.251 C 88.365 98.478,89.291 98.998,89.756 99.405 C 90.220 99.813,91.300 100.464,92.155 100.852 C 93.011 101.240,94.165 102.042,94.722 102.634 C 95.749 103.727,96.082 103.866,98.416 104.167 C 99.159 104.263,100.271 104.695,100.975 105.161 C 106.440 108.782,117.329 107.374,122.827 102.337 C 123.449 101.768,124.313 101.081,124.748 100.812 C 125.183 100.543,125.977 99.639,126.512 98.802 C 127.047 97.966,128.021 96.859,128.678 96.344 C 129.334 95.828,130.576 94.674,131.437 93.780 C 132.299 92.885,133.134 92.154,133.292 92.154 C 133.451 92.155,134.024 91.793,134.565 91.350 C 135.109 90.904,136.242 90.382,137.102 90.181 C 138.828 89.777,140.497 89.017,141.008 88.402 C 141.192 88.180,142.265 87.593,143.392 87.097 C 144.519 86.601,145.802 86.010,146.242 85.783 C 146.772 85.510,147.918 85.371,149.636 85.371 C 151.410 85.371,153.257 85.138,155.479 84.635 C 159.937 83.625,173.429 83.707,176.113 84.761 C 176.968 85.096,178.214 85.371,178.881 85.371 C 180.793 85.371,183.430 86.387,185.159 87.789 C 187.273 89.503,187.982 89.787,191.095 90.163 C 192.712 90.358,194.048 90.679,194.452 90.968 C 196.160 92.190,196.715 92.449,198.493 92.854 C 201.287 93.489,207.020 93.427,210.346 92.725 C 215.671 91.601,221.182 92.126,223.919 94.017 C 224.480 94.405,225.434 94.788,226.039 94.868 C 226.643 94.948,228.092 95.260,229.258 95.563 C 230.424 95.865,232.714 96.221,234.346 96.356 C 236.347 96.520,237.981 96.843,239.359 97.346 C 242.046 98.326,246.797 98.419,248.622 97.526 C 252.458 95.650,253.707 94.118,254.590 90.206 C 255.538 86.007,254.407 84.553,250.035 84.355 C 243.670 84.067,243.065 83.730,244.352 81.189 L 245.063 79.785 244.298 78.345 L 243.534 76.905 244.234 75.577 C 245.669 72.860,247.493 71.237,249.111 71.237 C 250.420 71.237,250.627 71.139,251.698 70.015 C 257.644 63.778,258.303 63.276,260.257 63.498 C 261.589 63.649,261.669 63.614,263.251 62.193 C 265.084 60.546,265.167 60.272,264.163 59.189 C 262.719 57.631,262.915 56.852,265.116 55.406 C 265.580 55.102,265.856 54.507,266.096 53.293 C 266.519 51.159,266.984 50.893,270.292 50.888 L 272.739 50.883 273.947 52.326 L 275.155 53.770 276.542 53.586 C 278.164 53.370,278.860 52.994,279.260 52.115 C 279.712 51.123,281.535 49.226,282.952 48.273 C 283.661 47.797,284.753 46.862,285.380 46.195 C 286.681 44.812,287.528 44.756,290.601 45.853 M208.297 64.456 C 208.177 66.217,208.116 66.148,209.789 66.148 L 211.145 66.148 211.120 64.871 C 211.090 63.410,211.129 63.451,209.569 63.193 L 208.396 62.999 208.297 64.456 M7.067 70.119 C 7.067 71.596,7.293 71.802,8.914 71.802 C 10.067 71.802,10.370 71.344,10.225 69.823 L 10.116 68.680 8.592 68.730 L 7.067 68.780 7.067 70.119 M211.166 70.106 L 211.166 71.519 212.539 71.519 C 213.973 71.519,214.364 70.792,213.591 69.568 C 213.410 69.281,213.441 69.233,213.703 69.395 C 213.945 69.545,214.023 69.488,213.936 69.227 C 213.864 69.011,213.578 68.790,213.300 68.736 C 212.945 68.667,212.859 68.751,213.012 69.019 C 213.186 69.325,213.154 69.331,212.847 69.046 C 211.885 68.153,211.166 68.606,211.166 70.106 M231.732 69.303 C 231.866 69.817,231.796 69.888,231.281 69.753 C 230.905 69.655,230.671 69.724,230.671 69.935 C 230.671 70.441,231.278 70.954,231.875 70.954 C 232.164 70.954,232.336 71.060,232.256 71.189 C 232.176 71.318,232.391 71.403,232.734 71.379 C 233.219 71.344,233.377 71.130,233.448 70.408 C 233.506 69.810,233.433 69.548,233.239 69.668 C 233.050 69.784,233.008 69.673,233.127 69.365 C 233.272 68.987,233.204 68.919,232.826 69.064 C 232.536 69.176,232.408 69.138,232.511 68.972 C 232.606 68.818,232.434 68.693,232.128 68.693 C 231.698 68.693,231.608 68.831,231.732 69.303 M232.707 70.084 C 233.109 70.553,233.115 70.649,232.755 70.788 C 232.487 70.890,232.411 70.830,232.541 70.620 C 232.676 70.401,232.587 70.353,232.273 70.473 C 231.412 70.803,230.825 70.369,231.574 69.956 C 231.933 69.758,232.230 69.584,232.234 69.568 C 232.238 69.553,232.451 69.785,232.707 70.084 M68.414 77.597 C 68.418 78.066,68.465 78.090,68.693 77.739 C 68.892 77.430,68.968 77.416,68.971 77.685 C 68.973 77.888,69.105 77.975,69.263 77.877 C 69.421 77.779,69.465 77.561,69.360 77.393 C 69.247 77.209,69.302 77.167,69.497 77.287 C 69.676 77.398,69.823 77.368,69.823 77.220 C 69.823 77.072,69.505 76.969,69.117 76.991 C 68.611 77.020,68.411 77.192,68.414 77.597 M69.999 77.326 C 69.761 77.946,69.775 78.021,70.123 78.021 C 70.287 78.021,70.349 77.903,70.259 77.758 C 70.170 77.613,70.216 77.421,70.363 77.331 C 70.509 77.240,70.689 77.361,70.763 77.599 C 70.866 77.934,70.887 77.924,70.855 77.555 C 70.798 76.911,70.218 76.756,69.999 77.326 M68.749 78.643 C 68.034 79.359,68.377 79.708,69.766 79.677 C 71.155 79.645,71.802 78.864,70.768 78.467 C 70.218 78.256,69.823 78.500,69.823 79.051 C 69.823 79.557,69.209 79.428,69.027 78.883 C 68.952 78.659,69.031 78.588,69.221 78.705 C 69.397 78.814,69.541 78.768,69.541 78.603 C 69.541 78.205,69.169 78.224,68.749 78.643 M82.086 82.737 C 81.474 82.859,81.300 84.502,81.812 85.329 C 82.024 85.673,83.704 85.722,84.681 85.414 C 85.380 85.192,85.588 83.110,84.910 83.110 C 84.697 83.110,84.523 83.008,84.523 82.885 C 84.523 82.638,83.034 82.548,82.086 82.737 M318.402 91.706 C 317.445 92.186,316.141 93.057,315.503 93.640 C 314.866 94.223,314.179 94.700,313.977 94.700 C 311.761 94.700,309.186 98.496,309.985 100.587 C 311.554 104.694,316.701 103.480,319.032 98.453 C 319.806 96.784,320.122 96.380,320.767 96.237 C 323.815 95.561,324.908 94.425,324.006 92.873 C 323.509 92.019,322.200 91.230,320.848 90.969 C 320.402 90.883,319.500 91.155,318.402 91.706 M322.156 92.330 C 324.176 93.174,324.006 94.336,321.745 95.139 C 319.363 95.984,319.191 96.131,318.522 97.882 C 317.573 100.364,315.422 102.044,313.190 102.047 L 311.609 102.049 310.864 100.681 L 310.119 99.312 310.927 98.038 C 311.832 96.611,312.827 95.815,314.718 95.005 C 315.425 94.702,316.149 94.181,316.327 93.847 C 316.727 93.100,319.940 91.582,320.682 91.789 C 320.980 91.872,321.643 92.116,322.156 92.330 M389.823 106.233 C 389.823 106.513,389.688 106.878,389.522 107.044 C 389.308 107.258,389.349 107.395,389.663 107.515 C 390.013 107.650,390.106 107.479,390.106 106.705 C 390.106 106.166,390.042 105.724,389.965 105.724 C 389.887 105.724,389.823 105.953,389.823 106.233 M350.975 110.569 C 350.255 112.759,351.055 114.017,352.492 112.952 C 352.799 112.725,352.847 112.738,352.688 113.004 C 352.571 113.198,352.610 113.357,352.775 113.357 C 352.939 113.357,353.074 113.230,353.074 113.074 C 353.074 112.919,353.239 112.792,353.441 112.792 C 353.678 112.792,353.809 112.395,353.813 111.661 C 353.819 110.634,353.753 110.530,353.094 110.526 C 352.694 110.524,352.083 110.446,351.735 110.353 C 351.330 110.244,351.057 110.322,350.975 110.569 M323.110 125.623 C 323.110 127.028,323.805 127.621,324.437 126.756 C 324.757 126.319,324.807 126.317,324.965 126.728 C 325.234 127.431,325.833 126.707,325.839 125.670 C 325.845 124.621,325.548 124.392,324.170 124.386 L 323.110 124.382 323.110 125.623 M325.525 125.663 C 325.482 126.057,325.373 126.453,325.282 126.544 C 325.153 126.673,325.203 125.315,325.339 125.018 C 325.481 124.705,325.589 125.079,325.525 125.663 M170.524 129.220 C 169.030 129.960,167.772 131.449,167.209 133.144 C 166.973 133.852,166.471 134.888,166.093 135.444 C 165.715 136.001,165.073 137.484,164.667 138.739 C 164.260 139.995,163.698 141.317,163.417 141.677 C 161.274 144.428,162.322 146.866,165.559 146.660 L 166.926 146.572 167.915 144.696 C 168.459 143.663,169.251 142.418,169.673 141.928 C 170.096 141.438,170.705 140.156,171.025 139.080 C 171.347 138.000,172.039 136.557,172.570 135.862 C 174.280 133.622,174.449 133.116,174.088 131.319 C 173.582 128.797,172.576 128.205,170.524 129.220 M173.272 130.816 C 173.833 132.837,173.616 133.617,171.993 135.406 C 171.640 135.795,171.078 136.967,170.743 138.011 C 170.408 139.055,169.831 140.327,169.459 140.838 C 169.088 141.349,168.330 142.631,167.774 143.688 C 166.620 145.883,166.528 145.944,164.813 145.647 C 162.827 145.304,162.419 144.322,163.586 142.696 C 164.072 142.020,164.744 140.562,165.080 139.456 C 165.416 138.350,165.996 137.030,166.370 136.524 C 166.744 136.017,167.311 134.819,167.630 133.860 C 168.909 130.015,172.510 128.072,173.272 130.816 M101.585 132.092 C 101.236 132.766,101.191 138.637,101.261 173.506 L 101.343 214.134 101.979 215.689 L 102.615 217.244 102.615 242.279 L 102.615 267.315 103.453 268.118 C 104.709 269.321,105.430 269.365,124.382 269.377 C 143.800 269.391,146.427 269.249,147.543 268.133 L 148.269 267.408 148.350 237.972 C 148.438 206.336,148.442 206.422,146.974 204.395 C 145.890 202.899,145.104 200.884,144.753 198.701 C 144.276 195.739,142.937 193.679,140.890 192.758 C 138.146 191.524,135.242 189.647,134.426 188.582 C 133.955 187.966,132.859 186.594,131.991 185.533 C 128.836 181.676,128.904 181.852,127.332 173.470 C 126.571 169.413,126.560 169.224,127.004 167.817 C 128.118 164.284,127.419 161.896,124.610 159.641 C 123.985 159.139,123.236 158.262,122.945 157.692 C 122.654 157.122,121.454 155.786,120.279 154.724 C 119.103 153.661,117.642 152.028,117.030 151.095 C 116.419 150.163,115.210 148.509,114.344 147.420 C 113.478 146.332,112.523 144.976,112.222 144.407 C 111.922 143.838,111.180 142.800,110.573 142.100 C 109.957 141.388,109.388 140.382,109.283 139.819 C 108.999 138.311,108.403 137.039,107.301 135.596 C 106.756 134.882,105.992 133.670,105.603 132.901 C 104.687 131.094,102.345 130.622,101.585 132.092 M69.301 132.435 C 68.682 132.776,68.723 132.798,69.913 132.765 C 70.615 132.746,71.127 132.631,71.052 132.509 C 70.977 132.387,70.797 132.361,70.652 132.450 C 70.507 132.540,70.389 132.478,70.389 132.314 C 70.389 131.941,70.149 131.968,69.301 132.435 M318.784 132.788 L 317.426 132.894 317.512 134.204 C 317.612 135.734,319.423 136.545,319.444 135.069 C 319.452 134.473,319.484 134.459,319.821 134.902 C 320.140 135.321,320.189 135.196,320.183 133.983 C 320.179 133.211,320.168 132.602,320.159 132.630 C 320.149 132.658,319.530 132.729,318.784 132.788 M313.004 141.288 L 311.802 141.375 311.802 142.716 C 311.802 143.957,311.854 144.057,312.509 144.057 C 312.898 144.057,313.217 143.923,313.220 143.760 C 313.222 143.596,313.332 143.633,313.463 143.840 C 313.980 144.656,314.620 143.978,314.620 142.615 C 314.620 141.404,314.360 141.190,313.004 141.288 M208.622 162.243 C 205.788 162.665,205.112 163.477,206.055 165.327 C 206.767 166.723,207.628 167.073,210.261 167.039 C 213.738 166.994,213.852 166.928,213.852 164.934 L 213.852 163.251 212.590 162.615 C 211.295 161.962,210.818 161.917,208.622 162.243 M212.204 163.093 C 214.025 164.203,212.159 166.364,209.653 166.047 C 206.316 165.625,205.711 163.242,208.831 162.807 C 211.027 162.501,211.267 162.521,212.204 163.093 M185.553 171.992 C 185.449 172.262,185.673 172.889,186.094 173.506 C 186.490 174.085,187.262 175.856,187.809 177.442 C 189.163 181.361,190.607 183.155,193.748 184.821 C 197.340 186.726,198.340 187.368,199.930 188.790 C 200.746 189.520,202.004 190.589,202.726 191.165 C 203.448 191.742,204.387 192.821,204.813 193.563 C 206.101 195.807,208.311 197.764,208.751 197.052 C 208.839 196.909,209.525 196.588,210.275 196.339 C 211.251 196.015,212.232 195.313,213.721 193.873 C 217.804 189.926,222.555 188.905,227.986 190.808 C 232.281 192.313,233.622 192.478,234.557 191.618 C 234.985 191.225,235.789 190.632,236.343 190.302 C 237.431 189.653,237.830 189.035,238.293 187.279 L 238.591 186.148 236.963 184.582 C 236.068 183.721,235.009 182.583,234.611 182.053 L 233.886 181.091 231.202 181.570 C 227.123 182.299,217.422 182.254,215.195 181.496 C 214.301 181.191,212.424 180.805,211.025 180.637 C 207.504 180.216,206.397 179.907,202.827 178.352 C 200.692 177.423,198.759 176.818,196.662 176.425 C 193.540 175.840,193.242 175.708,188.924 172.992 C 186.771 171.638,185.799 171.350,185.553 171.992 M225.693 199.716 C 226.632 200.426,225.687 201.430,223.878 201.644 C 222.096 201.855,221.929 201.986,220.944 203.933 C 220.055 205.689,220.114 206.226,221.368 207.824 C 222.558 209.340,222.294 210.601,220.787 210.601 C 219.140 210.601,216.352 209.072,215.712 207.819 C 215.421 207.250,214.927 206.552,214.612 206.267 L 214.040 205.750 214.723 204.744 C 215.099 204.190,215.406 203.576,215.406 203.378 C 215.406 202.952,216.998 201.555,217.484 201.555 C 217.670 201.555,218.284 201.174,218.849 200.708 C 220.451 199.387,224.487 198.802,225.693 199.716 M287.945 207.086 C 285.069 208.140,284.555 209.656,284.472 217.315 C 284.415 222.595,284.340 223.476,283.849 224.585 C 281.859 229.084,274.645 234.206,268.694 235.344 C 267.524 235.568,266.064 236.007,265.451 236.321 C 264.237 236.940,262.635 236.785,260.380 235.829 C 259.821 235.592,258.453 235.307,257.340 235.195 C 255.236 234.984,250.370 232.908,248.328 231.350 C 247.840 230.978,246.817 230.555,246.053 230.410 C 245.289 230.265,244.283 229.999,243.816 229.818 C 243.350 229.637,241.633 229.372,240.000 229.230 C 237.684 229.028,236.721 228.808,235.618 228.230 C 234.146 227.458,230.347 225.837,226.716 224.431 C 225.219 223.851,224.350 223.314,223.748 222.599 C 223.076 221.800,222.490 221.475,220.957 221.050 C 219.890 220.754,218.618 220.213,218.130 219.847 C 217.338 219.252,211.737 216.820,211.159 216.820 C 210.831 216.820,209.958 219.575,210.175 219.927 C 210.275 220.088,210.832 220.462,211.412 220.759 C 211.993 221.055,213.225 222.215,214.149 223.336 C 215.074 224.457,216.244 225.821,216.749 226.366 C 217.330 226.993,217.872 228.046,218.225 229.231 C 218.532 230.261,219.153 231.611,219.605 232.231 C 220.516 233.479,221.060 235.577,221.060 237.838 C 221.060 239.006,221.243 239.612,221.915 240.672 C 222.385 241.413,223.203 242.881,223.733 243.933 C 224.263 244.985,225.004 246.048,225.379 246.293 C 226.124 246.782,226.370 247.315,227.261 250.377 C 227.638 251.673,228.317 253.064,229.124 254.194 C 229.822 255.172,231.027 257.244,231.801 258.799 C 234.537 264.293,235.511 265.770,237.156 266.919 L 238.683 267.986 264.095 267.986 C 281.083 267.986,289.689 267.889,290.054 267.693 C 291.219 267.070,292.048 264.779,291.699 263.151 C 291.526 262.345,291.446 261.052,291.520 260.277 C 291.595 259.501,291.527 258.406,291.369 257.843 C 291.199 257.235,290.994 248.794,290.864 237.032 C 290.743 226.148,290.621 215.208,290.592 212.721 C 290.521 206.707,290.295 206.225,287.945 207.086 M209.184 231.656 C 209.519 232.197,210.148 232.893,210.581 233.202 C 212.374 234.478,212.352 237.260,210.542 238.189 C 210.030 238.452,209.308 238.903,208.937 239.192 C 208.453 239.569,207.815 239.712,206.676 239.697 C 203.922 239.663,203.855 239.545,205.405 237.445 C 206.981 235.310,207.462 234.127,207.479 232.344 C 207.498 230.340,208.197 230.058,209.184 231.656 M230.788 273.499 C 230.841 274.276,230.900 275.071,230.919 275.265 C 230.942 275.496,231.444 275.618,232.367 275.618 L 233.781 275.618 233.781 274.224 C 233.781 272.703,233.559 272.512,231.943 272.640 C 231.477 272.677,231.005 272.568,230.894 272.397 C 230.783 272.226,230.736 272.722,230.788 273.499 M105.137 275.689 C 104.849 276.630,105.355 277.872,105.832 277.395 C 105.928 277.299,106.007 277.347,106.007 277.503 C 106.007 278.062,105.632 278.144,105.276 277.663 C 104.939 277.209,104.918 277.214,104.990 277.739 C 105.073 278.333,106.290 278.733,106.290 278.166 C 106.290 277.990,106.440 277.940,106.624 278.053 C 107.004 278.288,115.973 278.213,116.988 277.966 C 117.798 277.769,117.278 277.337,116.184 277.297 C 115.541 277.274,115.562 277.241,116.412 276.933 C 116.927 276.746,117.255 276.502,117.143 276.389 C 117.030 276.276,117.118 276.182,117.338 276.179 C 117.668 276.176,117.664 276.127,117.314 275.901 C 116.961 275.672,105.205 275.468,105.137 275.689 M128.905 275.899 C 128.210 276.124,128.212 276.128,129.046 276.160 C 129.702 276.185,129.798 276.254,129.470 276.466 C 128.920 276.822,128.384 276.786,137.527 277.016 L 145.159 277.209 137.385 277.290 C 129.420 277.373,126.901 277.592,129.580 277.968 C 134.949 278.723,153.614 278.089,152.707 277.183 C 152.598 277.074,152.636 277.024,152.792 277.071 C 153.145 277.179,154.629 276.208,154.629 275.869 C 154.629 275.731,154.315 275.618,153.931 275.618 C 153.449 275.618,153.280 275.741,153.385 276.014 C 153.589 276.546,152.967 276.897,152.555 276.482 C 152.304 276.229,152.353 276.198,152.759 276.353 C 153.148 276.501,153.257 276.448,153.160 276.158 C 153.009 275.706,130.256 275.464,128.905 275.899 M153.501 277.170 C 153.219 277.510,153.237 277.623,153.594 277.760 C 154.147 277.972,154.629 277.691,154.629 277.156 C 154.629 276.625,153.946 276.633,153.501 277.170 " stroke="none" fill="#f67e10" fill-rule="evenodd"></path><path id="path2" d="M285.380 46.195 C 284.753 46.862,283.661 47.797,282.952 48.273 C 281.535 49.226,279.712 51.123,279.260 52.115 C 278.860 52.994,278.164 53.370,276.542 53.586 L 275.155 53.770 273.947 52.326 L 272.739 50.883 270.292 50.888 C 266.984 50.893,266.519 51.159,266.096 53.293 C 265.856 54.507,265.580 55.102,265.116 55.406 C 262.915 56.852,262.719 57.631,264.163 59.189 C 265.167 60.272,265.084 60.546,263.251 62.193 C 261.669 63.614,261.589 63.649,260.257 63.498 C 258.303 63.276,257.644 63.778,251.698 70.015 C 250.627 71.139,250.420 71.237,249.111 71.237 C 247.493 71.237,245.669 72.860,244.234 75.577 L 243.534 76.905 244.298 78.345 L 245.063 79.785 244.352 81.189 C 243.065 83.730,243.670 84.067,250.035 84.355 C 254.407 84.553,255.538 86.007,254.590 90.206 C 253.707 94.118,252.458 95.650,248.622 97.526 C 246.797 98.419,242.046 98.326,239.359 97.346 C 237.981 96.843,236.347 96.520,234.346 96.356 C 232.714 96.221,230.424 95.865,229.258 95.563 C 228.092 95.260,226.643 94.948,226.039 94.868 C 225.434 94.788,224.480 94.405,223.919 94.017 C 221.182 92.126,215.671 91.601,210.346 92.725 C 207.020 93.427,201.287 93.489,198.493 92.854 C 196.715 92.449,196.160 92.190,194.452 90.968 C 194.048 90.679,192.712 90.358,191.095 90.163 C 187.982 89.787,187.273 89.503,185.159 87.789 C 183.430 86.387,180.793 85.371,178.881 85.371 C 178.214 85.371,176.968 85.096,176.113 84.761 C 173.429 83.707,159.937 83.625,155.479 84.635 C 153.257 85.138,151.410 85.371,149.636 85.371 C 147.918 85.371,146.772 85.510,146.242 85.783 C 145.802 86.010,144.519 86.601,143.392 87.097 C 142.265 87.593,141.192 88.180,141.008 88.402 C 140.497 89.017,138.828 89.777,137.102 90.181 C 136.242 90.382,135.109 90.904,134.565 91.350 C 134.024 91.793,133.451 92.155,133.292 92.154 C 133.134 92.154,132.299 92.885,131.437 93.780 C 130.576 94.674,129.334 95.828,128.678 96.344 C 128.021 96.859,127.047 97.966,126.512 98.802 C 125.977 99.639,125.183 100.543,124.748 100.812 C 124.313 101.081,123.449 101.768,122.827 102.337 C 117.329 107.374,106.440 108.782,100.975 105.161 C 100.271 104.695,99.159 104.263,98.416 104.167 C 96.082 103.866,95.749 103.727,94.722 102.634 C 94.165 102.042,93.011 101.240,92.155 100.852 C 91.300 100.464,90.220 99.813,89.756 99.405 C 89.291 98.998,88.365 98.478,87.699 98.251 C 87.032 98.024,86.165 97.586,85.773 97.277 C 85.380 96.968,84.041 96.376,82.796 95.962 C 81.552 95.547,79.953 94.764,79.242 94.222 C 78.531 93.679,77.362 92.984,76.643 92.675 C 75.924 92.367,74.914 91.793,74.399 91.400 C 73.883 91.007,72.436 90.370,71.183 89.985 C 68.740 89.235,65.187 87.544,63.647 86.398 C 63.127 86.011,62.191 85.608,61.567 85.503 C 60.136 85.261,56.413 83.576,55.368 82.697 C 53.580 81.192,50.618 80.807,48.975 81.865 C 48.377 82.250,48.339 82.466,48.339 85.475 C 48.339 88.877,48.271 89.063,46.744 89.851 C 45.835 90.321,43.463 89.519,42.090 88.278 C 41.470 87.718,40.364 86.957,39.633 86.587 C 37.948 85.735,34.282 83.589,33.361 82.916 C 32.532 82.311,29.544 81.131,28.839 81.131 C 28.569 81.131,27.599 80.750,26.683 80.284 C 20.506 77.144,16.345 77.208,13.395 80.491 L 11.496 82.605 12.815 83.816 C 14.106 85.001,14.134 85.064,14.134 86.730 C 14.134 87.788,14.342 88.919,14.682 89.712 L 15.231 90.991 14.615 92.449 L 13.999 93.907 15.476 95.222 C 16.721 96.331,16.981 96.736,17.137 97.809 C 17.344 99.227,17.962 100.636,18.378 100.636 C 18.528 100.636,18.959 101.126,19.338 101.725 C 19.773 102.415,20.499 103.037,21.318 103.422 C 23.124 104.271,25.005 105.763,26.265 107.347 C 28.702 110.411,33.142 113.777,35.312 114.204 C 36.102 114.360,37.412 114.619,38.222 114.779 C 39.032 114.939,40.273 115.441,40.978 115.893 C 43.408 117.451,53.421 118.010,56.211 116.744 C 60.260 114.907,65.578 115.736,69.155 118.761 C 70.063 119.528,71.253 120.276,71.800 120.423 C 72.347 120.571,73.671 121.267,74.743 121.971 C 77.692 123.908,81.162 123.640,83.864 121.268 L 84.893 120.364 87.896 120.467 C 90.704 120.563,90.985 120.627,92.236 121.456 C 93.777 122.476,94.715 122.414,97.123 121.134 C 98.585 120.357,109.811 120.019,111.108 120.713 C 112.597 121.510,113.833 124.112,113.992 126.784 C 114.164 129.668,115.139 132.742,116.266 133.952 C 117.239 134.996,117.501 135.604,117.739 137.360 C 117.956 138.968,118.046 139.090,120.556 141.201 C 122.532 142.863,122.652 142.996,123.267 144.201 C 123.576 144.808,124.091 145.462,124.411 145.655 C 124.730 145.849,125.509 146.872,126.140 147.929 C 126.859 149.130,127.618 150.019,128.167 150.301 C 130.579 151.537,138.142 160.168,137.780 161.272 C 137.730 161.428,137.494 163.081,137.256 164.947 C 136.914 167.629,136.639 168.706,135.939 170.091 C 134.912 172.125,134.928 174.706,135.971 175.265 C 136.259 175.419,136.812 176.216,137.201 177.037 C 137.879 178.471,140.947 181.767,141.604 181.767 C 141.770 181.767,142.414 182.225,143.034 182.786 C 143.803 183.480,144.838 184.013,146.280 184.458 C 150.386 185.725,151.837 187.543,151.592 191.116 C 151.333 194.895,153.407 199.159,156.500 201.207 C 157.259 201.710,158.293 202.426,158.799 202.799 C 159.304 203.172,160.385 203.636,161.201 203.831 C 164.923 204.718,170.100 208.274,171.439 210.864 C 171.674 211.319,172.145 211.780,172.484 211.887 C 172.824 211.995,173.691 212.634,174.411 213.308 C 175.131 213.981,176.540 214.900,177.542 215.350 C 178.544 215.800,179.546 216.387,179.769 216.656 C 179.992 216.924,180.665 217.394,181.266 217.701 C 181.866 218.007,182.829 218.679,183.405 219.194 C 183.981 219.709,184.988 220.466,185.643 220.875 C 186.322 221.299,187.258 222.282,187.822 223.163 C 188.846 224.765,189.428 225.179,192.025 226.150 C 192.881 226.470,194.284 227.355,195.178 228.137 C 196.064 228.912,197.130 229.725,197.546 229.942 C 197.963 230.160,198.674 230.728,199.127 231.204 L 199.949 232.069 201.030 231.093 C 201.634 230.547,202.663 229.978,203.363 229.801 C 204.552 229.502,205.795 228.661,205.795 228.156 C 205.795 228.028,205.038 227.520,204.112 227.026 C 202.356 226.090,201.908 225.636,200.662 223.526 C 199.996 222.398,199.701 222.184,198.051 221.635 C 196.855 221.237,195.962 220.736,195.551 220.230 C 194.870 219.393,190.326 216.942,187.636 215.960 C 185.251 215.090,179.730 209.217,178.914 206.681 C 178.486 205.351,178.217 205.033,177.054 204.481 C 175.341 203.668,175.211 201.936,176.780 200.837 C 177.780 200.137,185.491 200.267,187.133 201.011 C 189.090 201.899,191.887 205.145,193.068 207.900 C 193.739 209.466,193.913 209.522,198.615 209.684 C 202.817 209.829,204.099 209.529,204.099 208.402 C 204.099 207.749,202.745 205.564,202.139 205.240 C 201.848 205.084,201.328 204.375,200.985 203.665 C 200.641 202.955,200.062 202.178,199.698 201.940 C 199.334 201.701,198.715 200.977,198.322 200.329 C 197.929 199.682,196.836 198.516,195.892 197.739 C 194.948 196.961,193.578 195.801,192.848 195.160 C 190.799 193.362,187.684 191.989,184.594 191.523 C 182.374 191.187,178.839 189.970,177.668 189.138 C 176.334 188.191,174.953 187.583,173.527 187.316 C 172.960 187.210,172.174 186.870,171.781 186.561 C 171.388 186.252,170.262 185.604,169.279 185.122 C 168.017 184.503,166.784 183.527,165.088 181.804 C 161.489 178.149,161.700 178.667,161.698 173.480 C 161.696 168.748,161.781 168.359,163.125 166.926 C 163.563 166.459,164.303 165.348,164.770 164.456 C 166.545 161.068,168.376 159.435,170.401 159.435 C 171.006 159.435,172.241 159.180,173.145 158.869 C 175.405 158.092,178.125 158.136,181.626 159.007 C 183.181 159.394,184.734 159.712,185.079 159.714 C 185.424 159.716,186.344 160.284,187.124 160.977 C 187.905 161.670,189.022 162.368,189.607 162.527 C 190.193 162.686,191.307 163.275,192.085 163.835 C 193.832 165.093,197.374 166.784,200.000 167.613 C 201.088 167.956,202.424 168.589,202.968 169.020 C 204.547 170.268,204.910 170.374,208.339 170.581 C 211.047 170.745,211.801 170.895,212.854 171.481 C 213.614 171.905,214.914 172.286,216.120 172.439 C 217.222 172.579,218.498 172.850,218.956 173.041 C 219.880 173.428,229.441 173.575,230.695 173.222 C 231.097 173.109,231.910 172.631,232.502 172.161 C 235.242 169.984,237.024 170.174,239.152 172.871 C 239.852 173.758,240.869 174.916,241.413 175.446 C 241.958 175.975,242.657 176.663,242.968 176.974 C 243.422 177.427,245.806 179.800,248.418 182.397 C 248.616 182.595,249.069 183.123,249.424 183.571 C 250.005 184.304,250.296 184.406,252.314 184.588 C 253.633 184.707,255.316 185.091,256.396 185.520 C 257.406 185.922,259.161 186.528,260.296 186.867 C 262.565 187.545,265.708 189.910,266.248 191.345 C 267.143 193.729,266.572 196.124,264.893 197.023 C 264.597 197.182,263.967 197.988,263.494 198.816 C 262.192 201.090,261.169 201.597,258.455 201.309 C 257.852 201.245,254.696 198.311,253.815 196.996 C 253.051 195.857,250.547 195.210,249.156 195.791 C 248.504 196.064,246.869 196.312,245.139 196.400 C 241.508 196.586,241.167 196.815,241.345 198.948 C 241.460 200.332,241.544 200.479,242.501 200.970 C 245.630 202.575,245.404 206.551,242.139 207.370 C 240.417 207.802,232.807 207.358,231.661 206.758 C 231.039 206.433,230.403 206.200,230.247 206.240 C 230.092 206.281,229.501 206.391,228.935 206.486 C 228.019 206.638,227.883 206.772,227.711 207.690 C 227.366 209.527,225.966 210.601,223.915 210.601 C 221.641 210.601,221.569 211.209,223.781 211.740 C 224.864 212.000,225.607 212.383,226.113 212.942 C 226.521 213.393,227.175 214.112,227.565 214.539 C 228.089 215.111,228.657 215.366,229.721 215.507 C 230.611 215.625,231.587 216.000,232.261 216.484 C 232.864 216.915,234.057 217.561,234.912 217.918 C 235.767 218.276,236.971 218.966,237.588 219.453 C 238.881 220.473,240.222 220.716,244.744 220.754 C 248.072 220.781,248.791 221.011,251.188 222.818 C 254.663 225.438,255.165 225.555,263.002 225.567 C 272.009 225.580,272.486 225.449,273.922 222.564 C 274.466 221.471,275.055 220.399,275.229 220.182 C 275.975 219.257,275.862 216.940,275.009 215.671 C 273.876 213.984,273.847 211.207,274.946 209.587 C 275.354 208.987,276.120 207.607,276.648 206.521 C 277.176 205.435,277.846 204.287,278.135 203.970 C 278.425 203.652,278.877 202.968,279.139 202.449 C 279.486 201.762,280.054 201.307,281.222 200.778 C 282.727 200.096,285.796 198.115,287.067 197.005 C 287.378 196.733,288.204 196.213,288.903 195.849 C 289.724 195.422,290.493 194.699,291.079 193.804 C 291.577 193.042,292.104 192.344,292.250 192.252 C 292.396 192.160,292.925 191.388,293.426 190.537 L 294.336 188.989 294.223 185.166 C 294.091 180.720,294.036 180.576,291.541 178.163 L 289.714 176.396 287.207 176.396 C 284.036 176.396,283.613 176.223,281.434 174.045 L 279.645 172.256 279.881 170.762 C 280.143 169.100,280.719 168.378,285.696 163.472 C 287.150 162.038,288.339 160.752,288.339 160.613 C 288.339 160.473,288.858 160.000,289.493 159.560 C 290.169 159.091,290.927 158.207,291.325 157.422 C 291.698 156.685,292.123 156.008,292.269 155.918 C 292.416 155.828,292.820 154.896,293.168 153.849 C 293.617 152.496,294.106 151.657,294.856 150.954 C 295.436 150.410,296.109 149.570,296.351 149.088 C 296.593 148.606,297.115 147.999,297.511 147.740 C 297.906 147.480,298.428 146.794,298.670 146.214 C 298.911 145.634,299.539 144.714,300.065 144.170 C 300.591 143.625,301.356 142.510,301.765 141.692 C 302.173 140.873,302.810 139.919,303.179 139.572 C 303.548 139.224,304.121 138.240,304.452 137.385 C 304.783 136.530,305.434 135.352,305.899 134.767 C 306.364 134.183,306.943 133.229,307.186 132.647 C 307.428 132.066,308.053 131.118,308.574 130.540 C 309.095 129.963,309.859 128.818,310.272 127.996 C 310.684 127.174,311.443 126.150,311.958 125.720 C 312.667 125.127,312.979 124.559,313.243 123.378 C 313.586 121.846,314.322 120.902,316.212 119.570 C 316.907 119.081,317.589 117.833,317.867 116.545 C 317.975 116.043,318.614 115.020,319.288 114.271 C 320.395 113.040,323.274 107.609,323.818 105.724 C 324.162 104.534,325.085 103.793,327.029 103.146 C 328.053 102.805,329.389 102.165,330.000 101.723 C 331.365 100.734,331.470 100.733,332.867 101.691 C 338.049 105.246,343.313 105.999,346.417 103.629 C 347.812 102.565,351.016 101.484,352.777 101.484 C 355.239 101.484,366.853 105.688,369.382 107.494 L 370.565 108.339 371.637 107.456 C 372.226 106.970,372.861 106.572,373.047 106.572 C 373.682 106.572,374.558 105.111,374.554 104.061 C 374.548 102.252,374.299 101.844,372.755 101.113 C 370.200 99.903,369.868 97.179,372.109 95.812 C 373.163 95.170,378.316 95.033,380.701 95.584 C 383.674 96.270,385.818 95.051,386.425 92.331 C 386.594 91.573,387.046 90.417,387.430 89.762 C 387.813 89.108,388.127 88.419,388.127 88.231 C 388.127 87.799,385.116 84.880,384.149 84.375 C 383.749 84.166,383.079 83.477,382.661 82.845 C 382.242 82.213,381.724 81.696,381.508 81.696 C 381.292 81.696,380.372 81.140,379.463 80.460 C 378.553 79.780,377.300 78.966,376.678 78.650 C 376.057 78.335,375.230 77.730,374.841 77.308 C 374.452 76.885,373.575 76.297,372.892 76.001 C 372.209 75.705,371.153 74.965,370.546 74.358 C 369.938 73.750,368.163 72.596,366.600 71.794 C 364.462 70.695,363.644 70.115,363.293 69.449 C 363.037 68.963,362.463 68.244,362.018 67.851 C 361.573 67.459,360.826 66.782,360.358 66.348 C 359.084 65.165,357.081 64.268,355.327 64.095 C 354.256 63.989,353.309 63.658,352.323 63.045 C 350.908 62.166,350.800 62.146,346.254 61.943 C 340.820 61.701,340.635 61.633,337.320 58.622 C 336.100 57.514,334.451 56.278,333.657 55.875 C 332.356 55.216,331.680 54.566,329.543 51.923 C 328.674 50.847,322.399 50.456,319.331 51.287 C 317.667 51.737,317.412 51.740,316.027 51.329 C 314.872 50.986,313.180 50.883,308.686 50.883 C 301.612 50.883,299.942 50.442,295.979 47.523 C 295.406 47.102,294.405 46.719,293.576 46.604 C 292.795 46.496,291.456 46.158,290.601 45.853 C 287.528 44.756,286.681 44.812,285.380 46.195 M322.531 91.560 C 323.067 91.810,323.731 92.401,324.006 92.873 C 324.908 94.425,323.815 95.561,320.767 96.237 C 320.122 96.380,319.806 96.784,319.032 98.453 C 316.701 103.480,311.554 104.694,309.985 100.587 C 309.186 98.496,311.761 94.700,313.977 94.700 C 314.179 94.700,314.866 94.223,315.503 93.640 C 318.125 91.241,320.400 90.568,322.531 91.560 M173.065 129.175 C 174.820 130.555,174.626 133.168,172.570 135.862 C 172.039 136.557,171.347 138.000,171.025 139.080 C 170.705 140.156,170.096 141.438,169.673 141.928 C 169.251 142.418,168.459 143.663,167.915 144.696 L 166.926 146.572 165.559 146.660 C 162.322 146.866,161.274 144.428,163.417 141.677 C 163.698 141.317,164.260 139.995,164.667 138.739 C 165.073 137.484,165.715 136.001,166.093 135.444 C 166.471 134.888,166.973 133.852,167.209 133.144 C 168.237 130.048,171.427 127.887,173.065 129.175 M212.590 162.615 L 213.852 163.251 213.852 164.934 C 213.852 166.928,213.738 166.994,210.261 167.039 C 207.628 167.073,206.767 166.723,206.055 165.327 C 205.112 163.477,205.788 162.665,208.622 162.243 C 210.818 161.917,211.295 161.962,212.590 162.615 M220.963 199.605 C 220.366 199.746,219.414 200.242,218.849 200.708 C 218.284 201.174,217.670 201.555,217.484 201.555 C 216.998 201.555,215.406 202.952,215.406 203.378 C 215.406 203.576,215.099 204.190,214.723 204.744 L 214.040 205.750 214.612 206.267 C 214.927 206.552,215.421 207.250,215.712 207.819 C 216.352 209.072,219.140 210.601,220.787 210.601 C 222.294 210.601,222.558 209.340,221.368 207.824 C 220.114 206.226,220.055 205.689,220.944 203.933 C 221.929 201.986,222.096 201.855,223.878 201.644 C 225.687 201.430,226.632 200.426,225.693 199.716 C 225.092 199.261,222.670 199.204,220.963 199.605 M207.680 230.860 C 207.576 230.963,207.486 231.631,207.479 232.344 C 207.462 234.127,206.981 235.310,205.405 237.445 C 203.855 239.545,203.922 239.663,206.676 239.697 C 207.815 239.712,208.453 239.569,208.937 239.192 C 209.308 238.903,210.030 238.452,210.542 238.189 C 212.352 237.260,212.374 234.478,210.581 233.202 C 210.148 232.893,209.519 232.197,209.184 231.656 C 208.605 230.718,208.092 230.447,207.680 230.860 " stroke="none" fill="#ffffff" fill-rule="evenodd"></path></g></svg>